SplineFontDB: 3.2
FontName: CSLSans-Light
FullName: CSL Sans Light
FamilyName: CSL Sans Light
Weight: Light
Copyright: Copyright (c) 2019 IBM Corp. with Reserved Font Name "Plex"\n\nCopyright (c) 2019 The HMI Sans Project Authors (https://github.com/somegoodpixels/hmi-sans)\nCopyright (c) 2021 The CSL Sans Project Authors (https://github.com/cssobral2013/CSL-Sans)\nThis Font Software is licensed under the SIL Open Font License, Version 1.1.\nThis license is copied below, and is also available with a FAQ at: http://scripts.sil.org/OFL.
Version: 2.001;January 21, 2022;FontCreator 14.0.0.2808 64-bit
ItalicAngle: 0
UnderlinePosition: -138
UnderlineWidth: 43
Ascent: 800
Descent: 200
InvalidEm: 0
sfntRevision: 0x00020041
LayerCount: 2
Layer: 0 1 "Back" 1
Layer: 1 1 "Fore" 0
XUID: [1021 651 537639564 11784]
StyleMap: 0x0000
FSType: 0
OS2Version: 3
OS2_WeightWidthSlopeOnly: 0
OS2_UseTypoMetrics: 0
CreationTime: 1550580407
ModificationTime: 1642760271
PfmFamily: 81
TTFWeight: 300
TTFWidth: 5
LineGap: 0
VLineGap: 0
Panose: 0 0 4 0 0 0 0 0 0 0
OS2TypoAscent: 1000
OS2TypoAOffset: 0
OS2TypoDescent: -220
OS2TypoDOffset: 0
OS2TypoLinegap: 0
OS2WinAscent: 1000
OS2WinAOffset: 0
OS2WinDescent: 220
OS2WinDOffset: 0
HheadAscent: 1000
HheadAOffset: 0
HheadDescent: -220
HheadDOffset: 0
OS2SubXSize: 650
OS2SubYSize: 600
OS2SubXOff: 0
OS2SubYOff: 75
OS2SupXSize: 650
OS2SupYSize: 600
OS2SupXOff: 0
OS2SupYOff: 350
OS2StrikeYSize: 43
OS2StrikeYPos: 307
OS2CapHeight: 698
OS2XHeight: 512
OS2Vendor: 'UKWN'
OS2CodePages: 2000019f.00000000
OS2UnicodeRanges: a10002ff.5000a07b.00000000.00000000
Lookup: 258 0 0 "'kern' Kerning Horizontal lookup 0" { "'kern' Kerning Horizontal lookup 0 per glyph data 0"  "'kern' Kerning Horizontal lookup 0 kerning class 1"  "'kern' Kerning Horizontal lookup 0 kerning class 2"  "'kern' Kerning Horizontal lookup 0 kerning class 3"  } ['kern' ('DFLT' <'dflt' > 'cyrl' <'dflt' > 'grek' <'dflt' > 'latn' <'dflt' > ) ]
DEI: 91125

StartChar: .notdef
Encoding: 65536 -1 0
Width: 472
Flags: W
LayerCount: 2
Fore
SplineSet
440 0 m 1,0,-1
 440 780 l 1,1,-1
 32 780 l 1,2,-1
 32 0 l 1,3,-1
 440 0 l 1,0,-1
397 43 m 1,4,-1
 75 43 l 1,5,-1
 75 737 l 1,6,-1
 397 737 l 1,7,-1
 397 43 l 1,4,-1
EndSplineSet
EndChar

StartChar: exclam
Encoding: 33 33 2
Width: 272
GlyphClass: 1
Flags: W
LayerCount: 2
Fore
SplineSet
150 181 m 1,0,-1
 167 464 l 1,1,-1
 167 698 l 1,2,-1
 105 698 l 1,3,-1
 105 464 l 1,4,-1
 121 181 l 1,5,-1
 150 181 l 1,0,-1
136 -9 m 0,6,7
 184 -9 184 -9 184 36 c 2,8,-1
 184 47 l 2,9,10
 184 67 184 67 172 79.5 c 128,-1,11
 160 92 160 92 136 92 c 0,12,13
 111 92 111 92 99.5 79.5 c 128,-1,14
 88 67 88 67 88 47 c 2,15,-1
 88 36 l 2,16,17
 88 16 88 16 99.5 3.5 c 128,-1,18
 111 -9 111 -9 136 -9 c 0,6,7
EndSplineSet
EndChar

StartChar: quotedbl
Encoding: 34 34 3
Width: 400
GlyphClass: 7
Flags: W
LayerCount: 2
Fore
SplineSet
142 472 m 1,0,-1
 142 740 l 1,1,-1
 90 740 l 1,2,-1
 90 472 l 1,3,-1
 142 472 l 1,0,-1
310 472 m 1,4,-1
 310 740 l 1,5,-1
 258 740 l 1,6,-1
 258 472 l 1,7,-1
 310 472 l 1,4,-1
EndSplineSet
EndChar

StartChar: numbersign
Encoding: 35 35 4
Width: 713
GlyphClass: 5
Flags: W
LayerCount: 2
Fore
SplineSet
427 0 m 1,0,-1
 463 211 l 1,1,-1
 608 211 l 1,2,-1
 608 255 l 1,3,-1
 471 255 l 1,4,-1
 502 443 l 1,5,-1
 647 443 l 1,6,-1
 647 487 l 1,7,-1
 510 487 l 1,8,-1
 547 698 l 1,9,-1
 499 698 l 1,10,-1
 463 487 l 1,11,-1
 297 487 l 1,12,-1
 333 698 l 1,13,-1
 286 698 l 1,14,-1
 250 487 l 1,15,-1
 105 487 l 1,16,-1
 105 443 l 1,17,-1
 242 443 l 1,18,-1
 210 255 l 1,19,-1
 66 255 l 1,20,-1
 66 211 l 1,21,-1
 202 211 l 1,22,-1
 166 0 l 1,23,-1
 213 0 l 1,24,-1
 250 211 l 1,25,-1
 416 211 l 1,26,-1
 379 0 l 1,27,-1
 427 0 l 1,0,-1
423 255 m 1,28,-1
 257 255 l 1,29,-1
 289 443 l 1,30,-1
 455 443 l 1,31,-1
 423 255 l 1,28,-1
EndSplineSet
EndChar

StartChar: dollar
Encoding: 36 36 5
Width: 578
Flags: W
LayerCount: 2
Fore
SplineSet
314 -82 m 1,0,-1
 314 0 l 1,1,2
 410 7 410 7 465 56.5 c 128,-1,3
 520 106 520 106 520 194 c 0,4,5
 520 270 520 270 479 314 c 0,6,7
 436 363 436 363 331 381 c 2,8,-1
 314 384 l 1,9,-1
 314 647 l 1,10,11
 418 635 418 635 468 560 c 1,12,-1
 512 593 l 1,13,14
 450 687 450 687 314 699 c 1,15,-1
 314 780 l 1,16,-1
 270 780 l 1,17,-1
 270 698 l 1,18,19
 179 692 179 692 123 649 c 128,-1,20
 67 606 67 606 67 523 c 0,21,22
 67 488 67 488 77 458 c 0,23,24
 108 365 108 365 258 339 c 2,25,-1
 270 337 l 1,26,-1
 270 51 l 1,27,28
 154 64 154 64 91 154 c 1,29,-1
 48 117 l 1,30,31
 128 8 128 8 270 0 c 1,32,-1
 270 -82 l 1,33,-1
 314 -82 l 1,0,-1
314 51 m 1,34,-1
 314 330 l 1,35,-1
 321 329 l 2,36,37
 390 320 390 320 426.5 287.5 c 128,-1,38
 463 255 463 255 463 191 c 0,39,40
 463 129 463 129 423.5 93 c 128,-1,41
 384 57 384 57 314 51 c 1,34,-1
270 391 m 1,42,-1
 260 393 l 2,43,44
 124 417 124 417 124 526 c 0,45,46
 124 582 124 582 162.5 612 c 128,-1,47
 201 642 201 642 270 647 c 1,48,-1
 270 391 l 1,42,-1
EndSplineSet
EndChar

StartChar: percent
Encoding: 37 37 6
Width: 908
Flags: W
LayerCount: 2
Fore
SplineSet
241 0 m 1,0,-1
 725 698 l 1,1,-1
 669 698 l 1,2,-1
 185 0 l 1,3,-1
 241 0 l 1,0,-1
221 319 m 256,4,5
 290 319 290 319 331.5 367 c 128,-1,6
 373 415 373 415 373 514 c 0,7,8
 373 614 373 614 331.5 662 c 128,-1,9
 290 710 290 710 221 710 c 256,10,11
 152 710 152 710 110.5 662 c 128,-1,12
 69 614 69 614 69 514 c 0,13,14
 69 415 69 415 110.5 367 c 128,-1,15
 152 319 152 319 221 319 c 256,4,5
221 357 m 256,16,17
 176 357 176 357 148.5 389 c 128,-1,18
 121 421 121 421 121 490 c 2,19,-1
 121 539 l 2,20,21
 121 608 121 608 148.5 640 c 128,-1,22
 176 672 176 672 221 672 c 256,23,24
 266 672 266 672 293.5 640 c 128,-1,25
 321 608 321 608 321 539 c 2,26,-1
 321 490 l 2,27,28
 321 421 321 421 293.5 389 c 128,-1,29
 266 357 266 357 221 357 c 256,16,17
687 -12 m 256,30,31
 756 -12 756 -12 797.5 36 c 128,-1,32
 839 84 839 84 839 183 c 0,33,34
 839 283 839 283 797.5 331 c 128,-1,35
 756 379 756 379 687 379 c 256,36,37
 618 379 618 379 576.5 331 c 128,-1,38
 535 283 535 283 535 183 c 0,39,40
 535 84 535 84 576.5 36 c 128,-1,41
 618 -12 618 -12 687 -12 c 256,30,31
687 26 m 256,42,43
 642 26 642 26 614.5 58 c 128,-1,44
 587 90 587 90 587 159 c 2,45,-1
 587 208 l 2,46,47
 587 277 587 277 614.5 309 c 128,-1,48
 642 341 642 341 687 341 c 256,49,50
 732 341 732 341 759.5 309 c 128,-1,51
 787 277 787 277 787 208 c 2,52,-1
 787 159 l 2,53,54
 787 90 787 90 759.5 58 c 128,-1,55
 732 26 732 26 687 26 c 256,42,43
EndSplineSet
EndChar

StartChar: ampersand
Encoding: 38 38 7
Width: 687
GlyphClass: 3
Flags: W
LayerCount: 2
Fore
SplineSet
280 -12 m 0,0,1
 356 -12 356 -12 415 23 c 0,2,3
 467 55 467 55 492 95 c 1,4,-1
 583 0 l 1,5,-1
 657 0 l 1,6,-1
 522 141 l 1,7,8
 557 216 557 216 566 311 c 1,9,-1
 644 311 l 1,10,-1
 644 361 l 1,11,-1
 519 361 l 1,12,13
 516 259 516 259 486 179 c 1,14,-1
 305 367 l 1,15,16
 381 403 381 403 430 451 c 128,-1,17
 479 499 479 499 479 564 c 256,18,19
 479 629 479 629 433.5 669.5 c 128,-1,20
 388 710 388 710 314 710 c 0,21,22
 235 710 235 710 186.5 664 c 128,-1,23
 138 618 138 618 138 547 c 0,24,25
 138 499 138 499 161 458.5 c 128,-1,26
 184 418 184 418 224 375 c 1,27,28
 162 346 162 346 118 300 c 0,29,30
 71 247 71 247 71 175 c 0,31,32
 71 96 71 96 125.5 42 c 128,-1,33
 180 -12 180 -12 280 -12 c 0,0,1
273 400 m 1,34,35
 239 437 239 437 217 471.5 c 128,-1,36
 195 506 195 506 195 541 c 2,37,-1
 195 555 l 2,38,39
 195 600 195 600 226.5 631 c 128,-1,40
 258 662 258 662 311 662 c 0,41,42
 355 662 355 662 390 637 c 0,43,44
 423 611 423 611 423 564 c 2,45,-1
 423 551 l 2,46,47
 423 472 423 472 273 400 c 1,34,35
284 39 m 0,48,49
 215 39 215 39 173 74 c 128,-1,50
 131 109 131 109 131 169 c 2,51,-1
 131 186 l 2,52,53
 131 218 131 218 141 242 c 0,54,55
 165 299 165 299 255 342 c 1,56,-1
 459 130 l 1,57,58
 401 39 401 39 284 39 c 0,48,49
EndSplineSet
EndChar

StartChar: quotesingle
Encoding: 39 39 8
Width: 232
Flags: W
LayerCount: 2
Fore
SplineSet
142 472 m 1,0,-1
 142 740 l 1,1,-1
 90 740 l 1,2,-1
 90 472 l 1,3,-1
 142 472 l 1,0,-1
EndSplineSet
EndChar

StartChar: parenleft
Encoding: 40 40 9
Width: 334
Flags: W
LayerCount: 2
Fore
SplineSet
330 -137 m 1,0,1
 250 -66 250 -66 198 47 c 128,-1,2
 146 160 146 160 146 278 c 2,3,-1
 146 344 l 2,4,5
 146 463 146 463 199 576 c 0,6,7
 249 686 249 686 330 760 c 1,8,-1
 274 760 l 1,9,10
 198 694 198 694 146 578 c 0,11,12
 92 453 92 453 92 312 c 0,13,14
 92 170 92 170 147 45 c 0,15,16
 199 -73 199 -73 274 -137 c 1,17,-1
 330 -137 l 1,0,1
EndSplineSet
EndChar

StartChar: parenright
Encoding: 41 41 10
Width: 334
GlyphClass: 3
Flags: W
LayerCount: 2
Fore
SplineSet
60 -137 m 1,0,1
 135 -73 135 -73 187 45 c 0,2,3
 242 170 242 170 242 312 c 0,4,5
 242 453 242 453 188 578 c 0,6,7
 136 694 136 694 60 760 c 1,8,-1
 4 760 l 1,9,10
 85 686 85 686 136.5 574.5 c 128,-1,11
 188 463 188 463 188 344 c 2,12,-1
 188 278 l 2,13,14
 188 160 188 160 136 47 c 128,-1,15
 84 -66 84 -66 4 -137 c 1,16,-1
 60 -137 l 1,0,1
EndSplineSet
EndChar

StartChar: asterisk
Encoding: 42 42 11
Width: 416
Flags: W
LayerCount: 2
Fore
SplineSet
294 407 m 1,0,-1
 334 436 l 1,1,-1
 242 557 l 1,2,-1
 387 598 l 1,3,-1
 371 647 l 1,4,-1
 229 596 l 1,5,-1
 233 747 l 1,6,-1
 183 747 l 1,7,-1
 187 596 l 1,8,-1
 44 647 l 1,9,-1
 29 598 l 1,10,-1
 174 557 l 1,11,-1
 82 436 l 1,12,-1
 122 407 l 1,13,-1
 208 532 l 1,14,-1
 294 407 l 1,0,-1
EndSplineSet
EndChar

StartChar: plus
Encoding: 43 43 12
Width: 600
Flags: W
LayerCount: 2
Fore
SplineSet
327 63 m 1,0,-1
 327 281 l 1,1,-1
 535 281 l 1,2,-1
 535 330 l 1,3,-1
 327 330 l 1,4,-1
 327 548 l 1,5,-1
 273 548 l 1,6,-1
 273 330 l 1,7,-1
 65 330 l 1,8,-1
 65 281 l 1,9,-1
 273 281 l 1,10,-1
 273 63 l 1,11,-1
 327 63 l 1,0,-1
EndSplineSet
EndChar

StartChar: comma
Encoding: 44 44 13
Width: 260
GlyphClass: 3
Flags: W
LayerCount: 2
Fore
SplineSet
92 -138 m 1,0,1
 132 -103 132 -103 155 -56 c 128,-1,2
 178 -9 178 -9 178 33 c 2,3,-1
 178 46 l 2,4,5
 178 66 178 66 166.5 79 c 128,-1,6
 155 92 155 92 130 92 c 256,7,8
 105 92 105 92 93.5 79 c 128,-1,9
 82 66 82 66 82 46 c 2,10,-1
 82 34 l 2,11,12
 82 -2 82 -2 118 -7 c 1,13,14
 108 -72 108 -72 44 -138 c 1,15,-1
 92 -138 l 1,0,1
EndSplineSet
EndChar

StartChar: hyphen
Encoding: 45 45 14
Width: 397
Flags: W
LayerCount: 2
Fore
SplineSet
323 274 m 1,0,-1
 323 335 l 1,1,-1
 74 335 l 1,2,-1
 74 274 l 1,3,-1
 323 274 l 1,0,-1
EndSplineSet
EndChar

StartChar: period
Encoding: 46 46 15
Width: 260
Flags: W
LayerCount: 2
Fore
SplineSet
130 -9 m 0,0,1
 178 -9 178 -9 178 36 c 2,2,-1
 178 47 l 2,3,4
 178 67 178 67 166 79.5 c 128,-1,5
 154 92 154 92 130 92 c 0,6,7
 105 92 105 92 93.5 79.5 c 128,-1,8
 82 67 82 67 82 47 c 2,9,-1
 82 36 l 2,10,11
 82 16 82 16 93.5 3.5 c 128,-1,12
 105 -9 105 -9 130 -9 c 0,0,1
EndSplineSet
EndChar

StartChar: slash
Encoding: 47 47 16
Width: 356
GlyphClass: 3
Flags: W
LayerCount: 2
Fore
SplineSet
62 -151 m 1,0,-1
 314 740 l 1,1,-1
 263 740 l 1,2,-1
 11 -151 l 1,3,-1
 62 -151 l 1,0,-1
EndSplineSet
EndChar

StartChar: zero
Encoding: 48 48 17
Width: 600
GlyphClass: 5
Flags: W
LayerCount: 2
Fore
SplineSet
300 -12 m 256,0,1
 536 -12 536 -12 536 349 c 256,2,3
 536 710 536 710 301 710 c 0,4,5
 65 710 65 710 64 349 c 0,6,7
 64 -12 64 -12 300 -12 c 256,0,1
300 40 m 0,8,9
 211 40 211 40 169 110 c 128,-1,10
 127 180 127 180 127 302 c 2,11,-1
 127 396 l 2,12,13
 127 518 127 518 169 588 c 128,-1,14
 211 658 211 658 300 658 c 0,15,16
 388 658 388 658 430.5 588 c 128,-1,17
 473 518 473 518 473 396 c 2,18,-1
 473 302 l 2,19,20
 473 180 473 180 430.5 110 c 128,-1,21
 388 40 388 40 300 40 c 0,8,9
EndSplineSet
EndChar

StartChar: one
Encoding: 49 49 18
Width: 600
Flags: W
LayerCount: 2
Fore
SplineSet
374 0 m 1,0,-1
 314 0 l 1,1,-1
 314 643 l 1,2,-1
 164 554 l 1,3,-1
 164 614 l 1,4,-1
 309 698 l 1,5,-1
 374 698 l 1,6,-1
 374 0 l 1,0,-1
EndSplineSet
EndChar

StartChar: two
Encoding: 50 50 19
Width: 600
Flags: W
LayerCount: 2
Fore
SplineSet
528 0 m 1,0,-1
 528 53 l 1,1,-1
 145 53 l 1,2,-1
 360 257 l 2,3,4
 423 315 423 315 461 375 c 128,-1,5
 499 435 499 435 499 511 c 0,6,7
 499 601 499 601 445 655.5 c 128,-1,8
 391 710 391 710 293 710 c 0,9,10
 204 710 204 710 147 662 c 0,11,12
 94 617 94 617 76 550 c 1,13,-1
 130 530 l 1,14,15
 146 587 146 587 183.5 621.5 c 128,-1,16
 221 656 221 656 291 656 c 0,17,18
 363 656 363 656 399 617 c 128,-1,19
 435 578 435 578 435 516 c 2,20,-1
 435 497 l 2,21,22
 435 402 435 402 324 295 c 2,23,-1
 80 61 l 1,24,-1
 80 0 l 1,25,-1
 528 0 l 1,0,-1
EndSplineSet
EndChar

StartChar: three
Encoding: 51 51 20
Width: 600
Flags: W
LayerCount: 2
Fore
SplineSet
274 -12 m 0,0,1
 376 -12 376 -12 437.5 43.5 c 128,-1,2
 499 99 499 99 499 189 c 0,3,4
 499 267 499 267 455.5 311.5 c 128,-1,5
 412 356 412 356 349 366 c 1,6,-1
 349 370 l 1,7,8
 408 384 408 384 446.5 424 c 128,-1,9
 485 464 485 464 485 535 c 0,10,11
 485 618 485 618 427 664 c 128,-1,12
 369 710 369 710 283 710 c 0,13,14
 201 710 201 710 153 676.5 c 128,-1,15
 105 643 105 643 81 597 c 1,16,-1
 126 565 l 1,17,18
 147 607 147 607 184 631.5 c 128,-1,19
 221 656 221 656 282 656 c 256,20,21
 343 656 343 656 382 624 c 128,-1,22
 421 592 421 592 421 533 c 2,23,-1
 421 520 l 2,24,25
 421 463 421 463 380.5 427.5 c 128,-1,26
 340 392 340 392 268 392 c 2,27,-1
 185 392 l 1,28,-1
 185 340 l 1,29,-1
 273 340 l 2,30,31
 429 340 429 340 435 199 c 1,32,-1
 435 183 l 2,33,34
 435 117 435 117 392 79.5 c 128,-1,35
 349 42 349 42 273 42 c 0,36,37
 208 42 208 42 167 66.5 c 128,-1,38
 126 91 126 91 98 136 c 1,39,-1
 53 102 l 1,40,41
 85 52 85 52 137.5 20 c 128,-1,42
 190 -12 190 -12 274 -12 c 0,0,1
EndSplineSet
EndChar

StartChar: four
Encoding: 52 52 21
Width: 600
GlyphClass: 2
Flags: W
LayerCount: 2
Fore
SplineSet
446 0 m 1,0,-1
 446 146 l 1,1,-1
 554 146 l 1,2,-1
 554 196 l 1,3,-1
 446 196 l 1,4,-1
 446 698 l 1,5,-1
 360 698 l 1,6,-1
 42 199 l 1,7,-1
 42 146 l 1,8,-1
 389 146 l 1,9,-1
 389 0 l 1,10,-1
 446 0 l 1,0,-1
389 196 m 1,11,-1
 98 196 l 1,12,-1
 386 647 l 1,13,-1
 389 647 l 1,14,-1
 389 196 l 1,11,-1
EndSplineSet
EndChar

StartChar: five
Encoding: 53 53 22
Width: 600
Flags: W
LayerCount: 2
Fore
SplineSet
296 -12 m 0,0,1
 400 -12 400 -12 460 49.5 c 128,-1,2
 520 111 520 111 520 213 c 0,3,4
 520 314 520 314 463.5 370 c 128,-1,5
 407 426 407 426 315 426 c 0,6,7
 259 426 259 426 223.5 407.5 c 128,-1,8
 188 389 188 389 163 352 c 1,9,-1
 157 353 l 1,10,-1
 179 645 l 1,11,-1
 491 645 l 1,12,-1
 491 698 l 1,13,-1
 130 698 l 1,14,-1
 105 319 l 1,15,-1
 157 311 l 1,16,17
 182 341 182 341 213.5 358 c 128,-1,18
 245 375 245 375 299 375 c 0,19,20
 376 375 376 375 416.5 332.5 c 128,-1,21
 457 290 457 290 457 217 c 2,22,-1
 457 200 l 2,23,24
 457 127 457 127 415.5 84.5 c 128,-1,25
 374 42 374 42 296 42 c 0,26,27
 231 42 231 42 192 66.5 c 128,-1,28
 153 91 153 91 125 136 c 1,29,-1
 80 102 l 1,30,31
 151 -12 151 -12 296 -12 c 0,0,1
EndSplineSet
EndChar

StartChar: six
Encoding: 54 54 23
Width: 600
GlyphClass: 2
Flags: W
LayerCount: 2
Fore
SplineSet
301 -12 m 0,0,1
 403 -12 403 -12 463 51 c 0,2,3
 524 112 524 112 524 214 c 0,4,5
 524 312 524 312 467 370 c 0,6,7
 408 427 408 427 316 427 c 0,8,9
 198 427 198 427 142 325 c 1,10,-1
 138 326 l 1,11,12
 163 446 163 446 230 533.5 c 128,-1,13
 297 621 297 621 412 698 c 1,14,-1
 333 698 l 1,15,16
 233 636 233 636 156 521 c 0,17,18
 75 395 75 395 75 244 c 0,19,20
 75 130 75 130 133.5 59 c 128,-1,21
 192 -12 192 -12 301 -12 c 0,0,1
300 40 m 0,22,23
 223 40 223 40 180 83.5 c 128,-1,24
 137 127 137 127 137 201 c 2,25,-1
 137 217 l 2,26,27
 137 290 137 290 179.5 333 c 128,-1,28
 222 376 222 376 300 376 c 0,29,30
 377 376 377 376 419.5 333 c 128,-1,31
 462 290 462 290 462 217 c 2,32,-1
 462 200 l 2,33,34
 462 127 462 127 419 83.5 c 128,-1,35
 376 40 376 40 300 40 c 0,22,23
EndSplineSet
EndChar

StartChar: seven
Encoding: 55 55 24
Width: 600
Flags: W
LayerCount: 2
Fore
SplineSet
244 0 m 1,0,-1
 180 0 l 1,1,-1
 460 646 l 1,2,-1
 72 646 l 1,3,-1
 72 698 l 1,4,-1
 521 698 l 1,5,-1
 521 645 l 1,6,-1
 244 0 l 1,0,-1
EndSplineSet
EndChar

StartChar: eight
Encoding: 56 56 25
Width: 600
Flags: W
LayerCount: 2
Fore
SplineSet
300 -12 m 256,0,1
 414 -12 414 -12 475.5 44.5 c 128,-1,2
 537 101 537 101 537 186 c 0,3,4
 537 259 537 259 497.5 303.5 c 128,-1,5
 458 348 458 348 390 363 c 1,6,-1
 390 370 l 1,7,8
 514 409 514 409 514 535 c 0,9,10
 514 615 514 615 457.5 662.5 c 128,-1,11
 401 710 401 710 300 710 c 256,12,13
 199 710 199 710 142.5 662.5 c 128,-1,14
 86 615 86 615 86 535 c 0,15,16
 86 409 86 409 210 370 c 1,17,-1
 210 363 l 1,18,19
 142 348 142 348 102.5 303.5 c 128,-1,20
 63 259 63 259 63 186 c 0,21,22
 63 101 63 101 124.5 44.5 c 128,-1,23
 186 -12 186 -12 300 -12 c 256,0,1
300 40 m 256,24,25
 219 40 219 40 173 77.5 c 128,-1,26
 127 115 127 115 127 179 c 2,27,-1
 127 202 l 2,28,29
 127 267 127 267 173 304 c 128,-1,30
 219 341 219 341 300 341 c 256,31,32
 381 341 381 341 427 304 c 128,-1,33
 473 267 473 267 473 202 c 2,34,-1
 473 179 l 2,35,36
 473 115 473 115 427 77.5 c 128,-1,37
 381 40 381 40 300 40 c 256,24,25
300 392 m 0,38,39
 228 392 228 392 188 424.5 c 128,-1,40
 148 457 148 457 148 516 c 2,41,-1
 148 534 l 2,42,43
 148 592 148 592 188 625 c 128,-1,44
 228 658 228 658 300 658 c 256,45,46
 372 658 372 658 412 625 c 128,-1,47
 452 592 452 592 452 534 c 2,48,-1
 452 516 l 2,49,50
 452 398 452 398 300 392 c 0,38,39
EndSplineSet
EndChar

StartChar: nine
Encoding: 57 57 26
Width: 600
GlyphClass: 1
Flags: W
LayerCount: 2
Fore
SplineSet
267 0 m 1,0,1
 368 62 368 62 444 177 c 0,2,3
 525 303 525 303 525 454 c 0,4,5
 525 568 525 568 468 640 c 0,6,7
 410 710 410 710 300 710 c 0,8,9
 198 710 198 710 137 648 c 128,-1,10
 76 586 76 586 76 484 c 0,11,12
 76 387 76 387 134.5 329 c 128,-1,13
 193 271 193 271 284 271 c 0,14,15
 402 271 402 271 458 373 c 1,16,-1
 462 372 l 1,17,18
 437 251 437 251 370.5 164 c 128,-1,19
 304 77 304 77 189 0 c 1,20,-1
 267 0 l 1,0,1
301 322 m 0,21,22
 223 322 223 322 180.5 365 c 128,-1,23
 138 408 138 408 138 481 c 2,24,-1
 138 498 l 2,25,26
 138 571 138 571 181 614.5 c 128,-1,27
 224 658 224 658 301 658 c 0,28,29
 377 658 377 658 420 614.5 c 128,-1,30
 463 571 463 571 463 497 c 2,31,-1
 463 481 l 2,32,33
 463 408 463 408 420.5 365 c 128,-1,34
 378 322 378 322 301 322 c 0,21,22
EndSplineSet
EndChar

StartChar: colon
Encoding: 58 58 27
Width: 280
Flags: W
LayerCount: 2
Fore
SplineSet
140 -9 m 0,0,1
 188 -9 188 -9 188 36 c 2,2,-1
 188 47 l 2,3,4
 188 67 188 67 176 79.5 c 128,-1,5
 164 92 164 92 140 92 c 0,6,7
 115 92 115 92 103.5 79.5 c 128,-1,8
 92 67 92 67 92 47 c 2,9,-1
 92 36 l 2,10,11
 92 16 92 16 103.5 3.5 c 128,-1,12
 115 -9 115 -9 140 -9 c 0,0,1
140 411 m 0,13,14
 188 411 188 411 188 456 c 2,15,-1
 188 467 l 2,16,17
 188 487 188 487 176 499.5 c 128,-1,18
 164 512 164 512 140 512 c 0,19,20
 115 512 115 512 103.5 499.5 c 128,-1,21
 92 487 92 487 92 467 c 2,22,-1
 92 456 l 2,23,24
 92 436 92 436 103.5 423.5 c 128,-1,25
 115 411 115 411 140 411 c 0,13,14
EndSplineSet
EndChar

StartChar: semicolon
Encoding: 59 59 28
Width: 280
GlyphClass: 2
Flags: W
LayerCount: 2
Fore
SplineSet
102 -138 m 1,0,1
 142 -103 142 -103 165 -56 c 128,-1,2
 188 -9 188 -9 188 33 c 2,3,-1
 188 46 l 2,4,5
 188 66 188 66 176.5 79 c 128,-1,6
 165 92 165 92 140 92 c 256,7,8
 115 92 115 92 103.5 79 c 128,-1,9
 92 66 92 66 92 46 c 2,10,-1
 92 34 l 2,11,12
 92 -2 92 -2 128 -7 c 1,13,14
 118 -72 118 -72 54 -138 c 1,15,-1
 102 -138 l 1,0,1
139 411 m 0,16,17
 187 411 187 411 187 456 c 2,18,-1
 187 467 l 2,19,20
 187 487 187 487 175 499.5 c 128,-1,21
 163 512 163 512 139 512 c 0,22,23
 114 512 114 512 102.5 499.5 c 128,-1,24
 91 487 91 487 91 467 c 2,25,-1
 91 456 l 2,26,27
 91 436 91 436 102.5 423.5 c 128,-1,28
 114 411 114 411 139 411 c 0,16,17
EndSplineSet
EndChar

StartChar: less
Encoding: 60 60 29
Width: 600
Flags: W
LayerCount: 2
Fore
SplineSet
512 8 m 1,0,-1
 512 68 l 1,1,-1
 143 285 l 1,2,-1
 143 291 l 1,3,-1
 512 508 l 1,4,-1
 512 568 l 1,5,-1
 88 316 l 1,6,-1
 88 260 l 1,7,-1
 512 8 l 1,0,-1
EndSplineSet
EndChar

StartChar: equal
Encoding: 61 61 30
Width: 600
GlyphClass: 2
Flags: W
LayerCount: 2
Fore
SplineSet
535 377 m 1,0,-1
 535 426 l 1,1,-1
 65 426 l 1,2,-1
 65 377 l 1,3,-1
 535 377 l 1,0,-1
535 186 m 1,4,-1
 535 235 l 1,5,-1
 65 235 l 1,6,-1
 65 186 l 1,7,-1
 535 186 l 1,4,-1
EndSplineSet
EndChar

StartChar: greater
Encoding: 62 62 31
Width: 600
GlyphClass: 5
Flags: W
LayerCount: 2
Fore
SplineSet
88 8 m 1,0,-1
 512 260 l 1,1,-1
 512 316 l 1,2,-1
 88 568 l 1,3,-1
 88 508 l 1,4,-1
 457 291 l 1,5,-1
 457 285 l 1,6,-1
 88 68 l 1,7,-1
 88 8 l 1,0,-1
EndSplineSet
EndChar

StartChar: question
Encoding: 63 63 32
Width: 469
GlyphClass: 3
Flags: W
LayerCount: 2
Fore
SplineSet
242 196 m 1,0,-1
 242 321 l 1,1,2
 322 333 322 333 377.5 383.5 c 128,-1,3
 433 434 433 434 433 525 c 0,4,5
 433 610 433 610 381 660 c 128,-1,6
 329 710 329 710 238 710 c 0,7,8
 150 710 150 710 99 665.5 c 128,-1,9
 48 621 48 621 28 552 c 1,10,-1
 81 533 l 1,11,12
 113 658 113 658 236 658 c 0,13,14
 299 658 299 658 335 623.5 c 128,-1,15
 371 589 371 589 371 532 c 2,16,-1
 371 513 l 2,17,18
 371 446 371 446 322.5 406.5 c 128,-1,19
 274 367 274 367 186 363 c 1,20,-1
 186 196 l 1,21,-1
 242 196 l 1,0,-1
214 -9 m 0,22,23
 262 -9 262 -9 262 33 c 2,24,-1
 262 47 l 2,25,26
 262 89 262 89 214 92 c 0,27,28
 167 92 167 92 167 49 c 2,29,-1
 167 36 l 2,30,31
 167 -6 167 -6 214 -9 c 0,22,23
EndSplineSet
EndChar

StartChar: at
Encoding: 64 64 33
Width: 887
Flags: W
LayerCount: 2
Fore
SplineSet
678 -121 m 1,0,-1
 678 -77 l 1,1,-1
 445 -77 l 2,2,3
 301 -77 301 -77 208.5 19.5 c 128,-1,4
 116 116 116 116 116 267 c 2,5,-1
 116 323 l 2,6,7
 116 469 116 469 210.5 567 c 128,-1,8
 305 665 305 665 450 665 c 0,9,10
 587 665 587 665 679 579.5 c 128,-1,11
 771 494 771 494 771 354 c 2,12,-1
 771 308 l 2,13,14
 771 217 771 217 743.5 165 c 128,-1,15
 716 113 716 113 666 113 c 0,16,17
 604 113 604 113 604 183 c 2,18,-1
 604 498 l 1,19,-1
 554 498 l 1,20,-1
 554 432 l 1,21,-1
 550 432 l 1,22,23
 516 509 516 509 428 509 c 0,24,25
 355 509 355 509 305 453.5 c 128,-1,26
 255 398 255 398 255 288 c 0,27,28
 255 179 255 179 305 124 c 128,-1,29
 355 69 355 69 428 69 c 0,30,31
 517 69 517 69 557 152 c 1,32,-1
 560 152 l 1,33,34
 565 115 565 115 589.5 92 c 128,-1,35
 614 69 614 69 658 69 c 0,36,37
 741 69 741 69 783 145 c 0,38,39
 820 220 820 220 820 326 c 0,40,41
 820 425 820 425 790 497 c 128,-1,42
 760 569 760 569 708 616.5 c 128,-1,43
 656 664 656 664 589.5 686.5 c 128,-1,44
 523 709 523 709 451 709 c 0,45,46
 282 709 282 709 174.5 595 c 128,-1,47
 67 481 67 481 67 293 c 0,48,49
 67 104 67 104 172.5 -8.5 c 128,-1,50
 278 -121 278 -121 444 -121 c 2,51,-1
 678 -121 l 1,0,-1
437 117 m 0,52,53
 375 117 375 117 345 155 c 128,-1,54
 315 193 315 193 315 256 c 2,55,-1
 315 320 l 2,56,57
 315 386 315 386 345 423.5 c 128,-1,58
 375 461 375 461 437 461 c 0,59,60
 491 461 491 461 522.5 432 c 128,-1,61
 554 403 554 403 554 357 c 2,62,-1
 554 224 l 2,63,64
 554 174 554 174 522.5 145.5 c 128,-1,65
 491 117 491 117 437 117 c 0,52,53
EndSplineSet
EndChar

StartChar: A
Encoding: 65 65 34
Width: 625
GlyphClass: 5
Flags: W
LayerCount: 2
Fore
SplineSet
599 0 m 1,0,-1
 351 698 l 1,1,-1
 274 698 l 1,2,-1
 27 0 l 1,3,-1
 87 0 l 1,4,-1
 163 217 l 1,5,-1
 460 217 l 1,6,-1
 536 0 l 1,7,-1
 599 0 l 1,0,-1
444 269 m 1,8,-1
 178 269 l 1,9,-1
 309 641 l 1,10,-1
 313 641 l 1,11,-1
 444 269 l 1,8,-1
EndSplineSet
EndChar

StartChar: B
Encoding: 66 66 35
Width: 638
GlyphClass: 7
Flags: W
LayerCount: 2
Fore
SplineSet
397 0 m 2,0,1
 477 0 477 0 525.5 56 c 128,-1,2
 574 112 574 112 574 197 c 0,3,4
 574 273 574 273 531 320 c 0,5,6
 491 360 491 360 440 366 c 1,7,-1
 440 370 l 1,8,9
 480 378 480 378 513 414 c 0,10,11
 547 454 547 454 547 522 c 0,12,13
 547 605 547 605 500.5 651.5 c 128,-1,14
 454 698 454 698 372 698 c 2,15,-1
 99 698 l 1,16,-1
 99 0 l 1,17,-1
 397 0 l 2,0,1
381 53 m 2,18,-1
 159 53 l 1,19,-1
 159 337 l 1,20,-1
 381 337 l 2,21,22
 444 337 444 337 477 302.5 c 128,-1,23
 510 268 510 268 510 214 c 2,24,-1
 510 177 l 2,25,26
 510 122 510 122 477 87.5 c 128,-1,27
 444 53 444 53 381 53 c 2,18,-1
366 389 m 2,28,-1
 159 389 l 1,29,-1
 159 645 l 1,30,-1
 366 645 l 2,31,32
 423 645 423 645 453 614.5 c 128,-1,33
 483 584 483 584 483 536 c 2,34,-1
 483 498 l 2,35,36
 483 450 483 450 453 419.5 c 128,-1,37
 423 389 423 389 366 389 c 2,28,-1
EndSplineSet
EndChar

StartChar: C
Encoding: 67 67 36
Width: 617
Flags: W
LayerCount: 2
Fore
SplineSet
335 -12 m 0,0,1
 420 -12 420 -12 480 29.5 c 128,-1,2
 540 71 540 71 571 144 c 1,3,-1
 522 173 l 1,4,5
 499 112 499 112 452 77 c 128,-1,6
 405 42 405 42 335 42 c 0,7,8
 237 42 237 42 182 110 c 128,-1,9
 127 178 127 178 127 307 c 2,10,-1
 127 386 l 2,11,12
 127 516 127 516 182 586 c 128,-1,13
 237 656 237 656 335 656 c 0,14,15
 401 656 401 656 447.5 623 c 128,-1,16
 494 590 494 590 517 532 c 1,17,-1
 566 561 l 1,18,19
 534 631 534 631 476.5 670.5 c 128,-1,20
 419 710 419 710 335 710 c 0,21,22
 205 710 205 710 134 617 c 128,-1,23
 63 524 63 524 63 347 c 0,24,25
 63 169 63 169 134 78.5 c 128,-1,26
 205 -12 205 -12 335 -12 c 0,0,1
EndSplineSet
EndChar

StartChar: D
Encoding: 68 68 37
Width: 666
Flags: W
LayerCount: 2
Fore
SplineSet
321 0 m 2,0,1
 456 0 456 0 529.5 87 c 128,-1,2
 603 174 603 174 603 349 c 256,3,4
 603 524 603 524 529.5 611 c 128,-1,5
 456 698 456 698 321 698 c 2,6,-1
 99 698 l 1,7,-1
 99 0 l 1,8,-1
 321 0 l 2,0,1
322 53 m 2,9,-1
 159 53 l 1,10,-1
 159 645 l 1,11,-1
 322 645 l 2,12,13
 425 645 425 645 482 578.5 c 128,-1,14
 539 512 539 512 539 395 c 2,15,-1
 539 303 l 2,16,17
 539 186 539 186 482 119.5 c 128,-1,18
 425 53 425 53 322 53 c 2,9,-1
EndSplineSet
EndChar

StartChar: E
Encoding: 69 69 38
Width: 574
Flags: W
LayerCount: 2
Fore
SplineSet
507 0 m 1,0,-1
 507 53 l 1,1,-1
 159 53 l 1,2,-1
 159 328 l 1,3,-1
 490 328 l 1,4,-1
 490 381 l 1,5,-1
 159 381 l 1,6,-1
 159 645 l 1,7,-1
 507 645 l 1,8,-1
 507 698 l 1,9,-1
 99 698 l 1,10,-1
 99 0 l 1,11,-1
 507 0 l 1,0,-1
EndSplineSet
EndChar

StartChar: F
Encoding: 70 70 39
Width: 550
GlyphClass: 2
Flags: W
LayerCount: 2
Fore
SplineSet
159 0 m 1,0,-1
 159 328 l 1,1,-1
 475 328 l 1,2,-1
 475 381 l 1,3,-1
 159 381 l 1,4,-1
 159 645 l 1,5,-1
 498 645 l 1,6,-1
 498 698 l 1,7,-1
 99 698 l 1,8,-1
 99 0 l 1,9,-1
 159 0 l 1,0,-1
EndSplineSet
EndChar

StartChar: G
Encoding: 71 71 40
Width: 684
Flags: W
LayerCount: 2
Fore
SplineSet
345 -12 m 0,0,1
 426 -12 426 -12 478.5 20 c 128,-1,2
 531 52 531 52 550 107 c 1,3,-1
 553 107 l 1,4,-1
 553 0 l 1,5,-1
 609 0 l 1,6,-1
 609 348 l 1,7,-1
 387 348 l 1,8,-1
 387 296 l 1,9,-1
 550 296 l 1,10,-1
 550 212 l 2,11,12
 550 127 550 127 492 84.5 c 128,-1,13
 434 42 434 42 354 42 c 0,14,15
 248 42 248 42 187.5 111.5 c 128,-1,16
 127 181 127 181 127 307 c 2,17,-1
 127 392 l 2,18,19
 127 517 127 517 187 586.5 c 128,-1,20
 247 656 247 656 349 656 c 0,21,22
 418 656 418 656 467.5 623 c 128,-1,23
 517 590 517 590 544 532 c 1,24,-1
 593 561 l 1,25,26
 561 629 561 629 500 669.5 c 128,-1,27
 439 710 439 710 349 710 c 0,28,29
 217 710 217 710 140 617.5 c 128,-1,30
 63 525 63 525 63 349 c 0,31,32
 63 175 63 175 140 80 c 0,33,34
 215 -12 215 -12 345 -12 c 0,0,1
EndSplineSet
EndChar

StartChar: H
Encoding: 72 72 41
Width: 701
GlyphClass: 5
Flags: W
LayerCount: 2
Fore
SplineSet
602 0 m 1,0,-1
 602 698 l 1,1,-1
 542 698 l 1,2,-1
 542 381 l 1,3,-1
 159 381 l 1,4,-1
 159 698 l 1,5,-1
 99 698 l 1,6,-1
 99 0 l 1,7,-1
 159 0 l 1,8,-1
 159 328 l 1,9,-1
 542 328 l 1,10,-1
 542 0 l 1,11,-1
 602 0 l 1,0,-1
EndSplineSet
EndChar

StartChar: I
Encoding: 73 73 42
Width: 278
Flags: W
LayerCount: 2
Fore
SplineSet
169 0 m 1,0,-1
 169 698 l 1,1,-1
 109 698 l 1,2,-1
 109 0 l 1,3,-1
 169 0 l 1,0,-1
EndSplineSet
EndChar

StartChar: J
Encoding: 74 74 43
Width: 493
GlyphClass: 2
Flags: W
LayerCount: 2
Fore
SplineSet
210 -12 m 0,0,1
 136 -12 136 -12 88.5 27.5 c 128,-1,2
 41 67 41 67 26 134 c 1,3,-1
 79 147 l 1,4,5
 91 100 91 100 123.5 70.5 c 128,-1,6
 156 41 156 41 212 41 c 0,7,8
 338 41 338 41 339 191 c 2,9,-1
 339 698 l 1,10,-1
 399 698 l 1,11,-1
 399 182 l 2,12,13
 399 89 399 89 347.5 38.5 c 128,-1,14
 296 -12 296 -12 210 -12 c 0,0,1
EndSplineSet
EndChar

StartChar: K
Encoding: 75 75 44
Width: 610
GlyphClass: 5
Flags: W
LayerCount: 2
Fore
SplineSet
589 0 m 1,0,-1
 313 401 l 1,1,-1
 576 698 l 1,2,-1
 503 698 l 1,3,-1
 161 305 l 1,4,-1
 159 305 l 1,5,-1
 159 698 l 1,6,-1
 99 698 l 1,7,-1
 99 0 l 1,8,-1
 159 0 l 1,9,-1
 159 235 l 1,10,-1
 272 360 l 1,11,-1
 515 0 l 1,12,-1
 589 0 l 1,0,-1
EndSplineSet
EndChar

StartChar: L
Encoding: 76 76 45
Width: 491
GlyphClass: 3
Flags: W
LayerCount: 2
Fore
SplineSet
467 0 m 1,0,-1
 467 53 l 1,1,-1
 159 53 l 1,2,-1
 159 698 l 1,3,-1
 99 698 l 1,4,-1
 99 0 l 1,5,-1
 467 0 l 1,0,-1
EndSplineSet
EndChar

StartChar: M
Encoding: 77 77 46
Width: 804
GlyphClass: 5
Flags: W
LayerCount: 2
Fore
SplineSet
705 0 m 1,0,-1
 705 698 l 1,1,-1
 626 698 l 1,2,-1
 405 305 l 1,3,-1
 402 305 l 1,4,-1
 181 698 l 1,5,-1
 99 698 l 1,6,-1
 99 0 l 1,7,-1
 157 0 l 1,8,-1
 157 621 l 1,9,-1
 161 621 l 1,10,-1
 402 194 l 1,11,-1
 643 621 l 1,12,-1
 647 621 l 1,13,-1
 647 0 l 1,14,-1
 705 0 l 1,0,-1
EndSplineSet
EndChar

StartChar: N
Encoding: 78 78 47
Width: 701
GlyphClass: 5
Flags: W
LayerCount: 2
Fore
SplineSet
602 0 m 1,0,-1
 602 698 l 1,1,-1
 544 698 l 1,2,-1
 544 82 l 1,3,-1
 541 82 l 1,4,-1
 174 698 l 1,5,-1
 99 698 l 1,6,-1
 99 0 l 1,7,-1
 157 0 l 1,8,-1
 157 616 l 1,9,-1
 160 616 l 1,10,-1
 527 0 l 1,11,-1
 602 0 l 1,0,-1
EndSplineSet
EndChar

StartChar: O
Encoding: 79 79 48
Width: 697
GlyphClass: 5
Flags: W
LayerCount: 2
Fore
SplineSet
349 -12 m 0,0,1
 482 -12 482 -12 558 80 c 128,-1,2
 634 172 634 172 634 349 c 256,3,4
 634 526 634 526 558 618 c 128,-1,5
 482 710 482 710 349 710 c 0,6,7
 215 710 215 710 139 618.5 c 128,-1,8
 63 527 63 527 63 349 c 256,9,10
 63 171 63 171 139 79.5 c 128,-1,11
 215 -12 215 -12 349 -12 c 0,0,1
349 42 m 0,12,13
 249 42 249 42 188 111.5 c 128,-1,14
 127 181 127 181 127 305 c 2,15,-1
 127 393 l 2,16,17
 127 518 127 518 188 587 c 128,-1,18
 249 656 249 656 349 656 c 0,19,20
 450 656 450 656 510 587 c 128,-1,21
 570 518 570 518 570 393 c 2,22,-1
 570 305 l 2,23,24
 570 181 570 181 510 111.5 c 128,-1,25
 450 42 450 42 349 42 c 0,12,13
EndSplineSet
EndChar

StartChar: P
Encoding: 80 80 49
Width: 601
GlyphClass: 3
Flags: W
LayerCount: 2
Fore
SplineSet
159 0 m 1,0,-1
 159 307 l 1,1,-1
 373 307 l 2,2,3
 464 307 464 307 512 359.5 c 128,-1,4
 560 412 560 412 560 503 c 0,5,6
 560 593 560 593 512 645.5 c 128,-1,7
 464 698 464 698 373 698 c 2,8,-1
 99 698 l 1,9,-1
 99 0 l 1,10,-1
 159 0 l 1,0,-1
373 360 m 2,11,-1
 159 360 l 1,12,-1
 159 645 l 1,13,-1
 373 645 l 2,14,15
 433 645 433 645 464.5 611.5 c 128,-1,16
 496 578 496 578 496 527 c 2,17,-1
 496 479 l 2,18,19
 496 427 496 427 464.5 393.5 c 128,-1,20
 433 360 433 360 373 360 c 2,11,-1
EndSplineSet
EndChar

StartChar: Q
Encoding: 81 81 50
Width: 697
GlyphClass: 3
Flags: W
LayerCount: 2
Fore
SplineSet
349 42 m 0,0,1
 249 42 249 42 188 111.5 c 128,-1,2
 127 181 127 181 127 305 c 2,3,-1
 127 393 l 2,4,5
 127 518 127 518 188 587 c 128,-1,6
 249 656 249 656 349 656 c 0,7,8
 450 656 450 656 510 587 c 128,-1,9
 570 518 570 518 570 393 c 2,10,-1
 570 305 l 2,11,12
 570 181 570 181 510 111.5 c 128,-1,13
 450 42 450 42 349 42 c 0,0,1
558 80 m 0,15,16
 634 172 634 172 634 349 c 256,17,18
 634 526 634 526 558 618 c 128,-1,19
 482 710 482 710 349 710 c 0,20,21
 215 710 215 710 139 618.5 c 128,-1,22
 63 527 63 527 63 349 c 256,23,24
 63 171 63 171 139 79.5 c 128,-1,25
 215 -12 215 -12 349 -12 c 0,26,27
 404 -12 404 -12 450 4 c 1,28,-1
 640 -105 l 1,29,-1
 668 -56 l 1,30,-1
 510 35 l 1,31,14
 536 54 536 54 558 80 c 0,15,16
EndSplineSet
EndChar

StartChar: R
Encoding: 82 82 51
Width: 636
GlyphClass: 5
Flags: W
LayerCount: 2
Fore
SplineSet
578 0 m 1,0,-1
 406 313 l 1,1,2
 481 323 481 323 520.5 373 c 128,-1,3
 560 423 560 423 560 504 c 0,4,5
 560 596 560 596 511.5 647 c 128,-1,6
 463 698 463 698 373 698 c 2,7,-1
 99 698 l 1,8,-1
 99 0 l 1,9,-1
 159 0 l 1,10,-1
 159 309 l 1,11,-1
 344 309 l 1,12,-1
 511 0 l 1,13,-1
 578 0 l 1,0,-1
373 360 m 2,14,-1
 159 360 l 1,15,-1
 159 645 l 1,16,-1
 373 645 l 2,17,18
 433 645 433 645 464.5 611.5 c 128,-1,19
 496 578 496 578 496 527 c 2,20,-1
 496 479 l 2,21,22
 496 427 496 427 464.5 393.5 c 128,-1,23
 433 360 433 360 373 360 c 2,14,-1
EndSplineSet
EndChar

StartChar: S
Encoding: 83 83 52
Width: 568
GlyphClass: 7
Flags: W
LayerCount: 2
Fore
SplineSet
284 -12 m 0,0,1
 391 -12 391 -12 452 41 c 128,-1,2
 513 94 513 94 513 190 c 0,3,4
 513 262 513 262 470.5 310 c 128,-1,5
 428 358 428 358 325 381 c 2,6,-1
 263 394 l 2,7,8
 197 406 197 406 158.5 435.5 c 128,-1,9
 120 465 120 465 120 527 c 0,10,11
 120 592 120 592 163.5 624.5 c 128,-1,12
 207 657 207 657 282 657 c 0,13,14
 401 657 401 657 461 570 c 1,15,-1
 506 603 l 1,16,17
 433 710 433 710 285 710 c 0,18,19
 185 710 185 710 123 663.5 c 128,-1,20
 61 617 61 617 61 525 c 0,21,22
 61 452 61 452 106.5 405 c 128,-1,23
 152 358 152 358 251 338 c 2,24,-1
 313 325 l 2,25,26
 380 312 380 312 417 281.5 c 128,-1,27
 454 251 454 251 454 187 c 0,28,29
 454 118 454 118 410.5 79.5 c 128,-1,30
 367 41 367 41 286 41 c 0,31,32
 217 41 217 41 170 68 c 128,-1,33
 123 95 123 95 87 144 c 1,34,-1
 42 107 l 1,35,36
 82 52 82 52 140 20 c 128,-1,37
 198 -12 198 -12 284 -12 c 0,0,1
EndSplineSet
EndChar

StartChar: T
Encoding: 84 84 53
Width: 568
GlyphClass: 1
Flags: W
LayerCount: 2
Fore
SplineSet
314 0 m 1,0,-1
 314 645 l 1,1,-1
 548 645 l 1,2,-1
 548 698 l 1,3,-1
 20 698 l 1,4,-1
 20 645 l 1,5,-1
 254 645 l 1,6,-1
 254 0 l 1,7,-1
 314 0 l 1,0,-1
EndSplineSet
EndChar

StartChar: U
Encoding: 85 85 54
Width: 668
Flags: W
LayerCount: 2
Fore
SplineSet
332 -12 m 0,0,1
 466 -12 466 -12 520.5 57 c 128,-1,2
 575 126 575 126 575 280 c 2,3,-1
 575 698 l 1,4,-1
 515 698 l 1,5,-1
 515 267 l 2,6,7
 515 152 515 152 475.5 97 c 128,-1,8
 436 42 436 42 334 42 c 256,9,10
 232 42 232 42 192.5 97 c 128,-1,11
 153 152 153 152 153 267 c 2,12,-1
 153 698 l 1,13,-1
 93 698 l 1,14,-1
 93 280 l 2,15,16
 93 126 93 126 146 57 c 128,-1,17
 199 -12 199 -12 332 -12 c 0,0,1
EndSplineSet
EndChar

StartChar: V
Encoding: 86 86 55
Width: 594
Flags: W
LayerCount: 2
Fore
SplineSet
334 0 m 1,0,-1
 570 698 l 1,1,-1
 507 698 l 1,2,-1
 299 61 l 1,3,-1
 295 61 l 1,4,-1
 89 698 l 1,5,-1
 24 698 l 1,6,-1
 258 0 l 1,7,-1
 334 0 l 1,0,-1
EndSplineSet
EndChar

StartChar: W
Encoding: 87 87 56
Width: 884
Flags: W
LayerCount: 2
Fore
SplineSet
678 0 m 1,0,-1
 860 698 l 1,1,-1
 798 698 l 1,2,-1
 644 74 l 1,3,-1
 641 74 l 1,4,-1
 478 698 l 1,5,-1
 405 698 l 1,6,-1
 240 74 l 1,7,-1
 237 74 l 1,8,-1
 88 698 l 1,9,-1
 24 698 l 1,10,-1
 200 0 l 1,11,-1
 270 0 l 1,12,-1
 439 631 l 1,13,-1
 441 631 l 1,14,-1
 608 0 l 1,15,-1
 678 0 l 1,0,-1
EndSplineSet
EndChar

StartChar: X
Encoding: 88 88 57
Width: 592
Flags: W
LayerCount: 2
Fore
SplineSet
566 0 m 1,0,-1
 333 358 l 1,1,-1
 559 698 l 1,2,-1
 490 698 l 1,3,-1
 297 403 l 1,4,-1
 295 403 l 1,5,-1
 104 698 l 1,6,-1
 33 698 l 1,7,-1
 257 355 l 1,8,-1
 26 0 l 1,9,-1
 95 0 l 1,10,-1
 294 309 l 1,11,-1
 296 309 l 1,12,-1
 494 0 l 1,13,-1
 566 0 l 1,0,-1
EndSplineSet
EndChar

StartChar: Y
Encoding: 89 89 58
Width: 575
Flags: W
LayerCount: 2
Fore
SplineSet
317 0 m 1,0,-1
 317 286 l 1,1,-1
 559 698 l 1,2,-1
 491 698 l 1,3,-1
 289 346 l 1,4,-1
 286 346 l 1,5,-1
 84 698 l 1,6,-1
 16 698 l 1,7,-1
 257 283 l 1,8,-1
 257 0 l 1,9,-1
 317 0 l 1,0,-1
EndSplineSet
EndChar

StartChar: Z
Encoding: 90 90 59
Width: 570
Flags: W
LayerCount: 2
Fore
SplineSet
537 0 m 1,0,-1
 537 53 l 1,1,-1
 101 53 l 1,2,-1
 521 643 l 1,3,-1
 521 698 l 1,4,-1
 59 698 l 1,5,-1
 59 645 l 1,6,-1
 456 645 l 1,7,-1
 37 55 l 1,8,-1
 37 0 l 1,9,-1
 537 0 l 1,0,-1
EndSplineSet
EndChar

StartChar: bracketleft
Encoding: 91 91 60
Width: 311
Flags: W
LayerCount: 2
Fore
SplineSet
247 -138 m 1,0,-1
 247 -93 l 1,1,-1
 149 -93 l 1,2,-1
 149 715 l 1,3,-1
 247 715 l 1,4,-1
 247 760 l 1,5,-1
 99 760 l 1,6,-1
 99 -138 l 1,7,-1
 247 -138 l 1,0,-1
EndSplineSet
EndChar

StartChar: backslash
Encoding: 92 92 61
Width: 356
Flags: W
LayerCount: 2
Fore
SplineSet
341 -151 m 1,0,-1
 92 740 l 1,1,-1
 40 740 l 1,2,-1
 289 -151 l 1,3,-1
 341 -151 l 1,0,-1
EndSplineSet
EndChar

StartChar: bracketright
Encoding: 93 93 62
Width: 311
Flags: W
LayerCount: 2
Fore
SplineSet
212 -138 m 1,0,-1
 212 760 l 1,1,-1
 64 760 l 1,2,-1
 64 715 l 1,3,-1
 162 715 l 1,4,-1
 162 -93 l 1,5,-1
 64 -93 l 1,6,-1
 64 -138 l 1,7,-1
 212 -138 l 1,0,-1
EndSplineSet
EndChar

StartChar: asciicircum
Encoding: 94 94 63
Width: 600
Flags: W
LayerCount: 2
Fore
SplineSet
499 306 m 1,0,-1
 543 330 l 1,1,-1
 331 698 l 1,2,-1
 269 698 l 1,3,-1
 57 330 l 1,4,-1
 101 306 l 1,5,-1
 298 644 l 1,6,-1
 302 644 l 1,7,-1
 499 306 l 1,0,-1
EndSplineSet
EndChar

StartChar: underscore
Encoding: 95 95 64
Width: 567
Flags: W
LayerCount: 2
Fore
SplineSet
537 -156 m 1,0,-1
 537 -106 l 1,1,-1
 30 -106 l 1,2,-1
 30 -156 l 1,3,-1
 537 -156 l 1,0,-1
EndSplineSet
EndChar

StartChar: grave
Encoding: 96 96 65
Width: 600
Flags: W
LayerCount: 2
Fore
SplineSet
302 586 m 1,0,-1
 340 604 l 1,1,-1
 245 768 l 1,2,-1
 193 742 l 1,3,-1
 302 586 l 1,0,-1
EndSplineSet
EndChar

StartChar: a
Encoding: 97 97 66
Width: 520
Flags: W
LayerCount: 2
Fore
SplineSet
220 -12 m 0,0,1
 139 -12 139 -12 95 27.5 c 128,-1,2
 51 67 51 67 51 139 c 0,3,4
 51 287 51 287 259 287 c 2,5,-1
 377 287 l 1,6,-1
 377 347 l 2,7,8
 377 474 377 474 248 474 c 2,9,-1
 246 474 l 2,10,11
 150 474 150 474 106 391 c 1,12,-1
 70 421 l 1,13,14
 117 524 117 524 248 524 c 0,15,16
 428 524 428 524 434 353 c 1,17,-1
 434 0 l 1,18,-1
 380 0 l 1,19,-1
 380 81 l 1,20,-1
 375 81 l 1,21,22
 358 38 358 38 319 13 c 128,-1,23
 280 -12 280 -12 220 -12 c 0,0,1
228 37 m 0,24,25
 290 37 290 37 333.5 67 c 128,-1,26
 377 97 377 97 377 149 c 2,27,-1
 377 244 l 1,28,-1
 257 244 l 2,29,30
 111 244 111 244 111 152 c 2,31,-1
 111 128 l 2,32,33
 111 83 111 83 143 60 c 128,-1,34
 175 37 175 37 228 37 c 0,24,25
EndSplineSet
EndChar

StartChar: b
Encoding: 98 98 67
Width: 574
Flags: W
LayerCount: 2
Fore
SplineSet
309 -12 m 0,0,1
 408 -12 408 -12 464 58 c 128,-1,2
 520 128 520 128 520 256 c 256,3,4
 520 384 520 384 464 454 c 128,-1,5
 408 524 408 524 309 524 c 0,6,7
 250 524 250 524 211 498.5 c 128,-1,8
 172 473 172 473 153 430 c 1,9,-1
 150 430 l 1,10,-1
 150 740 l 1,11,-1
 93 740 l 1,12,-1
 93 0 l 1,13,-1
 150 0 l 1,14,-1
 150 82 l 1,15,-1
 153 82 l 1,16,17
 198 -12 198 -12 309 -12 c 0,0,1
296 39 m 0,18,19
 236 39 236 39 193 70.5 c 128,-1,20
 150 102 150 102 150 156 c 2,21,-1
 150 359 l 2,22,23
 150 409 150 409 193 441 c 128,-1,24
 236 473 236 473 296 473 c 0,25,26
 373 473 373 473 416 424 c 128,-1,27
 459 375 459 375 459 292 c 2,28,-1
 459 220 l 2,29,30
 459 137 459 137 416 88 c 128,-1,31
 373 39 373 39 296 39 c 0,18,19
EndSplineSet
EndChar

StartChar: c
Encoding: 99 99 68
Width: 496
Flags: W
LayerCount: 2
Fore
SplineSet
273 -12 m 0,0,1
 409 -12 409 -12 462 100 c 1,2,-1
 420 128 l 1,3,4
 375 39 375 39 273 39 c 0,5,6
 195 39 195 39 154 89 c 128,-1,7
 113 139 113 139 113 220 c 2,8,-1
 113 292 l 2,9,10
 113 373 113 373 154 423 c 128,-1,11
 195 473 195 473 273 473 c 0,12,13
 371 473 371 473 407 387 c 1,14,-1
 455 411 l 1,15,16
 405 524 405 524 273 524 c 0,17,18
 167 524 167 524 109.5 454 c 128,-1,19
 52 384 52 384 52 256 c 256,20,21
 52 128 52 128 109.5 58 c 128,-1,22
 167 -12 167 -12 273 -12 c 0,0,1
EndSplineSet
EndChar

StartChar: d
Encoding: 100 100 69
Width: 574
Flags: W
LayerCount: 2
Fore
SplineSet
265 -12 m 0,0,1
 377 -12 377 -12 421 82 c 1,2,-1
 424 82 l 1,3,-1
 424 0 l 1,4,-1
 481 0 l 1,5,-1
 481 740 l 1,6,-1
 424 740 l 1,7,-1
 424 430 l 1,8,-1
 421 430 l 1,9,10
 402 473 402 473 363 498.5 c 128,-1,11
 324 524 324 524 265 524 c 0,12,13
 166 524 166 524 110 454 c 128,-1,14
 54 384 54 384 54 256 c 256,15,16
 54 128 54 128 110 58 c 128,-1,17
 166 -12 166 -12 265 -12 c 0,0,1
278 39 m 0,18,19
 201 39 201 39 158 88 c 128,-1,20
 115 137 115 137 115 220 c 2,21,-1
 115 292 l 2,22,23
 115 375 115 375 158 424 c 128,-1,24
 201 473 201 473 278 473 c 0,25,26
 338 473 338 473 381 441 c 128,-1,27
 424 409 424 409 424 359 c 2,28,-1
 424 156 l 2,29,30
 424 102 424 102 381 70.5 c 128,-1,31
 338 39 338 39 278 39 c 0,18,19
EndSplineSet
EndChar

StartChar: e
Encoding: 101 101 70
Width: 543
Flags: W
LayerCount: 2
Fore
SplineSet
276 -12 m 0,0,1
 349 -12 349 -12 400.5 21.5 c 128,-1,2
 452 55 452 55 476 113 c 1,3,-1
 434 141 l 1,4,5
 392 38 392 38 279 38 c 0,6,7
 201 38 201 38 156.5 89.5 c 128,-1,8
 112 141 112 141 112 220 c 2,9,-1
 112 245 l 1,10,-1
 491 245 l 1,11,-1
 491 272 l 2,12,13
 491 385 491 385 432 454.5 c 128,-1,14
 373 524 373 524 275 524 c 0,15,16
 173 524 173 524 112.5 453 c 128,-1,17
 52 382 52 382 52 256 c 256,18,19
 52 130 52 130 113 59 c 128,-1,20
 174 -12 174 -12 276 -12 c 0,0,1
429 289 m 1,21,-1
 112 289 l 1,22,23
 112 374 112 374 157 425 c 128,-1,24
 202 476 202 476 275 476 c 0,25,26
 343 476 343 476 387 427 c 0,27,28
 429 377 429 377 429 297 c 2,29,-1
 429 289 l 1,21,-1
EndSplineSet
EndChar

StartChar: f
Encoding: 102 102 71
Width: 309
Flags: W
LayerCount: 2
Fore
SplineSet
174 0 m 1,0,-1
 174 462 l 1,1,-1
 287 462 l 1,2,-1
 287 512 l 1,3,-1
 174 512 l 1,4,-1
 174 690 l 1,5,-1
 287 690 l 1,6,-1
 287 740 l 1,7,-1
 197 740 l 2,8,9
 156 740 156 740 136.5 717 c 128,-1,10
 117 694 117 694 117 655 c 2,11,-1
 117 512 l 1,12,-1
 29 512 l 1,13,-1
 29 462 l 1,14,-1
 117 462 l 1,15,-1
 117 0 l 1,16,-1
 174 0 l 1,0,-1
EndSplineSet
EndChar

StartChar: g
Encoding: 103 103 72
Width: 529
Flags: W
LayerCount: 2
Fore
SplineSet
267 -212 m 0,0,1
 46 -212 46 -212 46 -84 c 0,2,3
 46 -1 46 -1 134 24 c 1,4,-1
 134 32 l 1,5,6
 86 51 86 51 86 102 c 0,7,8
 86 140 86 140 111 160 c 128,-1,9
 136 180 136 180 173 190 c 1,10,-1
 173 194 l 1,11,12
 128 214 128 214 103 254 c 128,-1,13
 78 294 78 294 78 350 c 0,14,15
 78 429 78 429 129 476.5 c 128,-1,16
 180 524 180 524 264 524 c 0,17,18
 307 524 307 524 340 512 c 1,19,-1
 503 512 l 1,20,-1
 503 466 l 1,21,-1
 403 466 l 1,22,23
 452 423 452 423 452 350 c 0,24,25
 452 273 452 273 401 224 c 128,-1,26
 350 175 350 175 265 175 c 0,27,28
 251 175 251 175 212 181 c 1,29,30
 136 160 136 160 136 115 c 0,31,32
 136 69 136 69 218 69 c 2,33,-1
 337 69 l 2,34,35
 513 69 513 69 513 -60 c 0,36,37
 513 -212 513 -212 267 -212 c 0,0,1
265 221 m 256,38,39
 324 221 324 221 357.5 250.5 c 128,-1,40
 391 280 391 280 391 334 c 2,41,-1
 391 366 l 2,42,43
 391 419 391 419 357.5 448.5 c 128,-1,44
 324 478 324 478 265 478 c 0,45,46
 205 478 205 478 172 448.5 c 128,-1,47
 139 419 139 419 139 366 c 2,48,-1
 139 334 l 2,49,50
 139 280 139 280 172.5 250.5 c 128,-1,51
 206 221 206 221 265 221 c 256,38,39
297 -165 m 2,52,53
 372 -165 372 -165 415 -140.5 c 128,-1,54
 458 -116 458 -116 458 -64 c 0,55,56
 458 -27 458 -27 431.5 -5.5 c 128,-1,57
 405 16 405 16 337 16 c 2,58,-1
 171 16 l 1,59,60
 100 -8 100 -8 100 -72 c 0,61,62
 100 -112 100 -112 133 -138.5 c 128,-1,63
 166 -165 166 -165 233 -165 c 2,64,-1
 297 -165 l 2,52,53
EndSplineSet
EndChar

StartChar: h
Encoding: 104 104 73
Width: 563
Flags: W
LayerCount: 2
Fore
SplineSet
477 0 m 1,0,-1
 477 329 l 2,1,2
 477 423 477 423 431.5 473.5 c 128,-1,3
 386 524 386 524 304 524 c 0,4,5
 191 524 191 524 153 431 c 1,6,-1
 150 431 l 1,7,-1
 150 740 l 1,8,-1
 93 740 l 1,9,-1
 93 0 l 1,10,-1
 150 0 l 1,11,-1
 150 360 l 2,12,13
 150 416 150 416 192.5 444.5 c 128,-1,14
 235 473 235 473 289 473 c 0,15,16
 420 473 420 473 420 319 c 2,17,-1
 420 0 l 1,18,-1
 477 0 l 1,0,-1
EndSplineSet
EndChar

StartChar: i
Encoding: 105 105 74
Width: 243
Flags: W
LayerCount: 2
Fore
SplineSet
121 651 m 256,0,1
 141 651 141 651 150.5 661 c 128,-1,2
 160 671 160 671 160 687 c 2,3,-1
 160 697 l 2,4,5
 160 713 160 713 150.5 723 c 128,-1,6
 141 733 141 733 121 733 c 256,7,8
 101 733 101 733 91.5 723 c 128,-1,9
 82 713 82 713 82 697 c 2,10,-1
 82 687 l 2,11,12
 82 671 82 671 91.5 661 c 128,-1,13
 101 651 101 651 121 651 c 256,0,1
150 0 m 1,14,-1
 150 512 l 1,15,-1
 93 512 l 1,16,-1
 93 0 l 1,17,-1
 150 0 l 1,14,-1
EndSplineSet
EndChar

StartChar: j
Encoding: 106 106 75
Width: 243
Flags: W
LayerCount: 2
Fore
SplineSet
70 -200 m 2,0,1
 150 -200 150 -200 150 -115 c 2,2,-1
 150 512 l 1,3,-1
 93 512 l 1,4,-1
 93 -150 l 1,5,-1
 8 -150 l 1,6,-1
 8 -200 l 1,7,-1
 70 -200 l 2,0,1
121 651 m 256,8,9
 141 651 141 651 150.5 661 c 128,-1,10
 160 671 160 671 160 687 c 2,11,-1
 160 697 l 2,12,13
 160 713 160 713 150.5 723 c 128,-1,14
 141 733 141 733 121 733 c 256,15,16
 101 733 101 733 91.5 723 c 128,-1,17
 82 713 82 713 82 697 c 2,18,-1
 82 687 l 2,19,20
 82 671 82 671 91.5 661 c 128,-1,21
 101 651 101 651 121 651 c 256,8,9
EndSplineSet
EndChar

StartChar: k
Encoding: 107 107 76
Width: 513
Flags: W
LayerCount: 2
Fore
SplineSet
495 0 m 1,0,-1
 272 304 l 1,1,-1
 473 512 l 1,2,-1
 403 512 l 1,3,4
 277 382 277 382 153 251 c 1,5,-1
 150 251 l 1,6,-1
 150 740 l 1,7,-1
 93 740 l 1,8,-1
 93 0 l 1,9,-1
 150 0 l 1,10,-1
 150 186 l 1,11,-1
 231 268 l 1,12,-1
 425 0 l 1,13,-1
 495 0 l 1,0,-1
EndSplineSet
EndChar

StartChar: l
Encoding: 108 108 77
Width: 264
Flags: W
LayerCount: 2
Fore
SplineSet
229 0 m 1,0,-1
 229 50 l 1,1,-1
 150 50 l 1,2,-1
 150 740 l 1,3,-1
 93 740 l 1,4,-1
 93 62 l 2,5,6
 93 34 93 34 109 17 c 128,-1,7
 125 0 125 0 156 0 c 2,8,-1
 229 0 l 1,0,-1
EndSplineSet
EndChar

StartChar: m
Encoding: 109 109 78
Width: 876
Flags: W
LayerCount: 2
Fore
SplineSet
790 0 m 1,0,-1
 790 329 l 2,1,2
 790 423 790 423 746 473.5 c 128,-1,3
 702 524 702 524 620 524 c 0,4,5
 552 524 552 524 512.5 493 c 128,-1,6
 473 462 473 462 459 416 c 1,7,-1
 456 416 l 1,8,9
 437 472 437 472 395 498 c 128,-1,10
 353 524 353 524 298 524 c 0,11,12
 239 524 239 524 204 497 c 128,-1,13
 169 470 169 470 153 431 c 1,14,-1
 150 431 l 1,15,-1
 150 512 l 1,16,-1
 93 512 l 1,17,-1
 93 0 l 1,18,-1
 150 0 l 1,19,-1
 150 360 l 2,20,21
 150 416 150 416 191.5 444.5 c 128,-1,22
 233 473 233 473 285 473 c 0,23,24
 413 473 413 473 413 319 c 2,25,-1
 413 0 l 1,26,-1
 470 0 l 1,27,-1
 470 359 l 2,28,29
 470 415 470 415 510 444 c 128,-1,30
 550 473 550 473 604 473 c 0,31,32
 733 473 733 473 733 319 c 2,33,-1
 733 0 l 1,34,-1
 790 0 l 1,0,-1
EndSplineSet
EndChar

StartChar: n
Encoding: 110 110 79
Width: 563
Flags: W
LayerCount: 2
Fore
SplineSet
477 0 m 1,0,-1
 477 329 l 2,1,2
 477 423 477 423 431.5 473.5 c 128,-1,3
 386 524 386 524 304 524 c 0,4,5
 191 524 191 524 153 431 c 1,6,-1
 150 431 l 1,7,-1
 150 512 l 1,8,-1
 93 512 l 1,9,-1
 93 0 l 1,10,-1
 150 0 l 1,11,-1
 150 360 l 2,12,13
 150 416 150 416 192.5 444.5 c 128,-1,14
 235 473 235 473 289 473 c 0,15,16
 420 473 420 473 420 319 c 2,17,-1
 420 0 l 1,18,-1
 477 0 l 1,0,-1
EndSplineSet
EndChar

StartChar: o
Encoding: 111 111 80
Width: 550
Flags: W
LayerCount: 2
Fore
SplineSet
275 -12 m 256,0,1
 377 -12 377 -12 437.5 59 c 128,-1,2
 498 130 498 130 498 256 c 256,3,4
 498 382 498 382 437.5 453 c 128,-1,5
 377 524 377 524 275 524 c 256,6,7
 173 524 173 524 112.5 453 c 128,-1,8
 52 382 52 382 52 256 c 256,9,10
 52 130 52 130 112.5 59 c 128,-1,11
 173 -12 173 -12 275 -12 c 256,0,1
275 39 m 256,12,13
 200 39 200 39 156.5 86.5 c 128,-1,14
 113 134 113 134 113 224 c 2,15,-1
 113 288 l 2,16,17
 113 379 113 379 156.5 426 c 128,-1,18
 200 473 200 473 275 473 c 256,19,20
 350 473 350 473 393.5 425.5 c 128,-1,21
 437 378 437 378 437 288 c 2,22,-1
 437 224 l 2,23,24
 437 133 437 133 393.5 86 c 128,-1,25
 350 39 350 39 275 39 c 256,12,13
EndSplineSet
EndChar

StartChar: p
Encoding: 112 112 81
Width: 574
Flags: W
LayerCount: 2
Fore
SplineSet
150 -200 m 1,0,-1
 150 82 l 1,1,-1
 153 82 l 1,2,3
 198 -12 198 -12 309 -12 c 0,4,5
 408 -12 408 -12 464 58 c 128,-1,6
 520 128 520 128 520 256 c 256,7,8
 520 384 520 384 464 454 c 128,-1,9
 408 524 408 524 309 524 c 0,10,11
 250 524 250 524 211 498.5 c 128,-1,12
 172 473 172 473 153 430 c 1,13,-1
 150 430 l 1,14,-1
 150 512 l 1,15,-1
 93 512 l 1,16,-1
 93 -200 l 1,17,-1
 150 -200 l 1,0,-1
296 39 m 0,18,19
 236 39 236 39 193 70.5 c 128,-1,20
 150 102 150 102 150 156 c 2,21,-1
 150 359 l 2,22,23
 150 409 150 409 193 441 c 128,-1,24
 236 473 236 473 296 473 c 0,25,26
 373 473 373 473 416 424 c 128,-1,27
 459 375 459 375 459 292 c 2,28,-1
 459 220 l 2,29,30
 459 137 459 137 416 88 c 128,-1,31
 373 39 373 39 296 39 c 0,18,19
EndSplineSet
EndChar

StartChar: q
Encoding: 113 113 82
Width: 574
Flags: W
LayerCount: 2
Fore
SplineSet
481 -200 m 1,0,-1
 481 512 l 1,1,-1
 424 512 l 1,2,-1
 424 430 l 1,3,-1
 421 430 l 1,4,5
 402 473 402 473 363 498.5 c 128,-1,6
 324 524 324 524 265 524 c 0,7,8
 166 524 166 524 110 454 c 128,-1,9
 54 384 54 384 54 256 c 256,10,11
 54 128 54 128 110 58 c 128,-1,12
 166 -12 166 -12 265 -12 c 0,13,14
 377 -12 377 -12 421 82 c 1,15,-1
 424 82 l 1,16,-1
 424 -200 l 1,17,-1
 481 -200 l 1,0,-1
278 39 m 0,18,19
 201 39 201 39 158 88 c 128,-1,20
 115 137 115 137 115 220 c 2,21,-1
 115 292 l 2,22,23
 115 375 115 375 158 424 c 128,-1,24
 201 473 201 473 278 473 c 0,25,26
 338 473 338 473 381 441 c 128,-1,27
 424 409 424 409 424 359 c 2,28,-1
 424 156 l 2,29,30
 424 102 424 102 381 70.5 c 128,-1,31
 338 39 338 39 278 39 c 0,18,19
EndSplineSet
EndChar

StartChar: r
Encoding: 114 114 83
Width: 357
Flags: W
LayerCount: 2
Fore
SplineSet
150 0 m 1,0,-1
 150 350 l 2,1,2
 150 400 150 400 191 428 c 128,-1,3
 232 456 232 456 296 456 c 2,4,-1
 341 456 l 1,5,-1
 341 512 l 1,6,-1
 307 512 l 2,7,8
 190 512 190 512 154 420 c 1,9,-1
 150 420 l 1,10,-1
 150 512 l 1,11,-1
 93 512 l 1,12,-1
 93 0 l 1,13,-1
 150 0 l 1,0,-1
EndSplineSet
EndChar

StartChar: s
Encoding: 115 115 84
Width: 477
Flags: W
LayerCount: 2
Fore
SplineSet
238 -12 m 0,0,1
 323 -12 323 -12 371.5 28 c 128,-1,2
 420 68 420 68 420 140 c 0,3,4
 420 202 420 202 382.5 236.5 c 128,-1,5
 345 271 345 271 267 283 c 2,6,-1
 226 289 l 2,7,8
 171 297 171 297 143.5 317.5 c 128,-1,9
 116 338 116 338 116 383 c 0,10,11
 116 472 116 472 232 475 c 0,12,13
 321 475 321 475 372 410 c 1,14,-1
 410 445 l 1,15,16
 381 481 381 481 340 502.5 c 128,-1,17
 299 524 299 524 235 524 c 0,18,19
 162 524 162 524 111.5 488 c 128,-1,20
 61 452 61 452 61 380 c 0,21,22
 61 257 61 257 218 237 c 1,23,-1
 260 230 l 1,24,25
 365 217 365 217 365 134 c 0,26,27
 365 40 365 40 242 37 c 0,28,29
 140 37 140 37 83 119 c 1,30,-1
 41 86 l 1,31,32
 76 38 76 38 123.5 13 c 128,-1,33
 171 -12 171 -12 238 -12 c 0,0,1
EndSplineSet
EndChar

StartChar: t
Encoding: 116 116 85
Width: 335
Flags: W
LayerCount: 2
Fore
SplineSet
283 0 m 1,0,-1
 283 50 l 1,1,-1
 175 50 l 1,2,-1
 175 462 l 1,3,-1
 291 462 l 1,4,-1
 291 512 l 1,5,-1
 175 512 l 1,6,-1
 175 655 l 1,7,-1
 123 655 l 1,8,-1
 123 551 l 2,9,10
 123 529 123 529 115.5 520.5 c 128,-1,11
 108 512 108 512 87 512 c 2,12,-1
 29 512 l 1,13,-1
 29 462 l 1,14,-1
 118 462 l 1,15,-1
 118 63 l 2,16,17
 118 34 118 34 134 17 c 128,-1,18
 150 0 150 0 181 0 c 2,19,-1
 283 0 l 1,0,-1
EndSplineSet
EndChar

StartChar: u
Encoding: 117 117 86
Width: 563
Flags: W
LayerCount: 2
Fore
SplineSet
260 -12 m 0,0,1
 320 -12 320 -12 360 17 c 0,2,3
 396 43 396 43 409 81 c 1,4,-1
 413 81 l 1,5,-1
 413 0 l 1,6,-1
 470 0 l 1,7,-1
 470 512 l 1,8,-1
 413 512 l 1,9,-1
 413 153 l 2,10,11
 413 95 413 95 371 67 c 128,-1,12
 329 39 329 39 275 39 c 0,13,14
 143 39 143 39 143 194 c 2,15,-1
 143 512 l 1,16,-1
 86 512 l 1,17,-1
 86 183 l 2,18,19
 86 89 86 89 132 38.5 c 128,-1,20
 178 -12 178 -12 260 -12 c 0,0,1
EndSplineSet
EndChar

StartChar: v
Encoding: 118 118 87
Width: 476
Flags: W
LayerCount: 2
Fore
SplineSet
271 0 m 1,0,-1
 456 512 l 1,1,-1
 398 512 l 1,2,-1
 242 61 l 1,3,-1
 238 61 l 1,4,-1
 81 512 l 1,5,-1
 21 512 l 1,6,-1
 206 0 l 1,7,-1
 271 0 l 1,0,-1
EndSplineSet
EndChar

StartChar: w
Encoding: 119 119 88
Width: 752
Flags: W
LayerCount: 2
Fore
SplineSet
575 0 m 1,0,-1
 719 512 l 1,1,-1
 664 512 l 1,2,-1
 542 51 l 1,3,-1
 540 51 l 1,4,-1
 403 512 l 1,5,-1
 350 512 l 1,6,-1
 214 51 l 1,7,-1
 212 51 l 1,8,-1
 89 512 l 1,9,-1
 33 512 l 1,10,-1
 177 0 l 1,11,-1
 246 0 l 1,12,-1
 374 431 l 1,13,-1
 376 431 l 1,14,-1
 505 0 l 1,15,-1
 575 0 l 1,0,-1
EndSplineSet
EndChar

StartChar: x
Encoding: 120 120 89
Width: 493
Flags: W
LayerCount: 2
Fore
SplineSet
467 0 m 1,0,-1
 280 262 l 1,1,-1
 462 512 l 1,2,-1
 398 512 l 1,3,-1
 249 303 l 1,4,-1
 246 303 l 1,5,-1
 100 512 l 1,6,-1
 33 512 l 1,7,-1
 216 258 l 1,8,-1
 26 0 l 1,9,-1
 90 0 l 1,10,-1
 247 216 l 1,11,-1
 249 216 l 1,12,-1
 400 0 l 1,13,-1
 467 0 l 1,0,-1
EndSplineSet
EndChar

StartChar: y
Encoding: 121 121 90
Width: 479
Flags: W
LayerCount: 2
Fore
SplineSet
135 -200 m 2,0,1
 174 -200 174 -200 191.5 -188 c 128,-1,2
 209 -176 209 -176 220 -144 c 2,3,-1
 457 512 l 1,4,-1
 399 512 l 1,5,-1
 243 61 l 1,6,-1
 239 61 l 1,7,-1
 82 512 l 1,8,-1
 22 512 l 1,9,-1
 212 -15 l 1,10,-1
 163 -150 l 1,11,-1
 77 -150 l 1,12,-1
 77 -200 l 1,13,-1
 135 -200 l 2,0,1
EndSplineSet
EndChar

StartChar: z
Encoding: 122 122 91
Width: 446
Flags: W
LayerCount: 2
Fore
SplineSet
417 0 m 1,0,-1
 417 50 l 1,1,-1
 95 50 l 1,2,-1
 409 467 l 1,3,-1
 409 512 l 1,4,-1
 40 512 l 1,5,-1
 40 462 l 1,6,-1
 341 462 l 1,7,-1
 31 49 l 1,8,-1
 31 0 l 1,9,-1
 417 0 l 1,0,-1
EndSplineSet
EndChar

StartChar: braceleft
Encoding: 123 123 92
Width: 332
Flags: W
LayerCount: 2
Fore
SplineSet
269 -138 m 1,0,-1
 269 -93 l 1,1,-1
 170 -93 l 1,2,-1
 170 185 l 2,3,4
 170 233 170 233 143.5 265 c 128,-1,5
 117 297 117 297 74 303 c 1,6,-1
 74 319 l 1,7,8
 117 325 117 325 143.5 357 c 128,-1,9
 170 389 170 389 170 437 c 2,10,-1
 170 715 l 1,11,-1
 269 715 l 1,12,-1
 269 760 l 1,13,-1
 179 760 l 2,14,15
 150 760 150 760 135 743 c 128,-1,16
 120 726 120 726 120 700 c 2,17,-1
 120 431 l 2,18,19
 120 387 120 387 93.5 365.5 c 128,-1,20
 67 344 67 344 23 344 c 1,21,-1
 23 278 l 1,22,23
 67 278 67 278 93.5 256.5 c 128,-1,24
 120 235 120 235 120 191 c 2,25,-1
 120 -78 l 2,26,27
 120 -104 120 -104 135 -121 c 128,-1,28
 150 -138 150 -138 179 -138 c 2,29,-1
 269 -138 l 1,0,-1
EndSplineSet
EndChar

StartChar: bar
Encoding: 124 124 93
Width: 285
Flags: W
LayerCount: 2
Fore
SplineSet
167 -138 m 1,0,-1
 167 760 l 1,1,-1
 118 760 l 1,2,-1
 118 -138 l 1,3,-1
 167 -138 l 1,0,-1
EndSplineSet
EndChar

StartChar: braceright
Encoding: 125 125 94
Width: 332
Flags: W
LayerCount: 2
Fore
SplineSet
153 -138 m 2,0,1
 182 -138 182 -138 197 -121 c 128,-1,2
 212 -104 212 -104 212 -78 c 2,3,-1
 212 191 l 2,4,5
 212 235 212 235 238.5 256.5 c 128,-1,6
 265 278 265 278 309 278 c 1,7,-1
 309 344 l 1,8,9
 265 344 265 344 238.5 365.5 c 128,-1,10
 212 387 212 387 212 431 c 2,11,-1
 212 700 l 2,12,13
 212 726 212 726 197 743 c 128,-1,14
 182 760 182 760 153 760 c 2,15,-1
 63 760 l 1,16,-1
 63 715 l 1,17,-1
 162 715 l 1,18,-1
 162 437 l 2,19,20
 162 389 162 389 188 357 c 128,-1,21
 214 325 214 325 259 319 c 1,22,-1
 259 303 l 1,23,24
 214 297 214 297 188 265 c 128,-1,25
 162 233 162 233 162 185 c 2,26,-1
 162 -93 l 1,27,-1
 63 -93 l 1,28,-1
 63 -138 l 1,29,-1
 153 -138 l 2,0,1
EndSplineSet
EndChar

StartChar: asciitilde
Encoding: 126 126 95
Width: 600
Flags: W
LayerCount: 2
Fore
SplineSet
421 245 m 0,0,1
 462 245 462 245 489 258.5 c 128,-1,2
 516 272 516 272 537 297 c 1,3,-1
 512 329 l 1,4,5
 489 310 489 310 469.5 301.5 c 128,-1,6
 450 293 450 293 424 293 c 0,7,8
 396 293 396 293 370.5 302 c 128,-1,9
 345 311 345 311 313 326 c 0,10,11
 261 349 261 349 241 356 c 0,12,13
 213 365 213 365 179 365 c 0,14,15
 138 365 138 365 111 351.5 c 128,-1,16
 84 338 84 338 63 313 c 1,17,-1
 88 281 l 1,18,19
 111 300 111 300 130.5 308.5 c 128,-1,20
 150 317 150 317 176 317 c 0,21,22
 204 317 204 317 229.5 308 c 128,-1,23
 255 299 255 299 287 284 c 0,24,25
 339 261 339 261 359 254 c 0,26,27
 387 245 387 245 421 245 c 0,0,1
EndSplineSet
EndChar

StartChar: exclamdown
Encoding: 161 161 97
Width: 272
Flags: W
LayerCount: 2
Fore
SplineSet
166 -185 m 1,0,-1
 166 49 l 1,1,-1
 150 331 l 1,2,-1
 121 331 l 1,3,-1
 104 49 l 1,4,-1
 104 -185 l 1,5,-1
 166 -185 l 1,0,-1
136 420 m 0,6,7
 184 420 184 420 184 465 c 2,8,-1
 184 476 l 2,9,10
 184 496 184 496 172 508.5 c 128,-1,11
 160 521 160 521 136 521 c 0,12,13
 111 521 111 521 99.5 508.5 c 128,-1,14
 88 496 88 496 88 476 c 2,15,-1
 88 465 l 2,16,17
 88 445 88 445 99.5 432.5 c 128,-1,18
 111 420 111 420 136 420 c 0,6,7
EndSplineSet
EndChar

StartChar: cent
Encoding: 162 162 98
Width: 497
Flags: W
LayerCount: 2
Fore
SplineSet
292 -114 m 1,0,-1
 292 -11 l 1,1,2
 417 -1 417 -1 463 99 c 1,3,-1
 421 127 l 1,4,5
 382 47 382 47 291 39 c 1,6,-1
 291 473 l 1,7,8
 375 466 375 466 409 388 c 1,9,-1
 455 411 l 1,10,11
 413 512 413 512 292 523 c 1,12,-1
 292 626 l 1,13,-1
 242 626 l 1,14,-1
 242 522 l 1,15,16
 151 512 151 512 101.5 443 c 128,-1,17
 52 374 52 374 52 256 c 256,18,19
 52 138 52 138 101.5 69 c 128,-1,20
 151 0 151 0 242 -10 c 1,21,-1
 242 -114 l 1,22,-1
 292 -114 l 1,0,-1
243 42 m 1,23,24
 180 51 180 51 146.5 99 c 128,-1,25
 113 147 113 147 113 220 c 2,26,-1
 113 292 l 2,27,28
 113 366 113 366 146.5 413.5 c 128,-1,29
 180 461 180 461 243 471 c 1,30,-1
 243 42 l 1,23,24
EndSplineSet
EndChar

StartChar: sterling
Encoding: 163 163 99
Width: 589
Flags: W
LayerCount: 2
Fore
SplineSet
520 0 m 1,0,-1
 520 54 l 1,1,-1
 140 54 l 1,2,-1
 140 57 l 1,3,4
 177 84 177 84 199.5 131 c 128,-1,5
 222 178 222 178 222 236 c 0,6,7
 222 271 222 271 215 296 c 1,8,-1
 419 296 l 1,9,-1
 419 346 l 1,10,-1
 202 346 l 1,11,-1
 194 368 l 2,12,13
 183 399 183 399 174.5 430.5 c 128,-1,14
 166 462 166 462 166 498 c 0,15,16
 166 576 166 576 209 616.5 c 128,-1,17
 252 657 252 657 324 657 c 0,18,19
 437 657 437 657 488 562 c 1,20,-1
 534 594 l 1,21,22
 466 710 466 710 326 710 c 0,23,24
 224 710 224 710 164.5 654 c 128,-1,25
 105 598 105 598 105 503 c 0,26,27
 105 465 105 465 113.5 433 c 128,-1,28
 122 401 122 401 134 370 c 2,29,-1
 142 346 l 1,30,-1
 64 346 l 1,31,-1
 64 296 l 1,32,-1
 156 296 l 1,33,34
 164 266 164 266 164 230 c 0,35,36
 164 179 164 179 144 137 c 128,-1,37
 124 95 124 95 82 71 c 1,38,-1
 82 0 l 1,39,-1
 520 0 l 1,0,-1
EndSplineSet
EndChar

StartChar: yen
Encoding: 165 165 100
Width: 595
Flags: W
LayerCount: 2
Fore
SplineSet
327 0 m 1,0,-1
 327 154 l 1,1,-1
 512 154 l 1,2,-1
 512 202 l 1,3,-1
 327 202 l 1,4,-1
 327 315 l 1,5,-1
 512 315 l 1,6,-1
 512 363 l 1,7,-1
 356 363 l 1,8,-1
 556 698 l 1,9,-1
 490 698 l 1,10,-1
 302 369 l 1,11,-1
 298 369 l 1,12,-1
 107 698 l 1,13,-1
 39 698 l 1,14,-1
 239 363 l 1,15,-1
 83 363 l 1,16,-1
 83 315 l 1,17,-1
 268 315 l 1,18,-1
 268 202 l 1,19,-1
 83 202 l 1,20,-1
 83 154 l 1,21,-1
 268 154 l 1,22,-1
 268 0 l 1,23,-1
 327 0 l 1,0,-1
EndSplineSet
EndChar

StartChar: brokenbar
Encoding: 166 166 101
Width: 285
Flags: W
LayerCount: 2
Fore
SplineSet
167 404 m 1,0,-1
 167 760 l 1,1,-1
 118 760 l 1,2,-1
 118 404 l 1,3,-1
 167 404 l 1,0,-1
167 -138 m 1,4,-1
 167 218 l 1,5,-1
 118 218 l 1,6,-1
 118 -138 l 1,7,-1
 167 -138 l 1,4,-1
EndSplineSet
EndChar

StartChar: section
Encoding: 167 167 102
Width: 578
Flags: W
LayerCount: 2
Fore
SplineSet
359 138 m 1,0,1
 341 146 341 146 322 152 c 2,2,-1
 258 170 l 2,3,4
 196 187 196 187 166 216 c 128,-1,5
 136 245 136 245 136 294 c 0,6,7
 136 373 136 373 218 417 c 1,8,9
 236 409 236 409 255 404 c 2,10,-1
 319 385 l 2,11,12
 382 368 382 368 412 339 c 128,-1,13
 442 310 442 310 442 261 c 0,14,15
 442 184 442 184 359 138 c 1,0,1
274 -155 m 0,16,17
 357 -155 357 -155 409.5 -115 c 128,-1,18
 462 -75 462 -75 462 -3 c 0,19,20
 462 81 462 81 388 124 c 1,21,-1
 388 129 l 1,22,23
 440 149 440 149 469 186 c 128,-1,24
 498 223 498 223 498 275 c 0,25,26
 498 332 498 332 460.5 369 c 128,-1,27
 423 406 423 406 347 430 c 2,28,-1
 283 450 l 2,29,30
 233 464 233 464 202 488.5 c 128,-1,31
 171 513 171 513 171 559 c 0,32,33
 171 655 171 655 302 660 c 0,34,35
 381 660 381 660 432 614 c 1,36,-1
 465 654 l 1,37,38
 404 710 404 710 303 710 c 0,39,40
 221 710 221 710 168 670.5 c 128,-1,41
 115 631 115 631 115 559 c 0,42,43
 115 479 115 479 189 432 c 1,44,-1
 189 426 l 1,45,46
 138 406 138 406 109 369 c 128,-1,47
 80 332 80 332 80 281 c 0,48,49
 80 223 80 223 117 186 c 128,-1,50
 154 149 154 149 229 126 c 2,51,-1
 294 106 l 2,52,53
 344 92 344 92 375 67 c 128,-1,54
 406 42 406 42 406 -4 c 0,55,56
 406 -100 406 -100 275 -105 c 0,57,58
 198 -105 198 -105 145 -59 c 1,59,-1
 112 -99 l 1,60,61
 174 -155 174 -155 274 -155 c 0,16,17
EndSplineSet
EndChar

StartChar: dieresis
Encoding: 168 168 103
Width: 600
Flags: W
LayerCount: 2
Fore
SplineSet
208 627 m 0,0,1
 228 627 228 627 237.5 637 c 128,-1,2
 247 647 247 647 247 663 c 2,3,-1
 247 673 l 2,4,5
 247 689 247 689 237.5 699 c 128,-1,6
 228 709 228 709 208 709 c 0,7,8
 169 709 169 709 169 673 c 2,9,-1
 169 663 l 2,10,11
 169 627 169 627 208 627 c 0,0,1
392 627 m 0,12,13
 431 627 431 627 431 663 c 2,14,-1
 431 673 l 2,15,16
 431 709 431 709 392 709 c 0,17,18
 372 709 372 709 362.5 699 c 128,-1,19
 353 689 353 689 353 673 c 2,20,-1
 353 663 l 2,21,22
 353 647 353 647 362.5 637 c 128,-1,23
 372 627 372 627 392 627 c 0,12,13
EndSplineSet
EndChar

StartChar: copyright
Encoding: 169 169 104
Width: 748
Flags: W
LayerCount: 2
Fore
SplineSet
374 -11 m 0,0,1
 514 -11 514 -11 609 86 c 0,2,3
 703 186 703 186 703 349 c 256,4,5
 703 512 703 512 609 612 c 0,6,7
 514 709 514 709 374 709 c 0,8,9
 232 709 232 709 138.5 610.5 c 128,-1,10
 45 512 45 512 45 349 c 256,11,12
 45 186 45 186 138.5 87.5 c 128,-1,13
 232 -11 232 -11 374 -11 c 0,0,1
374 32 m 0,14,15
 250 32 250 32 172.5 115 c 128,-1,16
 95 198 95 198 95 322 c 2,17,-1
 95 376 l 2,18,19
 95 501 95 501 172.5 583.5 c 128,-1,20
 250 666 250 666 374 666 c 0,21,22
 499 666 499 666 576 583.5 c 128,-1,23
 653 501 653 501 653 376 c 2,24,-1
 653 322 l 2,25,26
 653 198 653 198 576 115 c 128,-1,27
 499 32 499 32 374 32 c 0,14,15
377 153 m 0,28,29
 428 153 428 153 462 177 c 128,-1,30
 496 201 496 201 513 238 c 1,31,-1
 473 261 l 1,32,33
 442 198 442 198 378 198 c 0,34,35
 278 198 278 198 273 324 c 1,36,-1
 273 371 l 2,37,38
 273 431 273 431 300.5 464.5 c 128,-1,39
 328 498 328 498 378 498 c 0,40,41
 446 498 446 498 466 437 c 1,42,-1
 507 458 l 1,43,44
 492 497 492 497 460 520 c 128,-1,45
 428 543 428 543 378 543 c 0,46,47
 303 543 303 543 261 491.5 c 128,-1,48
 219 440 219 440 219 348 c 256,49,50
 219 256 219 256 261 204.5 c 128,-1,51
 303 153 303 153 377 153 c 0,28,29
EndSplineSet
EndChar

StartChar: ordfeminine
Encoding: 170 170 105
Width: 361
Flags: W
LayerCount: 2
Fore
SplineSet
149 356 m 0,0,1
 96 356 96 356 68 382 c 128,-1,2
 40 408 40 408 40 450 c 0,3,4
 40 550 40 550 177 550 c 2,5,-1
 261 550 l 1,6,-1
 261 589 l 2,7,8
 261 671 261 671 181 671 c 0,9,10
 110 671 110 671 83 617 c 1,11,-1
 51 641 l 1,12,13
 65 670 65 670 96.5 690 c 128,-1,14
 128 710 128 710 179 710 c 0,15,16
 239 710 239 710 273 679.5 c 128,-1,17
 307 649 307 649 307 592 c 2,18,-1
 307 363 l 1,19,-1
 264 363 l 1,20,-1
 264 414 l 1,21,-1
 260 414 l 1,22,23
 232 356 232 356 149 356 c 0,0,1
158 393 m 0,24,25
 199 393 199 393 230 411.5 c 128,-1,26
 261 430 261 430 261 466 c 2,27,-1
 261 515 l 1,28,-1
 179 515 l 2,29,30
 88 515 88 515 87 460 c 2,31,-1
 87 449 l 2,32,33
 87 394 87 394 158 393 c 0,24,25
EndSplineSet
EndChar

StartChar: guillemotleft
Encoding: 171 171 106
Width: 497
Flags: W
LayerCount: 2
Fore
SplineSet
230 90 m 1,0,-1
 248 129 l 1,1,-1
 92 288 l 1,2,-1
 248 447 l 1,3,-1
 230 486 l 1,4,-1
 35 315 l 1,5,-1
 35 261 l 1,6,-1
 230 90 l 1,0,-1
428 90 m 1,7,-1
 446 129 l 1,8,-1
 290 288 l 1,9,-1
 446 447 l 1,10,-1
 428 486 l 1,11,-1
 233 315 l 1,12,-1
 233 261 l 1,13,-1
 428 90 l 1,7,-1
EndSplineSet
EndChar

StartChar: logicalnot
Encoding: 172 172 107
Width: 600
Flags: W
LayerCount: 2
Fore
SplineSet
529 88 m 1,0,-1
 529 330 l 1,1,-1
 65 330 l 1,2,-1
 65 281 l 1,3,-1
 478 281 l 1,4,-1
 478 88 l 1,5,-1
 529 88 l 1,0,-1
EndSplineSet
EndChar

StartChar: sfthyphen
Encoding: 173 173 108
Width: 397
Flags: W
LayerCount: 2
Fore
SplineSet
323 274 m 1,0,-1
 323 335 l 1,1,-1
 74 335 l 1,2,-1
 74 274 l 1,3,-1
 323 274 l 1,0,-1
EndSplineSet
EndChar

StartChar: registered
Encoding: 174 174 109
Width: 472
Flags: W
LayerCount: 2
Fore
SplineSet
236 298 m 256,0,1
 320 298 320 298 377 356 c 128,-1,2
 434 414 434 414 434 504 c 256,3,4
 434 594 434 594 377 652 c 128,-1,5
 320 710 320 710 236 710 c 256,6,7
 152 710 152 710 95 652 c 128,-1,8
 38 594 38 594 38 504 c 256,9,10
 38 414 38 414 96 357 c 0,11,12
 152 298 152 298 236 298 c 256,0,1
236 329 m 256,13,14
 164 329 164 329 118 378 c 128,-1,15
 72 427 72 427 72 493 c 2,16,-1
 72 515 l 2,17,18
 72 581 72 581 118 630 c 128,-1,19
 164 679 164 679 236 679 c 256,20,21
 308 679 308 679 354 630 c 128,-1,22
 400 581 400 581 400 515 c 2,23,-1
 400 493 l 2,24,25
 400 427 400 427 354 378 c 128,-1,26
 308 329 308 329 236 329 c 256,13,14
323 396 m 1,27,-1
 273 484 l 1,28,29
 315 496 315 496 315 544 c 0,30,31
 315 604 315 604 251 607 c 2,32,-1
 165 607 l 1,33,-1
 165 396 l 1,34,-1
 196 396 l 1,35,-1
 196 481 l 1,36,-1
 242 481 l 1,37,-1
 289 396 l 1,38,-1
 323 396 l 1,27,-1
250 506 m 2,39,-1
 196 506 l 1,40,-1
 196 581 l 1,41,-1
 250 581 l 2,42,43
 282 581 282 581 282 551 c 2,44,-1
 282 535 l 2,45,46
 282 507 282 507 250 506 c 2,39,-1
EndSplineSet
EndChar

StartChar: macron
Encoding: 175 175 110
Width: 600
Flags: W
LayerCount: 2
Fore
SplineSet
436 645 m 1,0,-1
 436 694 l 1,1,-1
 164 694 l 1,2,-1
 164 645 l 1,3,-1
 436 645 l 1,0,-1
EndSplineSet
EndChar

StartChar: degree
Encoding: 176 176 111
Width: 466
Flags: W
LayerCount: 2
Fore
SplineSet
233 370 m 256,0,1
 305 370 305 370 352 419 c 128,-1,2
 399 468 399 468 399 540 c 256,3,4
 399 612 399 612 352 661 c 128,-1,5
 305 710 305 710 233 710 c 256,6,7
 161 710 161 710 114 661 c 128,-1,8
 67 612 67 612 67 540 c 256,9,10
 67 468 67 468 114 419 c 128,-1,11
 161 370 161 370 233 370 c 256,0,1
233 416 m 256,12,13
 182 416 182 416 150 452 c 128,-1,14
 118 488 118 488 118 540 c 0,15,16
 118 590 118 590 148.5 627 c 128,-1,17
 179 664 179 664 233 664 c 256,18,19
 287 664 287 664 317.5 627 c 128,-1,20
 348 590 348 590 348 540 c 0,21,22
 348 488 348 488 316 452 c 128,-1,23
 284 416 284 416 233 416 c 256,12,13
EndSplineSet
EndChar

StartChar: plusminus
Encoding: 177 177 112
Width: 600
Flags: W
LayerCount: 2
Fore
SplineSet
327 137 m 1,0,-1
 327 350 l 1,1,-1
 535 350 l 1,2,-1
 535 399 l 1,3,-1
 327 399 l 1,4,-1
 327 612 l 1,5,-1
 273 612 l 1,6,-1
 273 399 l 1,7,-1
 65 399 l 1,8,-1
 65 350 l 1,9,-1
 273 350 l 1,10,-1
 273 137 l 1,11,-1
 327 137 l 1,0,-1
535 0 m 1,12,-1
 535 49 l 1,13,-1
 65 49 l 1,14,-1
 65 0 l 1,15,-1
 535 0 l 1,12,-1
EndSplineSet
EndChar

StartChar: twosuperior
Encoding: 178 178 113
Width: 346
Flags: W
LayerCount: 2
Fore
SplineSet
307 329 m 1,0,-1
 307 366 l 1,1,-1
 90 366 l 1,2,-1
 199 453 l 2,3,4
 244 488 244 488 269 521.5 c 128,-1,5
 294 555 294 555 294 597 c 0,6,7
 294 643 294 643 262.5 673.5 c 128,-1,8
 231 704 231 704 171 704 c 0,9,10
 113 704 113 704 81 677.5 c 128,-1,11
 49 651 49 651 37 614 c 1,12,-1
 76 600 l 1,13,14
 87 630 87 630 108 648 c 128,-1,15
 129 666 129 666 168 666 c 0,16,17
 206 666 206 666 225.5 647 c 128,-1,18
 245 628 245 628 245 598 c 2,19,-1
 245 590 l 2,20,21
 245 535 245 535 174 480 c 2,22,-1
 41 372 l 1,23,-1
 41 329 l 1,24,-1
 307 329 l 1,0,-1
EndSplineSet
EndChar

StartChar: threesuperior
Encoding: 179 179 114
Width: 346
Flags: W
LayerCount: 2
Fore
SplineSet
161 323 m 0,0,1
 224 323 224 323 260.5 352.5 c 128,-1,2
 297 382 297 382 297 431 c 0,3,4
 297 470 297 470 274.5 492.5 c 128,-1,5
 252 515 252 515 215 521 c 1,6,-1
 215 524 l 1,7,8
 248 531 248 531 269 552 c 128,-1,9
 290 573 290 573 290 609 c 0,10,11
 290 699 290 699 167 704 c 0,12,13
 83 704 83 704 44 646 c 1,14,-1
 76 621 l 1,15,16
 91 643 91 643 112 655 c 128,-1,17
 133 667 133 667 166 667 c 0,18,19
 242 667 242 667 242 602 c 0,20,21
 242 539 242 539 157 539 c 2,22,-1
 114 539 l 1,23,-1
 114 502 l 1,24,-1
 162 502 l 2,25,26
 249 502 249 502 249 441 c 2,27,-1
 249 431 l 2,28,29
 249 398 249 398 226.5 379 c 128,-1,30
 204 360 204 360 161 360 c 0,31,32
 123 360 123 360 101.5 374 c 128,-1,33
 80 388 80 388 65 410 c 1,34,-1
 31 385 l 1,35,36
 74 323 74 323 161 323 c 0,0,1
EndSplineSet
EndChar

StartChar: acute
Encoding: 180 180 115
Width: 600
Flags: W
LayerCount: 2
Fore
SplineSet
297 586 m 1,0,-1
 407 742 l 1,1,-1
 355 768 l 1,2,-1
 260 604 l 1,3,-1
 297 586 l 1,0,-1
EndSplineSet
EndChar

StartChar: mu
Encoding: 181 181 116
Width: 570
Flags: W
LayerCount: 2
Fore
SplineSet
150 -200 m 1,0,-1
 150 -45 l 1,1,-1
 144 55 l 1,2,-1
 147 55 l 1,3,4
 178 -12 178 -12 269 -12 c 0,5,6
 328 -12 328 -12 368 17 c 0,7,8
 404 43 404 43 417 81 c 1,9,-1
 420 81 l 1,10,-1
 420 0 l 1,11,-1
 477 0 l 1,12,-1
 477 512 l 1,13,-1
 420 512 l 1,14,-1
 420 154 l 2,15,16
 420 96 420 96 378 67.5 c 128,-1,17
 336 39 336 39 282 39 c 0,18,19
 150 39 150 39 150 194 c 2,20,-1
 150 512 l 1,21,-1
 93 512 l 1,22,-1
 93 -200 l 1,23,-1
 150 -200 l 1,0,-1
EndSplineSet
EndChar

StartChar: paragraph
Encoding: 182 182 117
Width: 628
Flags: W
LayerCount: 2
Fore
SplineSet
472 -149 m 1,0,-1
 472 650 l 1,1,-1
 540 650 l 1,2,-1
 540 698 l 1,3,-1
 248 698 l 2,4,5
 166 698 166 698 110 643 c 0,6,7
 52 589 52 589 52 505 c 256,8,9
 52 421 52 421 110 367 c 0,10,11
 166 312 166 312 248 312 c 1,12,-1
 248 -149 l 1,13,-1
 301 -149 l 1,14,-1
 301 650 l 1,15,-1
 419 650 l 1,16,-1
 419 -149 l 1,17,-1
 472 -149 l 1,0,-1
EndSplineSet
EndChar

StartChar: periodcentered
Encoding: 183 183 118
Width: 316
Flags: W
LayerCount: 2
Fore
SplineSet
158 255 m 0,0,1
 206 255 206 255 206 300 c 2,2,-1
 206 311 l 2,3,4
 206 331 206 331 194 343.5 c 128,-1,5
 182 356 182 356 158 356 c 0,6,7
 133 356 133 356 121.5 343.5 c 128,-1,8
 110 331 110 331 110 311 c 2,9,-1
 110 300 l 2,10,11
 110 280 110 280 121.5 267.5 c 128,-1,12
 133 255 133 255 158 255 c 0,0,1
EndSplineSet
EndChar

StartChar: cedilla
Encoding: 184 184 119
Width: 600
Flags: W
LayerCount: 2
Fore
SplineSet
311 -205 m 0,0,1
 353 -205 353 -205 382 -184.5 c 128,-1,2
 411 -164 411 -164 411 -127 c 0,3,4
 411 -96 411 -96 391.5 -79.5 c 128,-1,5
 372 -63 372 -63 343 -63 c 0,6,7
 327 -63 327 -63 307 -68 c 1,8,-1
 305 -66 l 1,9,-1
 322 13 l 1,10,-1
 284 13 l 1,11,-1
 265 -80 l 1,12,-1
 296 -83 l 2,13,14
 335 -88 335 -88 348 -98.5 c 128,-1,15
 361 -109 361 -109 361 -126 c 0,16,17
 361 -146 361 -146 347 -155.5 c 128,-1,18
 333 -165 333 -165 311 -165 c 0,19,20
 269 -165 269 -165 247 -137 c 1,21,-1
 219 -168 l 1,22,23
 229 -183 229 -183 252 -194 c 128,-1,24
 275 -205 275 -205 311 -205 c 0,0,1
EndSplineSet
EndChar

StartChar: onesuperior
Encoding: 185 185 120
Width: 334
Flags: W
LayerCount: 2
Fore
SplineSet
220 329 m 1,0,-1
 174 329 l 1,1,-1
 174 658 l 1,2,-1
 94 617 l 1,3,-1
 94 659 l 1,4,-1
 169 698 l 1,5,-1
 220 698 l 1,6,-1
 220 329 l 1,0,-1
EndSplineSet
EndChar

StartChar: ordmasculine
Encoding: 186 186 121
Width: 386
Flags: W
LayerCount: 2
Fore
SplineSet
193 356 m 256,0,1
 263 356 263 356 302 403.5 c 128,-1,2
 341 451 341 451 341 534 c 0,3,4
 341 615 341 615 302 662.5 c 128,-1,5
 263 710 263 710 193 710 c 256,6,7
 123 710 123 710 84 662.5 c 128,-1,8
 45 615 45 615 45 534 c 0,9,10
 45 451 45 451 84 403.5 c 128,-1,11
 123 356 123 356 193 356 c 256,0,1
193 395 m 256,12,13
 144 395 144 395 119 427.5 c 128,-1,14
 94 460 94 460 94 508 c 2,15,-1
 94 559 l 2,16,17
 94 607 94 607 119 639 c 128,-1,18
 144 671 144 671 193 671 c 256,19,20
 242 671 242 671 267 639 c 128,-1,21
 292 607 292 607 292 559 c 2,22,-1
 292 508 l 2,23,24
 292 460 292 460 267 427.5 c 128,-1,25
 242 395 242 395 193 395 c 256,12,13
EndSplineSet
EndChar

StartChar: guillemotright
Encoding: 187 187 122
Width: 497
Flags: W
LayerCount: 2
Fore
SplineSet
69 90 m 1,0,-1
 264 261 l 1,1,-1
 264 315 l 1,2,-1
 69 486 l 1,3,-1
 51 447 l 1,4,-1
 207 288 l 1,5,-1
 51 129 l 1,6,-1
 69 90 l 1,0,-1
267 90 m 1,7,-1
 462 261 l 1,8,-1
 462 315 l 1,9,-1
 267 486 l 1,10,-1
 249 447 l 1,11,-1
 405 288 l 1,12,-1
 249 129 l 1,13,-1
 267 90 l 1,7,-1
EndSplineSet
EndChar

StartChar: onequarter
Encoding: 188 188 123
Width: 801
Flags: W
LayerCount: 2
Fore
SplineSet
183 0 m 1,0,-1
 654 698 l 1,1,-1
 605 698 l 1,2,-1
 134 0 l 1,3,-1
 183 0 l 1,0,-1
717 0 m 1,4,-1
 717 79 l 1,5,-1
 777 79 l 1,6,-1
 777 115 l 1,7,-1
 717 115 l 1,8,-1
 717 369 l 1,9,-1
 655 369 l 1,10,-1
 475 118 l 1,11,-1
 475 79 l 1,12,-1
 673 79 l 1,13,-1
 673 0 l 1,14,-1
 717 0 l 1,4,-1
673 115 m 1,15,-1
 516 115 l 1,16,-1
 670 327 l 1,17,-1
 673 327 l 1,18,-1
 673 115 l 1,15,-1
220 329 m 1,19,-1
 174 329 l 1,20,-1
 174 658 l 1,21,-1
 94 617 l 1,22,-1
 94 659 l 1,23,-1
 169 698 l 1,24,-1
 220 698 l 1,25,-1
 220 329 l 1,19,-1
EndSplineSet
EndChar

StartChar: onehalf
Encoding: 189 189 124
Width: 815
Flags: W
LayerCount: 2
Fore
SplineSet
220 329 m 1,0,-1
 174 329 l 1,1,-1
 174 658 l 1,2,-1
 94 617 l 1,3,-1
 94 659 l 1,4,-1
 169 698 l 1,5,-1
 220 698 l 1,6,-1
 220 329 l 1,0,-1
183 0 m 1,7,-1
 134 0 l 1,8,-1
 605 698 l 1,9,-1
 654 698 l 1,10,-1
 183 0 l 1,7,-1
776 0 m 1,11,-1
 510 0 l 1,12,-1
 510 43 l 1,13,-1
 643 151 l 2,14,15
 714 207 714 207 714 261 c 2,16,-1
 714 269 l 2,17,18
 714 299 714 299 694.5 318 c 128,-1,19
 675 337 675 337 637 337 c 0,20,21
 598 337 598 337 577 319 c 128,-1,22
 556 301 556 301 545 271 c 1,23,-1
 506 285 l 1,24,25
 518 322 518 322 550 348.5 c 128,-1,26
 582 375 582 375 640 375 c 0,27,28
 700 375 700 375 731.5 344.5 c 128,-1,29
 763 314 763 314 763 268 c 0,30,31
 763 226 763 226 738 192.5 c 128,-1,32
 713 159 713 159 668 124 c 2,33,-1
 559 37 l 1,34,-1
 776 37 l 1,35,-1
 776 0 l 1,11,-1
EndSplineSet
EndChar

StartChar: threequarters
Encoding: 190 190 125
Width: 829
Flags: W
LayerCount: 2
Fore
SplineSet
161 323 m 0,0,1
 224 323 224 323 260.5 352.5 c 128,-1,2
 297 382 297 382 297 431 c 0,3,4
 297 470 297 470 274.5 492.5 c 128,-1,5
 252 515 252 515 215 521 c 1,6,-1
 215 524 l 1,7,8
 248 531 248 531 269 552 c 128,-1,9
 290 573 290 573 290 609 c 0,10,11
 290 699 290 699 167 704 c 0,12,13
 83 704 83 704 44 646 c 1,14,-1
 76 621 l 1,15,16
 91 643 91 643 112 655 c 128,-1,17
 133 667 133 667 166 667 c 0,18,19
 242 667 242 667 242 602 c 0,20,21
 242 539 242 539 157 539 c 2,22,-1
 114 539 l 1,23,-1
 114 502 l 1,24,-1
 162 502 l 2,25,26
 249 502 249 502 249 441 c 2,27,-1
 249 431 l 2,28,29
 249 398 249 398 226.5 379 c 128,-1,30
 204 360 204 360 161 360 c 0,31,32
 123 360 123 360 101.5 374 c 128,-1,33
 80 388 80 388 65 410 c 1,34,-1
 31 385 l 1,35,36
 74 323 74 323 161 323 c 0,0,1
211 0 m 1,37,-1
 682 698 l 1,38,-1
 633 698 l 1,39,-1
 162 0 l 1,40,-1
 211 0 l 1,37,-1
745 0 m 1,41,-1
 745 79 l 1,42,-1
 805 79 l 1,43,-1
 805 115 l 1,44,-1
 745 115 l 1,45,-1
 745 369 l 1,46,-1
 683 369 l 1,47,-1
 503 118 l 1,48,-1
 503 79 l 1,49,-1
 701 79 l 1,50,-1
 701 0 l 1,51,-1
 745 0 l 1,41,-1
701 115 m 1,52,-1
 544 115 l 1,53,-1
 698 327 l 1,54,-1
 701 327 l 1,55,-1
 701 115 l 1,52,-1
EndSplineSet
EndChar

StartChar: questiondown
Encoding: 191 191 126
Width: 463
Flags: W
LayerCount: 2
Fore
SplineSet
231 -198 m 0,0,1
 320 -198 320 -198 371 -153.5 c 128,-1,2
 422 -109 422 -109 440 -40 c 1,3,-1
 387 -21 l 1,4,5
 373 -79 373 -79 335 -112.5 c 128,-1,6
 297 -146 297 -146 233 -146 c 0,7,8
 170 -146 170 -146 134 -111.5 c 128,-1,9
 98 -77 98 -77 98 -20 c 2,10,-1
 98 -1 l 2,11,12
 98 66 98 66 146 105.5 c 128,-1,13
 194 145 194 145 282 149 c 1,14,-1
 282 316 l 1,15,-1
 227 316 l 1,16,-1
 227 190 l 1,17,18
 147 178 147 178 91.5 128.5 c 128,-1,19
 36 79 36 79 36 -13 c 0,20,21
 36 -98 36 -98 88 -148 c 128,-1,22
 140 -198 140 -198 231 -198 c 0,0,1
256 420 m 0,23,24
 304 420 304 420 304 465 c 2,25,-1
 304 476 l 2,26,27
 304 496 304 496 292 508.5 c 128,-1,28
 280 521 280 521 256 521 c 0,29,30
 231 521 231 521 219.5 508.5 c 128,-1,31
 208 496 208 496 208 476 c 2,32,-1
 208 465 l 2,33,34
 208 445 208 445 219.5 432.5 c 128,-1,35
 231 420 231 420 256 420 c 0,23,24
EndSplineSet
EndChar

StartChar: Agrave
Encoding: 192 192 127
Width: 625
Flags: W
LayerCount: 2
Fore
SplineSet
599 0 m 1,0,-1
 351 698 l 1,1,-1
 274 698 l 1,2,-1
 27 0 l 1,3,-1
 87 0 l 1,4,-1
 163 217 l 1,5,-1
 460 217 l 1,6,-1
 536 0 l 1,7,-1
 599 0 l 1,0,-1
444 269 m 1,8,-1
 178 269 l 1,9,-1
 309 641 l 1,10,-1
 313 641 l 1,11,-1
 444 269 l 1,8,-1
315 760 m 1,12,-1
 353 778 l 1,13,-1
 258 942 l 1,14,-1
 206 916 l 1,15,-1
 315 760 l 1,12,-1
EndSplineSet
EndChar

StartChar: Aacute
Encoding: 193 193 128
Width: 625
Flags: W
LayerCount: 2
Fore
SplineSet
599 0 m 1,0,-1
 351 698 l 1,1,-1
 274 698 l 1,2,-1
 27 0 l 1,3,-1
 87 0 l 1,4,-1
 163 217 l 1,5,-1
 460 217 l 1,6,-1
 536 0 l 1,7,-1
 599 0 l 1,0,-1
444 269 m 1,8,-1
 178 269 l 1,9,-1
 309 641 l 1,10,-1
 313 641 l 1,11,-1
 444 269 l 1,8,-1
310 760 m 1,12,-1
 420 916 l 1,13,-1
 368 942 l 1,14,-1
 273 778 l 1,15,-1
 310 760 l 1,12,-1
EndSplineSet
EndChar

StartChar: Acircumflex
Encoding: 194 194 129
Width: 625
Flags: W
LayerCount: 2
Fore
SplineSet
599 0 m 1,0,-1
 351 698 l 1,1,-1
 274 698 l 1,2,-1
 27 0 l 1,3,-1
 87 0 l 1,4,-1
 163 217 l 1,5,-1
 460 217 l 1,6,-1
 536 0 l 1,7,-1
 599 0 l 1,0,-1
444 269 m 1,8,-1
 178 269 l 1,9,-1
 309 641 l 1,10,-1
 313 641 l 1,11,-1
 444 269 l 1,8,-1
434 768 m 1,12,-1
 466 791 l 1,13,-1
 348 930 l 1,14,-1
 278 930 l 1,15,-1
 160 791 l 1,16,-1
 192 768 l 1,17,-1
 313 888 l 1,18,-1
 434 768 l 1,12,-1
EndSplineSet
EndChar

StartChar: Atilde
Encoding: 195 195 130
Width: 625
Flags: W
LayerCount: 2
Fore
SplineSet
599 0 m 1,0,-1
 351 698 l 1,1,-1
 274 698 l 1,2,-1
 27 0 l 1,3,-1
 87 0 l 1,4,-1
 163 217 l 1,5,-1
 460 217 l 1,6,-1
 536 0 l 1,7,-1
 599 0 l 1,0,-1
444 269 m 1,8,-1
 178 269 l 1,9,-1
 309 641 l 1,10,-1
 313 641 l 1,11,-1
 444 269 l 1,8,-1
385 792 m 0,12,13
 438 792 438 792 474 840 c 1,14,-1
 449 869 l 1,15,16
 423 840 423 840 388 840 c 0,17,18
 360 840 360 840 320 864 c 0,19,20
 299 876 299 876 281 884 c 128,-1,21
 263 892 263 892 241 892 c 0,22,23
 188 892 188 892 152 844 c 1,24,-1
 177 815 l 1,25,26
 204 844 204 844 238 844 c 0,27,28
 267 844 267 844 306 820 c 0,29,30
 327 808 327 808 345 800 c 128,-1,31
 363 792 363 792 385 792 c 0,12,13
EndSplineSet
EndChar

StartChar: Adieresis
Encoding: 196 196 131
Width: 625
Flags: W
LayerCount: 2
Fore
SplineSet
599 0 m 1,0,-1
 351 698 l 1,1,-1
 274 698 l 1,2,-1
 27 0 l 1,3,-1
 87 0 l 1,4,-1
 163 217 l 1,5,-1
 460 217 l 1,6,-1
 536 0 l 1,7,-1
 599 0 l 1,0,-1
444 269 m 1,8,-1
 178 269 l 1,9,-1
 309 641 l 1,10,-1
 313 641 l 1,11,-1
 444 269 l 1,8,-1
221 800 m 0,12,13
 241 800 241 800 250.5 810.5 c 128,-1,14
 260 821 260 821 260 837 c 2,15,-1
 260 847 l 2,16,17
 260 863 260 863 250.5 873.5 c 128,-1,18
 241 884 241 884 221 884 c 0,19,20
 200 884 200 884 190.5 873.5 c 128,-1,21
 181 863 181 863 181 847 c 2,22,-1
 181 837 l 2,23,24
 181 821 181 821 190.5 810.5 c 128,-1,25
 200 800 200 800 221 800 c 0,12,13
405 800 m 0,26,27
 426 800 426 800 435.5 810.5 c 128,-1,28
 445 821 445 821 445 837 c 2,29,-1
 445 847 l 2,30,31
 445 863 445 863 435.5 873.5 c 128,-1,32
 426 884 426 884 405 884 c 0,33,34
 385 884 385 884 375.5 873.5 c 128,-1,35
 366 863 366 863 366 847 c 2,36,-1
 366 837 l 2,37,38
 366 821 366 821 375.5 810.5 c 128,-1,39
 385 800 385 800 405 800 c 0,26,27
EndSplineSet
EndChar

StartChar: Aring
Encoding: 197 197 132
Width: 625
Flags: W
LayerCount: 2
Fore
SplineSet
599 0 m 1,0,-1
 351 698 l 1,1,-1
 274 698 l 1,2,-1
 27 0 l 1,3,-1
 87 0 l 1,4,-1
 163 217 l 1,5,-1
 460 217 l 1,6,-1
 536 0 l 1,7,-1
 599 0 l 1,0,-1
444 269 m 1,8,-1
 178 269 l 1,9,-1
 309 641 l 1,10,-1
 313 641 l 1,11,-1
 444 269 l 1,8,-1
313 755 m 256,12,13
 359 755 359 755 389 784.5 c 128,-1,14
 419 814 419 814 419 861 c 0,15,16
 419 907 419 907 389 936.5 c 128,-1,17
 359 966 359 966 313 966 c 256,18,19
 267 966 267 966 237 936.5 c 128,-1,20
 207 907 207 907 207 861 c 0,21,22
 207 814 207 814 237 784.5 c 128,-1,23
 267 755 267 755 313 755 c 256,12,13
313 792 m 1,24,25
 255 792 255 792 250 852 c 1,26,-1
 250 869 l 2,27,28
 250 928 250 928 313 929 c 0,29,30
 372 929 372 929 376 869 c 1,31,-1
 376 852 l 2,32,33
 376 797 376 797 313 792 c 1,24,25
EndSplineSet
EndChar

StartChar: AE
Encoding: 198 198 133
Width: 888
Flags: W
LayerCount: 2
Fore
SplineSet
822 0 m 1,0,-1
 822 53 l 1,1,-1
 473 53 l 1,2,-1
 473 328 l 1,3,-1
 805 328 l 1,4,-1
 805 381 l 1,5,-1
 473 381 l 1,6,-1
 473 645 l 1,7,-1
 822 645 l 1,8,-1
 822 698 l 1,9,-1
 370 698 l 1,10,-1
 3 0 l 1,11,-1
 65 0 l 1,12,-1
 178 216 l 1,13,-1
 413 216 l 1,14,-1
 413 0 l 1,15,-1
 822 0 l 1,0,-1
413 269 m 1,16,-1
 203 269 l 1,17,-1
 401 645 l 1,18,-1
 413 645 l 1,19,-1
 413 269 l 1,16,-1
EndSplineSet
EndChar

StartChar: Ccedilla
Encoding: 199 199 134
Width: 617
Flags: W
LayerCount: 2
Fore
SplineSet
347 -205 m 0,0,1
 389 -205 389 -205 418 -184.5 c 128,-1,2
 447 -164 447 -164 447 -127 c 0,3,4
 447 -96 447 -96 427.5 -79.5 c 128,-1,5
 408 -63 408 -63 379 -63 c 0,6,7
 363 -63 363 -63 343 -68 c 1,8,-1
 341 -66 l 1,9,-1
 353 -11 l 1,10,11
 511 2 511 2 571 144 c 1,12,-1
 522 173 l 1,13,14
 499 112 499 112 452 77 c 128,-1,15
 405 42 405 42 335 42 c 0,16,17
 237 42 237 42 182 110 c 128,-1,18
 127 178 127 178 127 307 c 2,19,-1
 127 386 l 2,20,21
 127 516 127 516 182 586 c 128,-1,22
 237 656 237 656 335 656 c 0,23,24
 401 656 401 656 447.5 623 c 128,-1,25
 494 590 494 590 517 532 c 1,26,-1
 566 561 l 1,27,28
 534 631 534 631 476.5 670.5 c 128,-1,29
 419 710 419 710 335 710 c 0,30,31
 205 710 205 710 134 617 c 128,-1,32
 63 524 63 524 63 347 c 0,33,34
 63 175 63 175 128.5 85 c 128,-1,35
 194 -5 194 -5 315 -11 c 1,36,-1
 301 -80 l 1,37,-1
 332 -83 l 2,38,39
 371 -88 371 -88 384.5 -98.5 c 128,-1,40
 398 -109 398 -109 398 -126 c 0,41,42
 398 -146 398 -146 383.5 -155.5 c 128,-1,43
 369 -165 369 -165 347 -165 c 0,44,45
 305 -165 305 -165 283 -137 c 1,46,-1
 255 -168 l 1,47,48
 265 -183 265 -183 288 -194 c 128,-1,49
 311 -205 311 -205 347 -205 c 0,0,1
EndSplineSet
EndChar

StartChar: Egrave
Encoding: 200 200 135
Width: 574
Flags: W
LayerCount: 2
Fore
SplineSet
507 0 m 1,0,-1
 507 53 l 1,1,-1
 159 53 l 1,2,-1
 159 328 l 1,3,-1
 490 328 l 1,4,-1
 490 381 l 1,5,-1
 159 381 l 1,6,-1
 159 645 l 1,7,-1
 507 645 l 1,8,-1
 507 698 l 1,9,-1
 99 698 l 1,10,-1
 99 0 l 1,11,-1
 507 0 l 1,0,-1
304 760 m 1,12,-1
 342 778 l 1,13,-1
 247 942 l 1,14,-1
 195 916 l 1,15,-1
 304 760 l 1,12,-1
EndSplineSet
EndChar

StartChar: Eacute
Encoding: 201 201 136
Width: 574
Flags: W
LayerCount: 2
Fore
SplineSet
507 0 m 1,0,-1
 507 53 l 1,1,-1
 159 53 l 1,2,-1
 159 328 l 1,3,-1
 490 328 l 1,4,-1
 490 381 l 1,5,-1
 159 381 l 1,6,-1
 159 645 l 1,7,-1
 507 645 l 1,8,-1
 507 698 l 1,9,-1
 99 698 l 1,10,-1
 99 0 l 1,11,-1
 507 0 l 1,0,-1
299 760 m 1,12,-1
 409 916 l 1,13,-1
 357 942 l 1,14,-1
 262 778 l 1,15,-1
 299 760 l 1,12,-1
EndSplineSet
EndChar

StartChar: Ecircumflex
Encoding: 202 202 137
Width: 574
Flags: W
LayerCount: 2
Fore
SplineSet
507 0 m 1,0,-1
 507 53 l 1,1,-1
 159 53 l 1,2,-1
 159 328 l 1,3,-1
 490 328 l 1,4,-1
 490 381 l 1,5,-1
 159 381 l 1,6,-1
 159 645 l 1,7,-1
 507 645 l 1,8,-1
 507 698 l 1,9,-1
 99 698 l 1,10,-1
 99 0 l 1,11,-1
 507 0 l 1,0,-1
423 768 m 1,12,-1
 455 791 l 1,13,-1
 337 930 l 1,14,-1
 267 930 l 1,15,-1
 149 791 l 1,16,-1
 181 768 l 1,17,-1
 302 888 l 1,18,-1
 423 768 l 1,12,-1
EndSplineSet
EndChar

StartChar: Edieresis
Encoding: 203 203 138
Width: 574
Flags: W
LayerCount: 2
Fore
SplineSet
507 0 m 1,0,-1
 507 53 l 1,1,-1
 159 53 l 1,2,-1
 159 328 l 1,3,-1
 490 328 l 1,4,-1
 490 381 l 1,5,-1
 159 381 l 1,6,-1
 159 645 l 1,7,-1
 507 645 l 1,8,-1
 507 698 l 1,9,-1
 99 698 l 1,10,-1
 99 0 l 1,11,-1
 507 0 l 1,0,-1
210 800 m 0,12,13
 230 800 230 800 239.5 810.5 c 128,-1,14
 249 821 249 821 249 837 c 2,15,-1
 249 847 l 2,16,17
 249 863 249 863 239.5 873.5 c 128,-1,18
 230 884 230 884 210 884 c 0,19,20
 189 884 189 884 179.5 873.5 c 128,-1,21
 170 863 170 863 170 847 c 2,22,-1
 170 837 l 2,23,24
 170 821 170 821 179.5 810.5 c 128,-1,25
 189 800 189 800 210 800 c 0,12,13
394 800 m 0,26,27
 415 800 415 800 424.5 810.5 c 128,-1,28
 434 821 434 821 434 837 c 2,29,-1
 434 847 l 2,30,31
 434 863 434 863 424.5 873.5 c 128,-1,32
 415 884 415 884 394 884 c 0,33,34
 374 884 374 884 364.5 873.5 c 128,-1,35
 355 863 355 863 355 847 c 2,36,-1
 355 837 l 2,37,38
 355 821 355 821 364.5 810.5 c 128,-1,39
 374 800 374 800 394 800 c 0,26,27
EndSplineSet
EndChar

StartChar: Igrave
Encoding: 204 204 139
Width: 278
Flags: W
LayerCount: 2
Fore
SplineSet
141 760 m 1,0,-1
 179 778 l 1,1,-1
 84 942 l 1,2,-1
 32 916 l 1,3,-1
 141 760 l 1,0,-1
169 0 m 1,4,-1
 169 698 l 1,5,-1
 109 698 l 1,6,-1
 109 0 l 1,7,-1
 169 0 l 1,4,-1
EndSplineSet
EndChar

StartChar: Iacute
Encoding: 205 205 140
Width: 278
Flags: W
LayerCount: 2
Fore
SplineSet
136 760 m 1,0,-1
 246 916 l 1,1,-1
 194 942 l 1,2,-1
 99 778 l 1,3,-1
 136 760 l 1,0,-1
169 0 m 1,4,-1
 169 698 l 1,5,-1
 109 698 l 1,6,-1
 109 0 l 1,7,-1
 169 0 l 1,4,-1
EndSplineSet
EndChar

StartChar: Icircumflex
Encoding: 206 206 141
Width: 278
Flags: W
LayerCount: 2
Fore
SplineSet
260 768 m 1,0,-1
 292 791 l 1,1,-1
 174 930 l 1,2,-1
 104 930 l 1,3,-1
 -14 791 l 1,4,-1
 18 768 l 1,5,-1
 139 888 l 1,6,-1
 260 768 l 1,0,-1
169 0 m 1,7,-1
 169 698 l 1,8,-1
 109 698 l 1,9,-1
 109 0 l 1,10,-1
 169 0 l 1,7,-1
EndSplineSet
EndChar

StartChar: Idieresis
Encoding: 207 207 142
Width: 278
Flags: W
LayerCount: 2
Fore
SplineSet
47 800 m 0,0,1
 67 800 67 800 76.5 810.5 c 128,-1,2
 86 821 86 821 86 837 c 2,3,-1
 86 847 l 2,4,5
 86 863 86 863 76.5 873.5 c 128,-1,6
 67 884 67 884 47 884 c 0,7,8
 26 884 26 884 16.5 873.5 c 128,-1,9
 7 863 7 863 7 847 c 2,10,-1
 7 837 l 2,11,12
 7 821 7 821 16.5 810.5 c 128,-1,13
 26 800 26 800 47 800 c 0,0,1
231 800 m 0,14,15
 252 800 252 800 261.5 810.5 c 128,-1,16
 271 821 271 821 271 837 c 2,17,-1
 271 847 l 2,18,19
 271 863 271 863 261.5 873.5 c 128,-1,20
 252 884 252 884 231 884 c 0,21,22
 211 884 211 884 201.5 873.5 c 128,-1,23
 192 863 192 863 192 847 c 2,24,-1
 192 837 l 2,25,26
 192 821 192 821 201.5 810.5 c 128,-1,27
 211 800 211 800 231 800 c 0,14,15
169 0 m 1,28,-1
 169 698 l 1,29,-1
 109 698 l 1,30,-1
 109 0 l 1,31,-1
 169 0 l 1,28,-1
EndSplineSet
EndChar

StartChar: Eth
Encoding: 208 208 143
Width: 669
Flags: W
LayerCount: 2
Fore
SplineSet
324 0 m 2,0,1
 459 0 459 0 532.5 87 c 128,-1,2
 606 174 606 174 606 349 c 256,3,4
 606 524 606 524 532.5 611 c 128,-1,5
 459 698 459 698 324 698 c 2,6,-1
 102 698 l 1,7,-1
 102 392 l 1,8,-1
 21 392 l 1,9,-1
 21 346 l 1,10,-1
 102 346 l 1,11,-1
 102 0 l 1,12,-1
 324 0 l 2,0,1
325 53 m 2,13,-1
 162 53 l 1,14,-1
 162 346 l 1,15,-1
 312 346 l 1,16,-1
 312 392 l 1,17,-1
 162 392 l 1,18,-1
 162 645 l 1,19,-1
 325 645 l 2,20,21
 428 645 428 645 485 578.5 c 128,-1,22
 542 512 542 512 542 395 c 2,23,-1
 542 303 l 2,24,25
 542 186 542 186 485 119.5 c 128,-1,26
 428 53 428 53 325 53 c 2,13,-1
EndSplineSet
EndChar

StartChar: Ntilde
Encoding: 209 209 144
Width: 701
Flags: W
LayerCount: 2
Fore
SplineSet
602 0 m 1,0,-1
 602 698 l 1,1,-1
 544 698 l 1,2,-1
 544 82 l 1,3,-1
 541 82 l 1,4,-1
 174 698 l 1,5,-1
 99 698 l 1,6,-1
 99 0 l 1,7,-1
 157 0 l 1,8,-1
 157 616 l 1,9,-1
 160 616 l 1,10,-1
 527 0 l 1,11,-1
 602 0 l 1,0,-1
422 792 m 0,12,13
 475 792 475 792 511 840 c 1,14,-1
 486 869 l 1,15,16
 460 840 460 840 425 840 c 0,17,18
 397 840 397 840 357 864 c 0,19,20
 336 876 336 876 318 884 c 128,-1,21
 300 892 300 892 278 892 c 0,22,23
 225 892 225 892 189 844 c 1,24,-1
 214 815 l 1,25,26
 241 844 241 844 275 844 c 0,27,28
 304 844 304 844 343 820 c 0,29,30
 364 808 364 808 382 800 c 128,-1,31
 400 792 400 792 422 792 c 0,12,13
EndSplineSet
EndChar

StartChar: Ograve
Encoding: 210 210 145
Width: 697
Flags: W
LayerCount: 2
Fore
SplineSet
349 -12 m 0,0,1
 482 -12 482 -12 558 80 c 128,-1,2
 634 172 634 172 634 349 c 256,3,4
 634 526 634 526 558 618 c 128,-1,5
 482 710 482 710 349 710 c 0,6,7
 215 710 215 710 139 618.5 c 128,-1,8
 63 527 63 527 63 349 c 256,9,10
 63 171 63 171 139 79.5 c 128,-1,11
 215 -12 215 -12 349 -12 c 0,0,1
349 42 m 0,12,13
 249 42 249 42 188 111.5 c 128,-1,14
 127 181 127 181 127 305 c 2,15,-1
 127 393 l 2,16,17
 127 518 127 518 188 587 c 128,-1,18
 249 656 249 656 349 656 c 0,19,20
 450 656 450 656 510 587 c 128,-1,21
 570 518 570 518 570 393 c 2,22,-1
 570 305 l 2,23,24
 570 181 570 181 510 111.5 c 128,-1,25
 450 42 450 42 349 42 c 0,12,13
351 760 m 1,26,-1
 389 778 l 1,27,-1
 294 942 l 1,28,-1
 242 916 l 1,29,-1
 351 760 l 1,26,-1
EndSplineSet
EndChar

StartChar: Oacute
Encoding: 211 211 146
Width: 697
Flags: W
LayerCount: 2
Fore
SplineSet
349 -12 m 0,0,1
 482 -12 482 -12 558 80 c 128,-1,2
 634 172 634 172 634 349 c 256,3,4
 634 526 634 526 558 618 c 128,-1,5
 482 710 482 710 349 710 c 0,6,7
 215 710 215 710 139 618.5 c 128,-1,8
 63 527 63 527 63 349 c 256,9,10
 63 171 63 171 139 79.5 c 128,-1,11
 215 -12 215 -12 349 -12 c 0,0,1
349 42 m 0,12,13
 249 42 249 42 188 111.5 c 128,-1,14
 127 181 127 181 127 305 c 2,15,-1
 127 393 l 2,16,17
 127 518 127 518 188 587 c 128,-1,18
 249 656 249 656 349 656 c 0,19,20
 450 656 450 656 510 587 c 128,-1,21
 570 518 570 518 570 393 c 2,22,-1
 570 305 l 2,23,24
 570 181 570 181 510 111.5 c 128,-1,25
 450 42 450 42 349 42 c 0,12,13
346 760 m 1,26,-1
 456 916 l 1,27,-1
 404 942 l 1,28,-1
 309 778 l 1,29,-1
 346 760 l 1,26,-1
EndSplineSet
EndChar

StartChar: Ocircumflex
Encoding: 212 212 147
Width: 697
Flags: W
LayerCount: 2
Fore
SplineSet
349 -12 m 0,0,1
 482 -12 482 -12 558 80 c 128,-1,2
 634 172 634 172 634 349 c 256,3,4
 634 526 634 526 558 618 c 128,-1,5
 482 710 482 710 349 710 c 0,6,7
 215 710 215 710 139 618.5 c 128,-1,8
 63 527 63 527 63 349 c 256,9,10
 63 171 63 171 139 79.5 c 128,-1,11
 215 -12 215 -12 349 -12 c 0,0,1
349 42 m 0,12,13
 249 42 249 42 188 111.5 c 128,-1,14
 127 181 127 181 127 305 c 2,15,-1
 127 393 l 2,16,17
 127 518 127 518 188 587 c 128,-1,18
 249 656 249 656 349 656 c 0,19,20
 450 656 450 656 510 587 c 128,-1,21
 570 518 570 518 570 393 c 2,22,-1
 570 305 l 2,23,24
 570 181 570 181 510 111.5 c 128,-1,25
 450 42 450 42 349 42 c 0,12,13
470 768 m 1,26,-1
 502 791 l 1,27,-1
 384 930 l 1,28,-1
 314 930 l 1,29,-1
 196 791 l 1,30,-1
 228 768 l 1,31,-1
 349 888 l 1,32,-1
 470 768 l 1,26,-1
EndSplineSet
EndChar

StartChar: Otilde
Encoding: 213 213 148
Width: 697
Flags: W
LayerCount: 2
Fore
SplineSet
349 -12 m 0,0,1
 482 -12 482 -12 558 80 c 128,-1,2
 634 172 634 172 634 349 c 256,3,4
 634 526 634 526 558 618 c 128,-1,5
 482 710 482 710 349 710 c 0,6,7
 215 710 215 710 139 618.5 c 128,-1,8
 63 527 63 527 63 349 c 256,9,10
 63 171 63 171 139 79.5 c 128,-1,11
 215 -12 215 -12 349 -12 c 0,0,1
349 42 m 0,12,13
 249 42 249 42 188 111.5 c 128,-1,14
 127 181 127 181 127 305 c 2,15,-1
 127 393 l 2,16,17
 127 518 127 518 188 587 c 128,-1,18
 249 656 249 656 349 656 c 0,19,20
 450 656 450 656 510 587 c 128,-1,21
 570 518 570 518 570 393 c 2,22,-1
 570 305 l 2,23,24
 570 181 570 181 510 111.5 c 128,-1,25
 450 42 450 42 349 42 c 0,12,13
421 792 m 0,26,27
 474 792 474 792 510 840 c 1,28,-1
 485 869 l 1,29,30
 459 840 459 840 424 840 c 0,31,32
 396 840 396 840 356 864 c 0,33,34
 335 876 335 876 317 884 c 128,-1,35
 299 892 299 892 277 892 c 0,36,37
 224 892 224 892 188 844 c 1,38,-1
 213 815 l 1,39,40
 240 844 240 844 274 844 c 0,41,42
 303 844 303 844 342 820 c 0,43,44
 363 808 363 808 381 800 c 128,-1,45
 399 792 399 792 421 792 c 0,26,27
EndSplineSet
EndChar

StartChar: Odieresis
Encoding: 214 214 149
Width: 697
Flags: W
LayerCount: 2
Fore
SplineSet
349 -12 m 0,0,1
 482 -12 482 -12 558 80 c 128,-1,2
 634 172 634 172 634 349 c 256,3,4
 634 526 634 526 558 618 c 128,-1,5
 482 710 482 710 349 710 c 0,6,7
 215 710 215 710 139 618.5 c 128,-1,8
 63 527 63 527 63 349 c 256,9,10
 63 171 63 171 139 79.5 c 128,-1,11
 215 -12 215 -12 349 -12 c 0,0,1
349 42 m 0,12,13
 249 42 249 42 188 111.5 c 128,-1,14
 127 181 127 181 127 305 c 2,15,-1
 127 393 l 2,16,17
 127 518 127 518 188 587 c 128,-1,18
 249 656 249 656 349 656 c 0,19,20
 450 656 450 656 510 587 c 128,-1,21
 570 518 570 518 570 393 c 2,22,-1
 570 305 l 2,23,24
 570 181 570 181 510 111.5 c 128,-1,25
 450 42 450 42 349 42 c 0,12,13
257 800 m 0,26,27
 277 800 277 800 286.5 810.5 c 128,-1,28
 296 821 296 821 296 837 c 2,29,-1
 296 847 l 2,30,31
 296 863 296 863 286.5 873.5 c 128,-1,32
 277 884 277 884 257 884 c 0,33,34
 236 884 236 884 226.5 873.5 c 128,-1,35
 217 863 217 863 217 847 c 2,36,-1
 217 837 l 2,37,38
 217 821 217 821 226.5 810.5 c 128,-1,39
 236 800 236 800 257 800 c 0,26,27
441 800 m 0,40,41
 462 800 462 800 471.5 810.5 c 128,-1,42
 481 821 481 821 481 837 c 2,43,-1
 481 847 l 2,44,45
 481 863 481 863 471.5 873.5 c 128,-1,46
 462 884 462 884 441 884 c 0,47,48
 421 884 421 884 411.5 873.5 c 128,-1,49
 402 863 402 863 402 847 c 2,50,-1
 402 837 l 2,51,52
 402 821 402 821 411.5 810.5 c 128,-1,53
 421 800 421 800 441 800 c 0,40,41
EndSplineSet
EndChar

StartChar: multiply
Encoding: 215 215 150
Width: 600
Flags: W
LayerCount: 2
Fore
SplineSet
468 100 m 1,0,-1
 503 135 l 1,1,-1
 335 305 l 1,2,-1
 503 475 l 1,3,-1
 468 510 l 1,4,-1
 300 340 l 1,5,-1
 132 510 l 1,6,-1
 97 475 l 1,7,-1
 265 305 l 1,8,-1
 97 135 l 1,9,-1
 132 100 l 1,10,-1
 300 270 l 1,11,-1
 468 100 l 1,0,-1
EndSplineSet
EndChar

StartChar: Oslash
Encoding: 216 216 151
Width: 697
Flags: W
LayerCount: 2
Fore
SplineSet
108 -40 m 1,0,-1
 170 50 l 1,1,2
 240 -12 240 -12 349 -12 c 0,3,4
 482 -12 482 -12 558 80 c 128,-1,5
 634 172 634 172 634 349 c 0,6,7
 634 520 634 520 562 613 c 1,8,-1
 631 711 l 1,9,-1
 589 738 l 1,10,-1
 527 649 l 1,11,12
 456 710 456 710 349 710 c 0,13,14
 215 710 215 710 139 618.5 c 128,-1,15
 63 527 63 527 63 349 c 0,16,17
 63 178 63 178 135 85 c 1,18,-1
 66 -13 l 1,19,-1
 108 -40 l 1,0,-1
169 136 m 1,20,21
 127 202 127 202 127 305 c 2,22,-1
 127 393 l 2,23,24
 127 518 127 518 188 587 c 128,-1,25
 249 656 249 656 349 656 c 0,26,27
 438 656 438 656 494 602 c 1,28,-1
 169 136 l 1,20,21
349 42 m 0,29,30
 258 42 258 42 203 96 c 1,31,-1
 528 562 l 1,32,33
 570 497 570 497 570 393 c 2,34,-1
 570 305 l 2,35,36
 570 181 570 181 510 111.5 c 128,-1,37
 450 42 450 42 349 42 c 0,29,30
EndSplineSet
EndChar

StartChar: Ugrave
Encoding: 217 217 152
Width: 668
Flags: W
LayerCount: 2
Fore
SplineSet
332 -12 m 0,0,1
 466 -12 466 -12 520.5 57 c 128,-1,2
 575 126 575 126 575 280 c 2,3,-1
 575 698 l 1,4,-1
 515 698 l 1,5,-1
 515 267 l 2,6,7
 515 152 515 152 475.5 97 c 128,-1,8
 436 42 436 42 334 42 c 256,9,10
 232 42 232 42 192.5 97 c 128,-1,11
 153 152 153 152 153 267 c 2,12,-1
 153 698 l 1,13,-1
 93 698 l 1,14,-1
 93 280 l 2,15,16
 93 126 93 126 146 57 c 128,-1,17
 199 -12 199 -12 332 -12 c 0,0,1
334 760 m 1,18,-1
 372 778 l 1,19,-1
 277 942 l 1,20,-1
 225 916 l 1,21,-1
 334 760 l 1,18,-1
EndSplineSet
EndChar

StartChar: Uacute
Encoding: 218 218 153
Width: 668
Flags: W
LayerCount: 2
Fore
SplineSet
332 -12 m 0,0,1
 466 -12 466 -12 520.5 57 c 128,-1,2
 575 126 575 126 575 280 c 2,3,-1
 575 698 l 1,4,-1
 515 698 l 1,5,-1
 515 267 l 2,6,7
 515 152 515 152 475.5 97 c 128,-1,8
 436 42 436 42 334 42 c 256,9,10
 232 42 232 42 192.5 97 c 128,-1,11
 153 152 153 152 153 267 c 2,12,-1
 153 698 l 1,13,-1
 93 698 l 1,14,-1
 93 280 l 2,15,16
 93 126 93 126 146 57 c 128,-1,17
 199 -12 199 -12 332 -12 c 0,0,1
329 760 m 1,18,-1
 439 916 l 1,19,-1
 387 942 l 1,20,-1
 292 778 l 1,21,-1
 329 760 l 1,18,-1
EndSplineSet
EndChar

StartChar: Ucircumflex
Encoding: 219 219 154
Width: 668
Flags: W
LayerCount: 2
Fore
SplineSet
332 -12 m 0,0,1
 466 -12 466 -12 520.5 57 c 128,-1,2
 575 126 575 126 575 280 c 2,3,-1
 575 698 l 1,4,-1
 515 698 l 1,5,-1
 515 267 l 2,6,7
 515 152 515 152 475.5 97 c 128,-1,8
 436 42 436 42 334 42 c 256,9,10
 232 42 232 42 192.5 97 c 128,-1,11
 153 152 153 152 153 267 c 2,12,-1
 153 698 l 1,13,-1
 93 698 l 1,14,-1
 93 280 l 2,15,16
 93 126 93 126 146 57 c 128,-1,17
 199 -12 199 -12 332 -12 c 0,0,1
453 768 m 1,18,-1
 485 791 l 1,19,-1
 367 930 l 1,20,-1
 297 930 l 1,21,-1
 179 791 l 1,22,-1
 211 768 l 1,23,-1
 332 888 l 1,24,-1
 453 768 l 1,18,-1
EndSplineSet
EndChar

StartChar: Udieresis
Encoding: 220 220 155
Width: 668
Flags: W
LayerCount: 2
Fore
SplineSet
332 -12 m 0,0,1
 466 -12 466 -12 520.5 57 c 128,-1,2
 575 126 575 126 575 280 c 2,3,-1
 575 698 l 1,4,-1
 515 698 l 1,5,-1
 515 267 l 2,6,7
 515 152 515 152 475.5 97 c 128,-1,8
 436 42 436 42 334 42 c 256,9,10
 232 42 232 42 192.5 97 c 128,-1,11
 153 152 153 152 153 267 c 2,12,-1
 153 698 l 1,13,-1
 93 698 l 1,14,-1
 93 280 l 2,15,16
 93 126 93 126 146 57 c 128,-1,17
 199 -12 199 -12 332 -12 c 0,0,1
240 800 m 0,18,19
 260 800 260 800 269.5 810.5 c 128,-1,20
 279 821 279 821 279 837 c 2,21,-1
 279 847 l 2,22,23
 279 863 279 863 269.5 873.5 c 128,-1,24
 260 884 260 884 240 884 c 0,25,26
 219 884 219 884 209.5 873.5 c 128,-1,27
 200 863 200 863 200 847 c 2,28,-1
 200 837 l 2,29,30
 200 821 200 821 209.5 810.5 c 128,-1,31
 219 800 219 800 240 800 c 0,18,19
424 800 m 0,32,33
 445 800 445 800 454.5 810.5 c 128,-1,34
 464 821 464 821 464 837 c 2,35,-1
 464 847 l 2,36,37
 464 863 464 863 454.5 873.5 c 128,-1,38
 445 884 445 884 424 884 c 0,39,40
 404 884 404 884 394.5 873.5 c 128,-1,41
 385 863 385 863 385 847 c 2,42,-1
 385 837 l 2,43,44
 385 821 385 821 394.5 810.5 c 128,-1,45
 404 800 404 800 424 800 c 0,32,33
EndSplineSet
EndChar

StartChar: Yacute
Encoding: 221 221 156
Width: 575
Flags: W
LayerCount: 2
Fore
SplineSet
317 0 m 1,0,-1
 317 286 l 1,1,-1
 559 698 l 1,2,-1
 491 698 l 1,3,-1
 289 346 l 1,4,-1
 286 346 l 1,5,-1
 84 698 l 1,6,-1
 16 698 l 1,7,-1
 257 283 l 1,8,-1
 257 0 l 1,9,-1
 317 0 l 1,0,-1
285 760 m 1,10,-1
 395 916 l 1,11,-1
 343 942 l 1,12,-1
 248 778 l 1,13,-1
 285 760 l 1,10,-1
EndSplineSet
EndChar

StartChar: Thorn
Encoding: 222 222 157
Width: 601
Flags: W
LayerCount: 2
Fore
SplineSet
159 0 m 1,0,-1
 159 159 l 1,1,-1
 373 159 l 2,2,3
 464 159 464 159 512 211.5 c 128,-1,4
 560 264 560 264 560 354 c 256,5,6
 560 444 560 444 512 496.5 c 128,-1,7
 464 549 464 549 373 549 c 2,8,-1
 159 549 l 1,9,-1
 159 698 l 1,10,-1
 99 698 l 1,11,-1
 99 0 l 1,12,-1
 159 0 l 1,0,-1
373 212 m 2,13,-1
 159 212 l 1,14,-1
 159 496 l 1,15,-1
 373 496 l 2,16,17
 433 496 433 496 464.5 462.5 c 128,-1,18
 496 429 496 429 496 377 c 2,19,-1
 496 331 l 2,20,21
 496 279 496 279 464.5 245.5 c 128,-1,22
 433 212 433 212 373 212 c 2,13,-1
EndSplineSet
EndChar

StartChar: germandbls
Encoding: 223 223 158
Width: 642
Flags: W
LayerCount: 2
Fore
SplineSet
433 -12 m 0,0,1
 514 -12 514 -12 560 28 c 128,-1,2
 606 68 606 68 606 140 c 0,3,4
 606 200 606 200 573 232 c 128,-1,5
 540 264 540 264 473 280 c 2,6,-1
 438 288 l 2,7,8
 393 298 393 298 370.5 317.5 c 128,-1,9
 348 337 348 337 348 379 c 0,10,11
 348 428 348 428 390 449.5 c 128,-1,12
 432 471 432 471 502 471 c 2,13,-1
 537 471 l 1,14,-1
 537 521 l 2,15,16
 537 625 537 625 483 689 c 0,17,18
 427 752 427 752 329 752 c 0,19,20
 229 752 229 752 175 688.5 c 128,-1,21
 121 625 121 625 121 521 c 2,22,-1
 121 512 l 1,23,-1
 33 512 l 1,24,-1
 33 462 l 1,25,-1
 121 462 l 1,26,-1
 121 0 l 1,27,-1
 178 0 l 1,28,-1
 178 525 l 2,29,30
 178 701 178 701 329 703 c 0,31,32
 481 703 481 703 481 525 c 2,33,-1
 481 516 l 1,34,35
 395 515 395 515 344 480 c 128,-1,36
 293 445 293 445 293 376 c 0,37,38
 293 310 293 310 331 280 c 128,-1,39
 369 250 369 250 430 237 c 2,40,-1
 466 229 l 2,41,42
 551 214 551 214 551 134 c 0,43,44
 551 40 551 40 436 37 c 0,45,46
 342 37 342 37 290 109 c 1,47,-1
 250 76 l 1,48,49
 309 -12 309 -12 433 -12 c 0,0,1
EndSplineSet
EndChar

StartChar: agrave
Encoding: 224 224 159
Width: 520
Flags: W
LayerCount: 2
Fore
SplineSet
254 586 m 1,0,-1
 292 604 l 1,1,-1
 197 768 l 1,2,-1
 145 742 l 1,3,-1
 254 586 l 1,0,-1
220 -12 m 0,4,5
 139 -12 139 -12 95 27.5 c 128,-1,6
 51 67 51 67 51 139 c 0,7,8
 51 287 51 287 259 287 c 2,9,-1
 377 287 l 1,10,-1
 377 347 l 2,11,12
 377 474 377 474 248 474 c 2,13,-1
 246 474 l 2,14,15
 150 474 150 474 106 391 c 1,16,-1
 70 421 l 1,17,18
 117 524 117 524 248 524 c 0,19,20
 428 524 428 524 434 353 c 1,21,-1
 434 0 l 1,22,-1
 380 0 l 1,23,-1
 380 81 l 1,24,-1
 375 81 l 1,25,26
 358 38 358 38 319 13 c 128,-1,27
 280 -12 280 -12 220 -12 c 0,4,5
228 37 m 0,28,29
 290 37 290 37 333.5 67 c 128,-1,30
 377 97 377 97 377 149 c 2,31,-1
 377 244 l 1,32,-1
 257 244 l 2,33,34
 111 244 111 244 111 152 c 2,35,-1
 111 128 l 2,36,37
 111 83 111 83 143 60 c 128,-1,38
 175 37 175 37 228 37 c 0,28,29
EndSplineSet
EndChar

StartChar: aacute
Encoding: 225 225 160
Width: 520
Flags: W
LayerCount: 2
Fore
SplineSet
249 586 m 1,0,-1
 359 742 l 1,1,-1
 307 768 l 1,2,-1
 212 604 l 1,3,-1
 249 586 l 1,0,-1
220 -12 m 0,4,5
 139 -12 139 -12 95 27.5 c 128,-1,6
 51 67 51 67 51 139 c 0,7,8
 51 287 51 287 259 287 c 2,9,-1
 377 287 l 1,10,-1
 377 347 l 2,11,12
 377 474 377 474 248 474 c 2,13,-1
 246 474 l 2,14,15
 150 474 150 474 106 391 c 1,16,-1
 70 421 l 1,17,18
 117 524 117 524 248 524 c 0,19,20
 428 524 428 524 434 353 c 1,21,-1
 434 0 l 1,22,-1
 380 0 l 1,23,-1
 380 81 l 1,24,-1
 375 81 l 1,25,26
 358 38 358 38 319 13 c 128,-1,27
 280 -12 280 -12 220 -12 c 0,4,5
228 37 m 0,28,29
 290 37 290 37 333.5 67 c 128,-1,30
 377 97 377 97 377 149 c 2,31,-1
 377 244 l 1,32,-1
 257 244 l 2,33,34
 111 244 111 244 111 152 c 2,35,-1
 111 128 l 2,36,37
 111 83 111 83 143 60 c 128,-1,38
 175 37 175 37 228 37 c 0,28,29
EndSplineSet
EndChar

StartChar: acircumflex
Encoding: 226 226 161
Width: 520
Flags: W
LayerCount: 2
Fore
SplineSet
373 594 m 1,0,-1
 405 617 l 1,1,-1
 287 756 l 1,2,-1
 217 756 l 1,3,-1
 99 617 l 1,4,-1
 131 594 l 1,5,-1
 252 715 l 1,6,-1
 373 594 l 1,0,-1
220 -12 m 0,7,8
 139 -12 139 -12 95 27.5 c 128,-1,9
 51 67 51 67 51 139 c 0,10,11
 51 287 51 287 259 287 c 2,12,-1
 377 287 l 1,13,-1
 377 347 l 2,14,15
 377 474 377 474 248 474 c 2,16,-1
 246 474 l 2,17,18
 150 474 150 474 106 391 c 1,19,-1
 70 421 l 1,20,21
 117 524 117 524 248 524 c 0,22,23
 428 524 428 524 434 353 c 1,24,-1
 434 0 l 1,25,-1
 380 0 l 1,26,-1
 380 81 l 1,27,-1
 375 81 l 1,28,29
 358 38 358 38 319 13 c 128,-1,30
 280 -12 280 -12 220 -12 c 0,7,8
228 37 m 0,31,32
 290 37 290 37 333.5 67 c 128,-1,33
 377 97 377 97 377 149 c 2,34,-1
 377 244 l 1,35,-1
 257 244 l 2,36,37
 111 244 111 244 111 152 c 2,38,-1
 111 128 l 2,39,40
 111 83 111 83 143 60 c 128,-1,41
 175 37 175 37 228 37 c 0,31,32
EndSplineSet
EndChar

StartChar: atilde
Encoding: 227 227 162
Width: 520
Flags: W
LayerCount: 2
Fore
SplineSet
324 618 m 0,0,1
 377 618 377 618 413 666 c 1,2,-1
 388 695 l 1,3,4
 373 681 373 681 358.5 673 c 128,-1,5
 344 665 344 665 327 665 c 0,6,7
 313 665 313 665 297.5 670.5 c 128,-1,8
 282 676 282 676 260.5 689 c 128,-1,9
 239 702 239 702 221 710 c 128,-1,10
 203 718 203 718 180 718 c 0,11,12
 127 718 127 718 91 670 c 1,13,-1
 116 641 l 1,14,15
 131 655 131 655 145.5 663 c 128,-1,16
 160 671 160 671 177 671 c 0,17,18
 191 671 191 671 206.5 665.5 c 128,-1,19
 222 660 222 660 243.5 647 c 128,-1,20
 265 634 265 634 283 626 c 128,-1,21
 301 618 301 618 324 618 c 0,0,1
220 -12 m 0,22,23
 139 -12 139 -12 95 27.5 c 128,-1,24
 51 67 51 67 51 139 c 0,25,26
 51 287 51 287 259 287 c 2,27,-1
 377 287 l 1,28,-1
 377 347 l 2,29,30
 377 474 377 474 248 474 c 2,31,-1
 246 474 l 2,32,33
 150 474 150 474 106 391 c 1,34,-1
 70 421 l 1,35,36
 117 524 117 524 248 524 c 0,37,38
 428 524 428 524 434 353 c 1,39,-1
 434 0 l 1,40,-1
 380 0 l 1,41,-1
 380 81 l 1,42,-1
 375 81 l 1,43,44
 358 38 358 38 319 13 c 128,-1,45
 280 -12 280 -12 220 -12 c 0,22,23
228 37 m 0,46,47
 290 37 290 37 333.5 67 c 128,-1,48
 377 97 377 97 377 149 c 2,49,-1
 377 244 l 1,50,-1
 257 244 l 2,51,52
 111 244 111 244 111 152 c 2,53,-1
 111 128 l 2,54,55
 111 83 111 83 143 60 c 128,-1,56
 175 37 175 37 228 37 c 0,46,47
EndSplineSet
EndChar

StartChar: adieresis
Encoding: 228 228 163
Width: 520
Flags: W
LayerCount: 2
Fore
SplineSet
160 627 m 0,0,1
 180 627 180 627 189.5 637 c 128,-1,2
 199 647 199 647 199 663 c 2,3,-1
 199 673 l 2,4,5
 199 689 199 689 189.5 699 c 128,-1,6
 180 709 180 709 160 709 c 0,7,8
 121 709 121 709 121 673 c 2,9,-1
 121 663 l 2,10,11
 121 627 121 627 160 627 c 0,0,1
344 627 m 0,12,13
 383 627 383 627 383 663 c 2,14,-1
 383 673 l 2,15,16
 383 709 383 709 344 709 c 0,17,18
 324 709 324 709 314.5 699 c 128,-1,19
 305 689 305 689 305 673 c 2,20,-1
 305 663 l 2,21,22
 305 647 305 647 314.5 637 c 128,-1,23
 324 627 324 627 344 627 c 0,12,13
220 -12 m 0,24,25
 139 -12 139 -12 95 27.5 c 128,-1,26
 51 67 51 67 51 139 c 0,27,28
 51 287 51 287 259 287 c 2,29,-1
 377 287 l 1,30,-1
 377 347 l 2,31,32
 377 474 377 474 248 474 c 2,33,-1
 246 474 l 2,34,35
 150 474 150 474 106 391 c 1,36,-1
 70 421 l 1,37,38
 117 524 117 524 248 524 c 0,39,40
 428 524 428 524 434 353 c 1,41,-1
 434 0 l 1,42,-1
 380 0 l 1,43,-1
 380 81 l 1,44,-1
 375 81 l 1,45,46
 358 38 358 38 319 13 c 128,-1,47
 280 -12 280 -12 220 -12 c 0,24,25
228 37 m 0,48,49
 290 37 290 37 333.5 67 c 128,-1,50
 377 97 377 97 377 149 c 2,51,-1
 377 244 l 1,52,-1
 257 244 l 2,53,54
 111 244 111 244 111 152 c 2,55,-1
 111 128 l 2,56,57
 111 83 111 83 143 60 c 128,-1,58
 175 37 175 37 228 37 c 0,48,49
EndSplineSet
EndChar

StartChar: aring
Encoding: 229 229 164
Width: 520
Flags: W
LayerCount: 2
Fore
SplineSet
252 581 m 256,0,1
 298 581 298 581 328 610.5 c 128,-1,2
 358 640 358 640 358 687 c 0,3,4
 358 733 358 733 328 762.5 c 128,-1,5
 298 792 298 792 252 792 c 256,6,7
 206 792 206 792 176 762.5 c 128,-1,8
 146 733 146 733 146 687 c 0,9,10
 146 640 146 640 176 610.5 c 128,-1,11
 206 581 206 581 252 581 c 256,0,1
252 618 m 1,12,13
 194 618 194 618 189 678 c 1,14,-1
 189 695 l 2,15,16
 189 754 189 754 252 755 c 0,17,18
 311 755 311 755 315 695 c 1,19,-1
 315 678 l 2,20,21
 315 623 315 623 252 618 c 1,12,13
220 -12 m 0,22,23
 139 -12 139 -12 95 27.5 c 128,-1,24
 51 67 51 67 51 139 c 0,25,26
 51 287 51 287 259 287 c 2,27,-1
 377 287 l 1,28,-1
 377 347 l 2,29,30
 377 474 377 474 248 474 c 2,31,-1
 246 474 l 2,32,33
 150 474 150 474 106 391 c 1,34,-1
 70 421 l 1,35,36
 117 524 117 524 248 524 c 0,37,38
 428 524 428 524 434 353 c 1,39,-1
 434 0 l 1,40,-1
 380 0 l 1,41,-1
 380 81 l 1,42,-1
 375 81 l 1,43,44
 358 38 358 38 319 13 c 128,-1,45
 280 -12 280 -12 220 -12 c 0,22,23
228 37 m 0,46,47
 290 37 290 37 333.5 67 c 128,-1,48
 377 97 377 97 377 149 c 2,49,-1
 377 244 l 1,50,-1
 257 244 l 2,51,52
 111 244 111 244 111 152 c 2,53,-1
 111 128 l 2,54,55
 111 83 111 83 143 60 c 128,-1,56
 175 37 175 37 228 37 c 0,46,47
EndSplineSet
EndChar

StartChar: ae
Encoding: 230 230 165
Width: 863
Flags: W
LayerCount: 2
Fore
SplineSet
226 37 m 0,0,1
 172 37 172 37 140.5 60 c 128,-1,2
 109 83 109 83 109 128 c 2,3,-1
 109 152 l 2,4,5
 109 243 109 243 255 245 c 2,6,-1
 375 245 l 1,7,-1
 375 149 l 2,8,9
 375 97 375 97 331 68 c 0,10,11
 288 37 288 37 226 37 c 0,0,1
749 289 m 1,12,-1
 432 289 l 1,13,14
 432 374 432 374 477 425 c 128,-1,15
 522 476 522 476 595 476 c 0,16,17
 663 476 663 476 707 427 c 0,18,19
 749 377 749 377 749 297 c 2,20,-1
 749 289 l 1,12,-1
602 -12 m 0,21,22
 671 -12 671 -12 721.5 21.5 c 128,-1,23
 772 55 772 55 796 113 c 1,24,-1
 754 140 l 1,25,26
 710 38 710 38 599 38 c 0,27,28
 521 38 521 38 476.5 89.5 c 128,-1,29
 432 141 432 141 432 220 c 2,30,-1
 432 245 l 1,31,-1
 811 245 l 1,32,-1
 811 272 l 2,33,34
 811 385 811 385 753.5 454.5 c 128,-1,35
 696 524 696 524 600 524 c 0,36,37
 527 524 527 524 477.5 486.5 c 128,-1,38
 428 449 428 449 413 401 c 1,39,-1
 409 401 l 1,40,41
 403 447 403 447 366 485 c 0,42,43
 323 524 323 524 247 524 c 0,44,45
 115 524 115 524 68 421 c 1,46,-1
 104 391 l 1,47,48
 125 433 125 433 159 454 c 128,-1,49
 193 475 193 475 246 475 c 0,50,51
 372 475 372 475 375 347 c 2,52,-1
 375 289 l 1,53,-1
 257 289 l 2,54,55
 49 289 49 289 49 137 c 0,56,57
 49 67 49 67 94 27.5 c 128,-1,58
 139 -12 139 -12 217 -12 c 0,59,60
 297 -12 297 -12 346 25.5 c 128,-1,61
 395 63 395 63 406 111 c 1,62,-1
 410 111 l 1,63,64
 425 62 425 62 475 26 c 0,65,66
 524 -12 524 -12 602 -12 c 0,21,22
EndSplineSet
EndChar

StartChar: ccedilla
Encoding: 231 231 166
Width: 496
Flags: W
LayerCount: 2
Fore
SplineSet
284 -205 m 0,0,1
 326 -205 326 -205 355 -184.5 c 128,-1,2
 384 -164 384 -164 384 -127 c 0,3,4
 384 -96 384 -96 364.5 -79.5 c 128,-1,5
 345 -63 345 -63 316 -63 c 0,6,7
 300 -63 300 -63 280 -68 c 1,8,-1
 278 -66 l 1,9,-1
 290 -11 l 1,10,11
 417 0 417 0 462 100 c 1,12,-1
 420 128 l 1,13,14
 375 39 375 39 273 39 c 0,15,16
 195 39 195 39 154 89 c 128,-1,17
 113 139 113 139 113 220 c 2,18,-1
 113 292 l 2,19,20
 113 373 113 373 154 423 c 128,-1,21
 195 473 195 473 273 473 c 0,22,23
 371 473 371 473 407 387 c 1,24,-1
 455 412 l 1,25,26
 405 524 405 524 273 524 c 0,27,28
 167 524 167 524 109.5 454 c 128,-1,29
 52 384 52 384 52 256 c 0,30,31
 52 135 52 135 103.5 66 c 128,-1,32
 155 -3 155 -3 252 -11 c 1,33,-1
 238 -80 l 1,34,-1
 269 -83 l 2,35,36
 308 -88 308 -88 321.5 -98.5 c 128,-1,37
 335 -109 335 -109 335 -126 c 0,38,39
 335 -146 335 -146 320.5 -155.5 c 128,-1,40
 306 -165 306 -165 284 -165 c 0,41,42
 242 -165 242 -165 220 -137 c 1,43,-1
 192 -168 l 1,44,45
 202 -183 202 -183 225 -194 c 128,-1,46
 248 -205 248 -205 284 -205 c 0,0,1
EndSplineSet
EndChar

StartChar: egrave
Encoding: 232 232 167
Width: 543
Flags: W
LayerCount: 2
Fore
SplineSet
276 -12 m 0,0,1
 349 -12 349 -12 400.5 21.5 c 128,-1,2
 452 55 452 55 476 113 c 1,3,-1
 434 141 l 1,4,5
 392 38 392 38 279 38 c 0,6,7
 201 38 201 38 156.5 89.5 c 128,-1,8
 112 141 112 141 112 220 c 2,9,-1
 112 245 l 1,10,-1
 491 245 l 1,11,-1
 491 272 l 2,12,13
 491 385 491 385 432 454.5 c 128,-1,14
 373 524 373 524 275 524 c 0,15,16
 173 524 173 524 112.5 453 c 128,-1,17
 52 382 52 382 52 256 c 256,18,19
 52 130 52 130 113 59 c 128,-1,20
 174 -12 174 -12 276 -12 c 0,0,1
429 289 m 1,21,-1
 112 289 l 1,22,23
 112 374 112 374 157 425 c 128,-1,24
 202 476 202 476 275 476 c 0,25,26
 343 476 343 476 387 427 c 0,27,28
 429 377 429 377 429 297 c 2,29,-1
 429 289 l 1,21,-1
278 586 m 1,30,-1
 316 604 l 1,31,-1
 221 768 l 1,32,-1
 169 742 l 1,33,-1
 278 586 l 1,30,-1
EndSplineSet
EndChar

StartChar: eacute
Encoding: 233 233 168
Width: 543
Flags: W
LayerCount: 2
Fore
SplineSet
276 -12 m 0,0,1
 349 -12 349 -12 400.5 21.5 c 128,-1,2
 452 55 452 55 476 113 c 1,3,-1
 434 141 l 1,4,5
 392 38 392 38 279 38 c 0,6,7
 201 38 201 38 156.5 89.5 c 128,-1,8
 112 141 112 141 112 220 c 2,9,-1
 112 245 l 1,10,-1
 491 245 l 1,11,-1
 491 272 l 2,12,13
 491 385 491 385 432 454.5 c 128,-1,14
 373 524 373 524 275 524 c 0,15,16
 173 524 173 524 112.5 453 c 128,-1,17
 52 382 52 382 52 256 c 256,18,19
 52 130 52 130 113 59 c 128,-1,20
 174 -12 174 -12 276 -12 c 0,0,1
429 289 m 1,21,-1
 112 289 l 1,22,23
 112 374 112 374 157 425 c 128,-1,24
 202 476 202 476 275 476 c 0,25,26
 343 476 343 476 387 427 c 0,27,28
 429 377 429 377 429 297 c 2,29,-1
 429 289 l 1,21,-1
273 586 m 1,30,-1
 383 742 l 1,31,-1
 331 768 l 1,32,-1
 236 604 l 1,33,-1
 273 586 l 1,30,-1
EndSplineSet
EndChar

StartChar: ecircumflex
Encoding: 234 234 169
Width: 543
Flags: W
LayerCount: 2
Fore
SplineSet
276 -12 m 0,0,1
 349 -12 349 -12 400.5 21.5 c 128,-1,2
 452 55 452 55 476 113 c 1,3,-1
 434 141 l 1,4,5
 392 38 392 38 279 38 c 0,6,7
 201 38 201 38 156.5 89.5 c 128,-1,8
 112 141 112 141 112 220 c 2,9,-1
 112 245 l 1,10,-1
 491 245 l 1,11,-1
 491 272 l 2,12,13
 491 385 491 385 432 454.5 c 128,-1,14
 373 524 373 524 275 524 c 0,15,16
 173 524 173 524 112.5 453 c 128,-1,17
 52 382 52 382 52 256 c 256,18,19
 52 130 52 130 113 59 c 128,-1,20
 174 -12 174 -12 276 -12 c 0,0,1
429 289 m 1,21,-1
 112 289 l 1,22,23
 112 374 112 374 157 425 c 128,-1,24
 202 476 202 476 275 476 c 0,25,26
 343 476 343 476 387 427 c 0,27,28
 429 377 429 377 429 297 c 2,29,-1
 429 289 l 1,21,-1
397 594 m 1,30,-1
 429 617 l 1,31,-1
 311 756 l 1,32,-1
 241 756 l 1,33,-1
 123 617 l 1,34,-1
 155 594 l 1,35,-1
 276 715 l 1,36,-1
 397 594 l 1,30,-1
EndSplineSet
EndChar

StartChar: edieresis
Encoding: 235 235 170
Width: 543
Flags: W
LayerCount: 2
Fore
SplineSet
276 -12 m 0,0,1
 349 -12 349 -12 400.5 21.5 c 128,-1,2
 452 55 452 55 476 113 c 1,3,-1
 434 141 l 1,4,5
 392 38 392 38 279 38 c 0,6,7
 201 38 201 38 156.5 89.5 c 128,-1,8
 112 141 112 141 112 220 c 2,9,-1
 112 245 l 1,10,-1
 491 245 l 1,11,-1
 491 272 l 2,12,13
 491 385 491 385 432 454.5 c 128,-1,14
 373 524 373 524 275 524 c 0,15,16
 173 524 173 524 112.5 453 c 128,-1,17
 52 382 52 382 52 256 c 256,18,19
 52 130 52 130 113 59 c 128,-1,20
 174 -12 174 -12 276 -12 c 0,0,1
429 289 m 1,21,-1
 112 289 l 1,22,23
 112 374 112 374 157 425 c 128,-1,24
 202 476 202 476 275 476 c 0,25,26
 343 476 343 476 387 427 c 0,27,28
 429 377 429 377 429 297 c 2,29,-1
 429 289 l 1,21,-1
184 627 m 0,30,31
 204 627 204 627 213.5 637 c 128,-1,32
 223 647 223 647 223 663 c 2,33,-1
 223 673 l 2,34,35
 223 689 223 689 213.5 699 c 128,-1,36
 204 709 204 709 184 709 c 0,37,38
 145 709 145 709 145 673 c 2,39,-1
 145 663 l 2,40,41
 145 627 145 627 184 627 c 0,30,31
368 627 m 0,42,43
 407 627 407 627 407 663 c 2,44,-1
 407 673 l 2,45,46
 407 709 407 709 368 709 c 0,47,48
 348 709 348 709 338.5 699 c 128,-1,49
 329 689 329 689 329 673 c 2,50,-1
 329 663 l 2,51,52
 329 647 329 647 338.5 637 c 128,-1,53
 348 627 348 627 368 627 c 0,42,43
EndSplineSet
EndChar

StartChar: igrave
Encoding: 236 236 171
Width: 243
Flags: W
LayerCount: 2
Fore
SplineSet
150 0 m 1,0,-1
 150 512 l 1,1,-1
 93 512 l 1,2,-1
 93 0 l 1,3,-1
 150 0 l 1,0,-1
124 586 m 1,4,-1
 162 604 l 1,5,-1
 67 768 l 1,6,-1
 15 742 l 1,7,-1
 124 586 l 1,4,-1
EndSplineSet
EndChar

StartChar: iacute
Encoding: 237 237 172
Width: 243
Flags: W
LayerCount: 2
Fore
SplineSet
150 0 m 1,0,-1
 150 512 l 1,1,-1
 93 512 l 1,2,-1
 93 0 l 1,3,-1
 150 0 l 1,0,-1
119 586 m 1,4,-1
 229 742 l 1,5,-1
 177 768 l 1,6,-1
 82 604 l 1,7,-1
 119 586 l 1,4,-1
EndSplineSet
EndChar

StartChar: icircumflex
Encoding: 238 238 173
Width: 243
Flags: W
LayerCount: 2
Fore
SplineSet
150 0 m 1,0,-1
 150 512 l 1,1,-1
 93 512 l 1,2,-1
 93 0 l 1,3,-1
 150 0 l 1,0,-1
243 594 m 1,4,-1
 275 617 l 1,5,-1
 157 756 l 1,6,-1
 87 756 l 1,7,-1
 -31 617 l 1,8,-1
 1 594 l 1,9,-1
 122 715 l 1,10,-1
 243 594 l 1,4,-1
EndSplineSet
EndChar

StartChar: idieresis
Encoding: 239 239 174
Width: 243
Flags: W
LayerCount: 2
Fore
SplineSet
150 0 m 1,0,-1
 150 512 l 1,1,-1
 93 512 l 1,2,-1
 93 0 l 1,3,-1
 150 0 l 1,0,-1
30 627 m 0,4,5
 50 627 50 627 59.5 637 c 128,-1,6
 69 647 69 647 69 663 c 2,7,-1
 69 673 l 2,8,9
 69 689 69 689 59.5 699 c 128,-1,10
 50 709 50 709 30 709 c 0,11,12
 -9 709 -9 709 -9 673 c 2,13,-1
 -9 663 l 2,14,15
 -9 627 -9 627 30 627 c 0,4,5
214 627 m 0,16,17
 253 627 253 627 253 663 c 2,18,-1
 253 673 l 2,19,20
 253 709 253 709 214 709 c 0,21,22
 194 709 194 709 184.5 699 c 128,-1,23
 175 689 175 689 175 673 c 2,24,-1
 175 663 l 2,25,26
 175 647 175 647 184.5 637 c 128,-1,27
 194 627 194 627 214 627 c 0,16,17
EndSplineSet
EndChar

StartChar: eth
Encoding: 240 240 175
Width: 551
Flags: W
LayerCount: 2
Fore
SplineSet
274 -12 m 0,0,1
 372 -12 372 -12 433.5 58.5 c 128,-1,2
 495 129 495 129 495 262 c 0,3,4
 495 383 495 383 442 493 c 0,5,6
 392 594 392 594 323 658 c 1,7,-1
 413 722 l 1,8,-1
 389 753 l 1,9,-1
 293 684 l 1,10,11
 255 719 255 719 218 740 c 1,12,-1
 129 740 l 1,13,14
 196 703 196 703 253 655 c 1,15,-1
 169 595 l 1,16,-1
 192 564 l 1,17,-1
 282 629 l 1,18,19
 382 541 382 541 421 416 c 1,20,-1
 417 414 l 1,21,22
 375 502 375 502 274 502 c 0,23,24
 172 502 172 502 112 432.5 c 128,-1,25
 52 363 52 363 52 247 c 0,26,27
 52 129 52 129 112 58.5 c 128,-1,28
 172 -12 172 -12 274 -12 c 0,0,1
274 37 m 256,29,30
 202 37 202 37 158 85 c 128,-1,31
 114 133 114 133 114 215 c 2,32,-1
 114 275 l 2,33,34
 114 358 114 358 158 405.5 c 128,-1,35
 202 453 202 453 274 453 c 256,36,37
 346 453 346 453 390 405.5 c 128,-1,38
 434 358 434 358 434 275 c 2,39,-1
 434 215 l 2,40,41
 434 133 434 133 390 85 c 128,-1,42
 346 37 346 37 274 37 c 256,29,30
EndSplineSet
EndChar

StartChar: ntilde
Encoding: 241 241 176
Width: 563
Flags: W
LayerCount: 2
Fore
SplineSet
477 0 m 1,0,-1
 477 329 l 2,1,2
 477 423 477 423 431.5 473.5 c 128,-1,3
 386 524 386 524 304 524 c 0,4,5
 191 524 191 524 153 431 c 1,6,-1
 150 431 l 1,7,-1
 150 512 l 1,8,-1
 93 512 l 1,9,-1
 93 0 l 1,10,-1
 150 0 l 1,11,-1
 150 360 l 2,12,13
 150 416 150 416 192.5 444.5 c 128,-1,14
 235 473 235 473 289 473 c 0,15,16
 420 473 420 473 420 319 c 2,17,-1
 420 0 l 1,18,-1
 477 0 l 1,0,-1
359 618 m 0,19,20
 412 618 412 618 448 666 c 1,21,-1
 423 695 l 1,22,23
 408 681 408 681 393.5 673 c 128,-1,24
 379 665 379 665 362 665 c 0,25,26
 348 665 348 665 332.5 670.5 c 128,-1,27
 317 676 317 676 295.5 689 c 128,-1,28
 274 702 274 702 256 710 c 128,-1,29
 238 718 238 718 215 718 c 0,30,31
 162 718 162 718 126 670 c 1,32,-1
 151 641 l 1,33,34
 166 655 166 655 180.5 663 c 128,-1,35
 195 671 195 671 212 671 c 0,36,37
 226 671 226 671 241.5 665.5 c 128,-1,38
 257 660 257 660 278.5 647 c 128,-1,39
 300 634 300 634 318 626 c 128,-1,40
 336 618 336 618 359 618 c 0,19,20
EndSplineSet
EndChar

StartChar: ograve
Encoding: 242 242 177
Width: 550
Flags: W
LayerCount: 2
Fore
SplineSet
275 -12 m 256,0,1
 377 -12 377 -12 437.5 59 c 128,-1,2
 498 130 498 130 498 256 c 256,3,4
 498 382 498 382 437.5 453 c 128,-1,5
 377 524 377 524 275 524 c 256,6,7
 173 524 173 524 112.5 453 c 128,-1,8
 52 382 52 382 52 256 c 256,9,10
 52 130 52 130 112.5 59 c 128,-1,11
 173 -12 173 -12 275 -12 c 256,0,1
275 39 m 256,12,13
 200 39 200 39 156.5 86.5 c 128,-1,14
 113 134 113 134 113 224 c 2,15,-1
 113 288 l 2,16,17
 113 379 113 379 156.5 426 c 128,-1,18
 200 473 200 473 275 473 c 256,19,20
 350 473 350 473 393.5 425.5 c 128,-1,21
 437 378 437 378 437 288 c 2,22,-1
 437 224 l 2,23,24
 437 133 437 133 393.5 86 c 128,-1,25
 350 39 350 39 275 39 c 256,12,13
278 586 m 1,26,-1
 316 604 l 1,27,-1
 221 768 l 1,28,-1
 169 742 l 1,29,-1
 278 586 l 1,26,-1
EndSplineSet
EndChar

StartChar: oacute
Encoding: 243 243 178
Width: 550
Flags: W
LayerCount: 2
Fore
SplineSet
275 -12 m 256,0,1
 377 -12 377 -12 437.5 59 c 128,-1,2
 498 130 498 130 498 256 c 256,3,4
 498 382 498 382 437.5 453 c 128,-1,5
 377 524 377 524 275 524 c 256,6,7
 173 524 173 524 112.5 453 c 128,-1,8
 52 382 52 382 52 256 c 256,9,10
 52 130 52 130 112.5 59 c 128,-1,11
 173 -12 173 -12 275 -12 c 256,0,1
275 39 m 256,12,13
 200 39 200 39 156.5 86.5 c 128,-1,14
 113 134 113 134 113 224 c 2,15,-1
 113 288 l 2,16,17
 113 379 113 379 156.5 426 c 128,-1,18
 200 473 200 473 275 473 c 256,19,20
 350 473 350 473 393.5 425.5 c 128,-1,21
 437 378 437 378 437 288 c 2,22,-1
 437 224 l 2,23,24
 437 133 437 133 393.5 86 c 128,-1,25
 350 39 350 39 275 39 c 256,12,13
273 586 m 1,26,-1
 383 742 l 1,27,-1
 331 768 l 1,28,-1
 236 604 l 1,29,-1
 273 586 l 1,26,-1
EndSplineSet
EndChar

StartChar: ocircumflex
Encoding: 244 244 179
Width: 550
Flags: W
LayerCount: 2
Fore
SplineSet
275 -12 m 256,0,1
 377 -12 377 -12 437.5 59 c 128,-1,2
 498 130 498 130 498 256 c 256,3,4
 498 382 498 382 437.5 453 c 128,-1,5
 377 524 377 524 275 524 c 256,6,7
 173 524 173 524 112.5 453 c 128,-1,8
 52 382 52 382 52 256 c 256,9,10
 52 130 52 130 112.5 59 c 128,-1,11
 173 -12 173 -12 275 -12 c 256,0,1
275 39 m 256,12,13
 200 39 200 39 156.5 86.5 c 128,-1,14
 113 134 113 134 113 224 c 2,15,-1
 113 288 l 2,16,17
 113 379 113 379 156.5 426 c 128,-1,18
 200 473 200 473 275 473 c 256,19,20
 350 473 350 473 393.5 425.5 c 128,-1,21
 437 378 437 378 437 288 c 2,22,-1
 437 224 l 2,23,24
 437 133 437 133 393.5 86 c 128,-1,25
 350 39 350 39 275 39 c 256,12,13
397 594 m 1,26,-1
 429 617 l 1,27,-1
 311 756 l 1,28,-1
 241 756 l 1,29,-1
 123 617 l 1,30,-1
 155 594 l 1,31,-1
 276 715 l 1,32,-1
 397 594 l 1,26,-1
EndSplineSet
EndChar

StartChar: otilde
Encoding: 245 245 180
Width: 550
Flags: W
LayerCount: 2
Fore
SplineSet
275 -12 m 256,0,1
 377 -12 377 -12 437.5 59 c 128,-1,2
 498 130 498 130 498 256 c 256,3,4
 498 382 498 382 437.5 453 c 128,-1,5
 377 524 377 524 275 524 c 256,6,7
 173 524 173 524 112.5 453 c 128,-1,8
 52 382 52 382 52 256 c 256,9,10
 52 130 52 130 112.5 59 c 128,-1,11
 173 -12 173 -12 275 -12 c 256,0,1
275 39 m 256,12,13
 200 39 200 39 156.5 86.5 c 128,-1,14
 113 134 113 134 113 224 c 2,15,-1
 113 288 l 2,16,17
 113 379 113 379 156.5 426 c 128,-1,18
 200 473 200 473 275 473 c 256,19,20
 350 473 350 473 393.5 425.5 c 128,-1,21
 437 378 437 378 437 288 c 2,22,-1
 437 224 l 2,23,24
 437 133 437 133 393.5 86 c 128,-1,25
 350 39 350 39 275 39 c 256,12,13
348 618 m 0,26,27
 401 618 401 618 437 666 c 1,28,-1
 412 695 l 1,29,30
 397 681 397 681 382.5 673 c 128,-1,31
 368 665 368 665 351 665 c 0,32,33
 337 665 337 665 321.5 670.5 c 128,-1,34
 306 676 306 676 284.5 689 c 128,-1,35
 263 702 263 702 245 710 c 128,-1,36
 227 718 227 718 204 718 c 0,37,38
 151 718 151 718 115 670 c 1,39,-1
 140 641 l 1,40,41
 155 655 155 655 169.5 663 c 128,-1,42
 184 671 184 671 201 671 c 0,43,44
 215 671 215 671 230.5 665.5 c 128,-1,45
 246 660 246 660 267.5 647 c 128,-1,46
 289 634 289 634 307 626 c 128,-1,47
 325 618 325 618 348 618 c 0,26,27
EndSplineSet
EndChar

StartChar: odieresis
Encoding: 246 246 181
Width: 550
Flags: W
LayerCount: 2
Fore
SplineSet
275 -12 m 256,0,1
 377 -12 377 -12 437.5 59 c 128,-1,2
 498 130 498 130 498 256 c 256,3,4
 498 382 498 382 437.5 453 c 128,-1,5
 377 524 377 524 275 524 c 256,6,7
 173 524 173 524 112.5 453 c 128,-1,8
 52 382 52 382 52 256 c 256,9,10
 52 130 52 130 112.5 59 c 128,-1,11
 173 -12 173 -12 275 -12 c 256,0,1
275 39 m 256,12,13
 200 39 200 39 156.5 86.5 c 128,-1,14
 113 134 113 134 113 224 c 2,15,-1
 113 288 l 2,16,17
 113 379 113 379 156.5 426 c 128,-1,18
 200 473 200 473 275 473 c 256,19,20
 350 473 350 473 393.5 425.5 c 128,-1,21
 437 378 437 378 437 288 c 2,22,-1
 437 224 l 2,23,24
 437 133 437 133 393.5 86 c 128,-1,25
 350 39 350 39 275 39 c 256,12,13
184 627 m 0,26,27
 204 627 204 627 213.5 637 c 128,-1,28
 223 647 223 647 223 663 c 2,29,-1
 223 673 l 2,30,31
 223 689 223 689 213.5 699 c 128,-1,32
 204 709 204 709 184 709 c 0,33,34
 145 709 145 709 145 673 c 2,35,-1
 145 663 l 2,36,37
 145 627 145 627 184 627 c 0,26,27
368 627 m 0,38,39
 407 627 407 627 407 663 c 2,40,-1
 407 673 l 2,41,42
 407 709 407 709 368 709 c 0,43,44
 348 709 348 709 338.5 699 c 128,-1,45
 329 689 329 689 329 673 c 2,46,-1
 329 663 l 2,47,48
 329 647 329 647 338.5 637 c 128,-1,49
 348 627 348 627 368 627 c 0,38,39
EndSplineSet
EndChar

StartChar: divide
Encoding: 247 247 182
Width: 600
Flags: W
LayerCount: 2
Fore
SplineSet
535 281 m 1,0,-1
 535 330 l 1,1,-1
 65 330 l 1,2,-1
 65 281 l 1,3,-1
 535 281 l 1,0,-1
300 63 m 256,4,5
 351 63 351 63 351 103 c 2,6,-1
 351 120 l 2,7,8
 351 159 351 159 300 159 c 256,9,10
 249 159 249 159 249 120 c 2,11,-1
 249 103 l 2,12,13
 249 63 249 63 300 63 c 256,4,5
300 451 m 256,14,15
 351 451 351 451 351 491 c 2,16,-1
 351 507 l 2,17,18
 351 547 351 547 300 547 c 256,19,20
 249 547 249 547 249 507 c 2,21,-1
 249 491 l 2,22,23
 249 451 249 451 300 451 c 256,14,15
EndSplineSet
EndChar

StartChar: oslash
Encoding: 248 248 183
Width: 556
Flags: W
LayerCount: 2
Fore
SplineSet
69 -35 m 1,0,-1
 131 43 l 1,1,2
 190 -12 190 -12 278 -12 c 0,3,4
 380 -12 380 -12 440.5 59 c 128,-1,5
 501 130 501 130 501 256 c 0,6,7
 501 370 501 370 451 439 c 1,8,-1
 521 526 l 1,9,-1
 489 551 l 1,10,-1
 424 470 l 1,11,12
 365 524 365 524 278 524 c 0,13,14
 176 524 176 524 115.5 453 c 128,-1,15
 55 382 55 382 55 256 c 0,16,17
 55 142 55 142 104 74 c 1,18,-1
 36 -10 l 1,19,-1
 69 -35 l 1,0,-1
278 39 m 0,20,21
 206 39 206 39 164 83 c 1,22,-1
 416 396 l 1,23,24
 440 354 440 354 440 288 c 2,25,-1
 440 224 l 2,26,27
 440 133 440 133 396.5 86 c 128,-1,28
 353 39 353 39 278 39 c 0,20,21
139 117 m 1,29,30
 116 161 116 161 116 224 c 2,31,-1
 116 288 l 2,32,33
 116 379 116 379 159.5 426 c 128,-1,34
 203 473 203 473 278 473 c 0,35,36
 350 473 350 473 391 430 c 1,37,-1
 139 117 l 1,29,30
EndSplineSet
EndChar

StartChar: ugrave
Encoding: 249 249 184
Width: 563
Flags: W
LayerCount: 2
Fore
SplineSet
260 -12 m 0,0,1
 320 -12 320 -12 360 17 c 0,2,3
 396 43 396 43 409 81 c 1,4,-1
 413 81 l 1,5,-1
 413 0 l 1,6,-1
 470 0 l 1,7,-1
 470 512 l 1,8,-1
 413 512 l 1,9,-1
 413 153 l 2,10,11
 413 95 413 95 371 67 c 128,-1,12
 329 39 329 39 275 39 c 0,13,14
 143 39 143 39 143 194 c 2,15,-1
 143 512 l 1,16,-1
 86 512 l 1,17,-1
 86 183 l 2,18,19
 86 89 86 89 132 38.5 c 128,-1,20
 178 -12 178 -12 260 -12 c 0,0,1
281 586 m 1,21,-1
 319 604 l 1,22,-1
 224 768 l 1,23,-1
 172 742 l 1,24,-1
 281 586 l 1,21,-1
EndSplineSet
EndChar

StartChar: uacute
Encoding: 250 250 185
Width: 563
Flags: W
LayerCount: 2
Fore
SplineSet
260 -12 m 0,0,1
 320 -12 320 -12 360 17 c 0,2,3
 396 43 396 43 409 81 c 1,4,-1
 413 81 l 1,5,-1
 413 0 l 1,6,-1
 470 0 l 1,7,-1
 470 512 l 1,8,-1
 413 512 l 1,9,-1
 413 153 l 2,10,11
 413 95 413 95 371 67 c 128,-1,12
 329 39 329 39 275 39 c 0,13,14
 143 39 143 39 143 194 c 2,15,-1
 143 512 l 1,16,-1
 86 512 l 1,17,-1
 86 183 l 2,18,19
 86 89 86 89 132 38.5 c 128,-1,20
 178 -12 178 -12 260 -12 c 0,0,1
276 586 m 1,21,-1
 386 742 l 1,22,-1
 334 768 l 1,23,-1
 239 604 l 1,24,-1
 276 586 l 1,21,-1
EndSplineSet
EndChar

StartChar: ucircumflex
Encoding: 251 251 186
Width: 563
Flags: W
LayerCount: 2
Fore
SplineSet
260 -12 m 0,0,1
 320 -12 320 -12 360 17 c 0,2,3
 396 43 396 43 409 81 c 1,4,-1
 413 81 l 1,5,-1
 413 0 l 1,6,-1
 470 0 l 1,7,-1
 470 512 l 1,8,-1
 413 512 l 1,9,-1
 413 153 l 2,10,11
 413 95 413 95 371 67 c 128,-1,12
 329 39 329 39 275 39 c 0,13,14
 143 39 143 39 143 194 c 2,15,-1
 143 512 l 1,16,-1
 86 512 l 1,17,-1
 86 183 l 2,18,19
 86 89 86 89 132 38.5 c 128,-1,20
 178 -12 178 -12 260 -12 c 0,0,1
400 594 m 1,21,-1
 432 617 l 1,22,-1
 314 756 l 1,23,-1
 244 756 l 1,24,-1
 126 617 l 1,25,-1
 158 594 l 1,26,-1
 279 715 l 1,27,-1
 400 594 l 1,21,-1
EndSplineSet
EndChar

StartChar: udieresis
Encoding: 252 252 187
Width: 563
Flags: W
LayerCount: 2
Fore
SplineSet
260 -12 m 0,0,1
 320 -12 320 -12 360 17 c 0,2,3
 396 43 396 43 409 81 c 1,4,-1
 413 81 l 1,5,-1
 413 0 l 1,6,-1
 470 0 l 1,7,-1
 470 512 l 1,8,-1
 413 512 l 1,9,-1
 413 153 l 2,10,11
 413 95 413 95 371 67 c 128,-1,12
 329 39 329 39 275 39 c 0,13,14
 143 39 143 39 143 194 c 2,15,-1
 143 512 l 1,16,-1
 86 512 l 1,17,-1
 86 183 l 2,18,19
 86 89 86 89 132 38.5 c 128,-1,20
 178 -12 178 -12 260 -12 c 0,0,1
187 627 m 0,21,22
 207 627 207 627 216.5 637 c 128,-1,23
 226 647 226 647 226 663 c 2,24,-1
 226 673 l 2,25,26
 226 689 226 689 216.5 699 c 128,-1,27
 207 709 207 709 187 709 c 0,28,29
 148 709 148 709 148 673 c 2,30,-1
 148 663 l 2,31,32
 148 627 148 627 187 627 c 0,21,22
371 627 m 0,33,34
 410 627 410 627 410 663 c 2,35,-1
 410 673 l 2,36,37
 410 709 410 709 371 709 c 0,38,39
 351 709 351 709 341.5 699 c 128,-1,40
 332 689 332 689 332 673 c 2,41,-1
 332 663 l 2,42,43
 332 647 332 647 341.5 637 c 128,-1,44
 351 627 351 627 371 627 c 0,33,34
EndSplineSet
EndChar

StartChar: yacute
Encoding: 253 253 188
Width: 481
Flags: W
LayerCount: 2
Fore
SplineSet
135 -200 m 2,0,1
 174 -200 174 -200 191.5 -188 c 128,-1,2
 209 -176 209 -176 220 -144 c 2,3,-1
 457 512 l 1,4,-1
 399 512 l 1,5,-1
 243 61 l 1,6,-1
 239 61 l 1,7,-1
 82 512 l 1,8,-1
 22 512 l 1,9,-1
 212 -15 l 1,10,-1
 163 -150 l 1,11,-1
 77 -150 l 1,12,-1
 77 -200 l 1,13,-1
 135 -200 l 2,0,1
239 586 m 1,14,-1
 349 742 l 1,15,-1
 297 768 l 1,16,-1
 202 604 l 1,17,-1
 239 586 l 1,14,-1
EndSplineSet
EndChar

StartChar: thorn
Encoding: 254 254 189
Width: 574
Flags: W
LayerCount: 2
Fore
SplineSet
150 -200 m 1,0,-1
 150 82 l 1,1,-1
 153 82 l 1,2,3
 198 -12 198 -12 309 -12 c 0,4,5
 408 -12 408 -12 464 58 c 128,-1,6
 520 128 520 128 520 256 c 256,7,8
 520 384 520 384 464 454 c 128,-1,9
 408 524 408 524 309 524 c 0,10,11
 250 524 250 524 211 498.5 c 128,-1,12
 172 473 172 473 153 430 c 1,13,-1
 150 430 l 1,14,-1
 150 740 l 1,15,-1
 93 740 l 1,16,-1
 93 -200 l 1,17,-1
 150 -200 l 1,0,-1
296 39 m 0,18,19
 236 39 236 39 193 70.5 c 128,-1,20
 150 102 150 102 150 156 c 2,21,-1
 150 359 l 2,22,23
 150 409 150 409 193 441 c 128,-1,24
 236 473 236 473 296 473 c 0,25,26
 373 473 373 473 416 424 c 128,-1,27
 459 375 459 375 459 292 c 2,28,-1
 459 220 l 2,29,30
 459 137 459 137 416 88 c 128,-1,31
 373 39 373 39 296 39 c 0,18,19
EndSplineSet
EndChar

StartChar: ydieresis
Encoding: 255 255 190
Width: 481
Flags: W
LayerCount: 2
Fore
SplineSet
135 -200 m 2,0,1
 174 -200 174 -200 191.5 -188 c 128,-1,2
 209 -176 209 -176 220 -144 c 2,3,-1
 457 512 l 1,4,-1
 399 512 l 1,5,-1
 243 61 l 1,6,-1
 239 61 l 1,7,-1
 82 512 l 1,8,-1
 22 512 l 1,9,-1
 212 -15 l 1,10,-1
 163 -150 l 1,11,-1
 77 -150 l 1,12,-1
 77 -200 l 1,13,-1
 135 -200 l 2,0,1
150 627 m 0,14,15
 170 627 170 627 179.5 637 c 128,-1,16
 189 647 189 647 189 663 c 2,17,-1
 189 673 l 2,18,19
 189 689 189 689 179.5 699 c 128,-1,20
 170 709 170 709 150 709 c 0,21,22
 111 709 111 709 111 673 c 2,23,-1
 111 663 l 2,24,25
 111 627 111 627 150 627 c 0,14,15
334 627 m 0,26,27
 373 627 373 627 373 663 c 2,28,-1
 373 673 l 2,29,30
 373 709 373 709 334 709 c 0,31,32
 314 709 314 709 304.5 699 c 128,-1,33
 295 689 295 689 295 673 c 2,34,-1
 295 663 l 2,35,36
 295 647 295 647 304.5 637 c 128,-1,37
 314 627 314 627 334 627 c 0,26,27
EndSplineSet
EndChar

StartChar: Amacron
Encoding: 256 256 191
Width: 625
Flags: W
LayerCount: 2
Fore
SplineSet
599 0 m 1,0,-1
 351 698 l 1,1,-1
 274 698 l 1,2,-1
 27 0 l 1,3,-1
 87 0 l 1,4,-1
 163 217 l 1,5,-1
 460 217 l 1,6,-1
 536 0 l 1,7,-1
 599 0 l 1,0,-1
444 269 m 1,8,-1
 178 269 l 1,9,-1
 309 641 l 1,10,-1
 313 641 l 1,11,-1
 444 269 l 1,8,-1
449 819 m 1,12,-1
 449 868 l 1,13,-1
 177 868 l 1,14,-1
 177 819 l 1,15,-1
 449 819 l 1,12,-1
EndSplineSet
EndChar

StartChar: amacron
Encoding: 257 257 192
Width: 520
Flags: W
LayerCount: 2
Fore
SplineSet
388 645 m 1,0,-1
 388 694 l 1,1,-1
 116 694 l 1,2,-1
 116 645 l 1,3,-1
 388 645 l 1,0,-1
220 -12 m 0,4,5
 139 -12 139 -12 95 27.5 c 128,-1,6
 51 67 51 67 51 139 c 0,7,8
 51 287 51 287 259 287 c 2,9,-1
 377 287 l 1,10,-1
 377 347 l 2,11,12
 377 474 377 474 248 474 c 2,13,-1
 246 474 l 2,14,15
 150 474 150 474 106 391 c 1,16,-1
 70 421 l 1,17,18
 117 524 117 524 248 524 c 0,19,20
 428 524 428 524 434 353 c 1,21,-1
 434 0 l 1,22,-1
 380 0 l 1,23,-1
 380 81 l 1,24,-1
 375 81 l 1,25,26
 358 38 358 38 319 13 c 128,-1,27
 280 -12 280 -12 220 -12 c 0,4,5
228 37 m 0,28,29
 290 37 290 37 333.5 67 c 128,-1,30
 377 97 377 97 377 149 c 2,31,-1
 377 244 l 1,32,-1
 257 244 l 2,33,34
 111 244 111 244 111 152 c 2,35,-1
 111 128 l 2,36,37
 111 83 111 83 143 60 c 128,-1,38
 175 37 175 37 228 37 c 0,28,29
EndSplineSet
EndChar

StartChar: Abreve
Encoding: 258 258 193
Width: 625
Flags: W
LayerCount: 2
Fore
SplineSet
599 0 m 1,0,-1
 351 698 l 1,1,-1
 274 698 l 1,2,-1
 27 0 l 1,3,-1
 87 0 l 1,4,-1
 163 217 l 1,5,-1
 460 217 l 1,6,-1
 536 0 l 1,7,-1
 599 0 l 1,0,-1
444 269 m 1,8,-1
 178 269 l 1,9,-1
 309 641 l 1,10,-1
 313 641 l 1,11,-1
 444 269 l 1,8,-1
313 774 m 0,12,13
 347 774 347 774 371 784 c 0,14,15
 426 808 426 808 457 896 c 1,16,-1
 424 912 l 1,17,-1
 405 881 l 2,18,19
 387 849 387 849 368 834.5 c 128,-1,20
 349 820 349 820 313 820 c 256,21,22
 277 820 277 820 258 834.5 c 128,-1,23
 239 849 239 849 221 881 c 2,24,-1
 202 912 l 1,25,-1
 169 896 l 1,26,27
 186 848 186 848 218 811 c 128,-1,28
 250 774 250 774 313 774 c 0,12,13
EndSplineSet
EndChar

StartChar: abreve
Encoding: 259 259 194
Width: 520
Flags: W
LayerCount: 2
Fore
SplineSet
252 600 m 0,0,1
 286 600 286 600 310 610 c 0,2,3
 365 634 365 634 396 722 c 1,4,-1
 363 738 l 1,5,-1
 344 707 l 2,6,7
 326 675 326 675 307 660.5 c 128,-1,8
 288 646 288 646 252 646 c 256,9,10
 216 646 216 646 197 660.5 c 128,-1,11
 178 675 178 675 160 707 c 2,12,-1
 141 738 l 1,13,-1
 108 722 l 1,14,15
 125 674 125 674 157 637 c 128,-1,16
 189 600 189 600 252 600 c 0,0,1
220 -12 m 0,17,18
 139 -12 139 -12 95 27.5 c 128,-1,19
 51 67 51 67 51 139 c 0,20,21
 51 287 51 287 259 287 c 2,22,-1
 377 287 l 1,23,-1
 377 347 l 2,24,25
 377 474 377 474 248 474 c 2,26,-1
 246 474 l 2,27,28
 150 474 150 474 106 391 c 1,29,-1
 70 421 l 1,30,31
 117 524 117 524 248 524 c 0,32,33
 428 524 428 524 434 353 c 1,34,-1
 434 0 l 1,35,-1
 380 0 l 1,36,-1
 380 81 l 1,37,-1
 375 81 l 1,38,39
 358 38 358 38 319 13 c 128,-1,40
 280 -12 280 -12 220 -12 c 0,17,18
228 37 m 0,41,42
 290 37 290 37 333.5 67 c 128,-1,43
 377 97 377 97 377 149 c 2,44,-1
 377 244 l 1,45,-1
 257 244 l 2,46,47
 111 244 111 244 111 152 c 2,48,-1
 111 128 l 2,49,50
 111 83 111 83 143 60 c 128,-1,51
 175 37 175 37 228 37 c 0,41,42
EndSplineSet
EndChar

StartChar: Aogonek
Encoding: 260 260 195
Width: 625
Flags: W
LayerCount: 2
Fore
SplineSet
538 -205 m 0,0,1
 598 -205 598 -205 621 -169 c 1,2,-1
 591 -141 l 1,3,4
 574 -165 574 -165 538 -165 c 0,5,6
 496 -165 496 -165 496 -127 c 0,7,8
 496 -103 496 -103 518 -75.5 c 128,-1,9
 540 -48 540 -48 599 0 c 1,10,-1
 351 698 l 1,11,-1
 274 698 l 1,12,-1
 27 0 l 1,13,-1
 87 0 l 1,14,-1
 163 217 l 1,15,-1
 460 217 l 1,16,-1
 536 0 l 1,17,-1
 552 0 l 1,18,-1
 553 -2 l 1,19,20
 503 -34 503 -34 476 -65.5 c 128,-1,21
 449 -97 449 -97 449 -132 c 0,22,23
 449 -169 449 -169 474.5 -187 c 128,-1,24
 500 -205 500 -205 538 -205 c 0,0,1
445 269 m 1,25,-1
 178 269 l 1,26,-1
 309 641 l 1,27,-1
 313 641 l 1,28,-1
 445 269 l 1,25,-1
EndSplineSet
EndChar

StartChar: aogonek
Encoding: 261 261 196
Width: 520
Flags: W
LayerCount: 2
Fore
SplineSet
381 -205 m 0,0,1
 343 -205 343 -205 317.5 -187 c 128,-1,2
 292 -169 292 -169 292 -132 c 256,3,4
 292 -95 292 -95 319 -64.5 c 128,-1,5
 346 -34 346 -34 389 -2 c 1,6,-1
 388 0 l 1,7,-1
 380 0 l 1,8,-1
 380 81 l 1,9,-1
 375 81 l 1,10,11
 358 38 358 38 319 13 c 128,-1,12
 280 -12 280 -12 220 -12 c 0,13,14
 139 -12 139 -12 95 27.5 c 128,-1,15
 51 67 51 67 51 139 c 0,16,17
 51 287 51 287 259 287 c 2,18,-1
 377 287 l 1,19,-1
 377 347 l 2,20,21
 377 474 377 474 248 474 c 2,22,-1
 246 474 l 2,23,24
 150 474 150 474 106 391 c 1,25,-1
 70 421 l 1,26,27
 117 524 117 524 248 524 c 0,28,29
 428 524 428 524 434 353 c 1,30,-1
 434 0 l 1,31,32
 379 -50 379 -50 359 -76 c 128,-1,33
 339 -102 339 -102 339 -126 c 0,34,35
 339 -165 339 -165 381 -165 c 0,36,37
 417 -165 417 -165 434 -141 c 1,38,-1
 464 -169 l 1,39,40
 440 -205 440 -205 381 -205 c 0,0,1
228 37 m 0,41,42
 290 37 290 37 333.5 67 c 128,-1,43
 377 97 377 97 377 149 c 2,44,-1
 377 244 l 1,45,-1
 257 244 l 2,46,47
 111 244 111 244 111 152 c 2,48,-1
 111 128 l 2,49,50
 111 83 111 83 143 60 c 128,-1,51
 175 37 175 37 228 37 c 0,41,42
EndSplineSet
EndChar

StartChar: Cacute
Encoding: 262 262 197
Width: 617
Flags: W
LayerCount: 2
Fore
SplineSet
335 -12 m 0,0,1
 420 -12 420 -12 480 29.5 c 128,-1,2
 540 71 540 71 571 144 c 1,3,-1
 522 173 l 1,4,5
 499 112 499 112 452 77 c 128,-1,6
 405 42 405 42 335 42 c 0,7,8
 237 42 237 42 182 110 c 128,-1,9
 127 178 127 178 127 307 c 2,10,-1
 127 386 l 2,11,12
 127 516 127 516 182 586 c 128,-1,13
 237 656 237 656 335 656 c 0,14,15
 401 656 401 656 447.5 623 c 128,-1,16
 494 590 494 590 517 532 c 1,17,-1
 566 561 l 1,18,19
 534 631 534 631 476.5 670.5 c 128,-1,20
 419 710 419 710 335 710 c 0,21,22
 205 710 205 710 134 617 c 128,-1,23
 63 524 63 524 63 347 c 0,24,25
 63 169 63 169 134 78.5 c 128,-1,26
 205 -12 205 -12 335 -12 c 0,0,1
331 760 m 1,27,-1
 441 916 l 1,28,-1
 389 942 l 1,29,-1
 294 778 l 1,30,-1
 331 760 l 1,27,-1
EndSplineSet
EndChar

StartChar: cacute
Encoding: 263 263 198
Width: 497
Flags: W
LayerCount: 2
Fore
SplineSet
273 -12 m 0,0,1
 409 -12 409 -12 462 100 c 1,2,-1
 420 128 l 1,3,4
 375 39 375 39 273 39 c 0,5,6
 195 39 195 39 154 89 c 128,-1,7
 113 139 113 139 113 220 c 2,8,-1
 113 292 l 2,9,10
 113 373 113 373 154 423 c 128,-1,11
 195 473 195 473 273 473 c 0,12,13
 371 473 371 473 407 387 c 1,14,-1
 455 411 l 1,15,16
 405 524 405 524 273 524 c 0,17,18
 167 524 167 524 109.5 454 c 128,-1,19
 52 384 52 384 52 256 c 256,20,21
 52 128 52 128 109.5 58 c 128,-1,22
 167 -12 167 -12 273 -12 c 0,0,1
272 586 m 1,23,-1
 382 742 l 1,24,-1
 330 768 l 1,25,-1
 235 604 l 1,26,-1
 272 586 l 1,23,-1
EndSplineSet
EndChar

StartChar: Ccircumflex
Encoding: 264 264 199
Width: 617
Flags: W
LayerCount: 2
Fore
SplineSet
335 -12 m 0,0,1
 420 -12 420 -12 480 29.5 c 128,-1,2
 540 71 540 71 571 144 c 1,3,-1
 522 173 l 1,4,5
 499 112 499 112 452 77 c 128,-1,6
 405 42 405 42 335 42 c 0,7,8
 237 42 237 42 182 110 c 128,-1,9
 127 178 127 178 127 307 c 2,10,-1
 127 386 l 2,11,12
 127 516 127 516 182 586 c 128,-1,13
 237 656 237 656 335 656 c 0,14,15
 401 656 401 656 447.5 623 c 128,-1,16
 494 590 494 590 517 532 c 1,17,-1
 566 561 l 1,18,19
 534 631 534 631 476.5 670.5 c 128,-1,20
 419 710 419 710 335 710 c 0,21,22
 205 710 205 710 134 617 c 128,-1,23
 63 524 63 524 63 347 c 0,24,25
 63 169 63 169 134 78.5 c 128,-1,26
 205 -12 205 -12 335 -12 c 0,0,1
455 768 m 1,27,-1
 487 791 l 1,28,-1
 369 930 l 1,29,-1
 299 930 l 1,30,-1
 181 791 l 1,31,-1
 213 768 l 1,32,-1
 334 888 l 1,33,-1
 455 768 l 1,27,-1
EndSplineSet
EndChar

StartChar: ccircumflex
Encoding: 265 265 200
Width: 497
Flags: W
LayerCount: 2
Fore
SplineSet
273 -12 m 0,0,1
 409 -12 409 -12 462 100 c 1,2,-1
 420 128 l 1,3,4
 375 39 375 39 273 39 c 0,5,6
 195 39 195 39 154 89 c 128,-1,7
 113 139 113 139 113 220 c 2,8,-1
 113 292 l 2,9,10
 113 373 113 373 154 423 c 128,-1,11
 195 473 195 473 273 473 c 0,12,13
 371 473 371 473 407 387 c 1,14,-1
 455 411 l 1,15,16
 405 524 405 524 273 524 c 0,17,18
 167 524 167 524 109.5 454 c 128,-1,19
 52 384 52 384 52 256 c 256,20,21
 52 128 52 128 109.5 58 c 128,-1,22
 167 -12 167 -12 273 -12 c 0,0,1
396 594 m 1,23,-1
 428 617 l 1,24,-1
 310 756 l 1,25,-1
 240 756 l 1,26,-1
 122 617 l 1,27,-1
 154 594 l 1,28,-1
 275 715 l 1,29,-1
 396 594 l 1,23,-1
EndSplineSet
EndChar

StartChar: Cdot
Encoding: 266 266 201
Width: 617
Flags: W
LayerCount: 2
Fore
SplineSet
335 -12 m 0,0,1
 420 -12 420 -12 480 29.5 c 128,-1,2
 540 71 540 71 571 144 c 1,3,-1
 522 173 l 1,4,5
 499 112 499 112 452 77 c 128,-1,6
 405 42 405 42 335 42 c 0,7,8
 237 42 237 42 182 110 c 128,-1,9
 127 178 127 178 127 307 c 2,10,-1
 127 386 l 2,11,12
 127 516 127 516 182 586 c 128,-1,13
 237 656 237 656 335 656 c 0,14,15
 401 656 401 656 447.5 623 c 128,-1,16
 494 590 494 590 517 532 c 1,17,-1
 566 561 l 1,18,19
 534 631 534 631 476.5 670.5 c 128,-1,20
 419 710 419 710 335 710 c 0,21,22
 205 710 205 710 134 617 c 128,-1,23
 63 524 63 524 63 347 c 0,24,25
 63 169 63 169 134 78.5 c 128,-1,26
 205 -12 205 -12 335 -12 c 0,0,1
334 796 m 256,27,28
 377 796 377 796 377 837 c 2,29,-1
 377 848 l 2,30,31
 377 889 377 889 334 889 c 256,32,33
 291 889 291 889 291 848 c 2,34,-1
 291 837 l 2,35,36
 291 796 291 796 334 796 c 256,27,28
EndSplineSet
EndChar

StartChar: cdot
Encoding: 267 267 202
Width: 497
Flags: W
LayerCount: 2
Fore
SplineSet
273 -12 m 0,0,1
 409 -12 409 -12 462 100 c 1,2,-1
 420 128 l 1,3,4
 375 39 375 39 273 39 c 0,5,6
 195 39 195 39 154 89 c 128,-1,7
 113 139 113 139 113 220 c 2,8,-1
 113 292 l 2,9,10
 113 373 113 373 154 423 c 128,-1,11
 195 473 195 473 273 473 c 0,12,13
 371 473 371 473 407 387 c 1,14,-1
 455 411 l 1,15,16
 405 524 405 524 273 524 c 0,17,18
 167 524 167 524 109.5 454 c 128,-1,19
 52 384 52 384 52 256 c 256,20,21
 52 128 52 128 109.5 58 c 128,-1,22
 167 -12 167 -12 273 -12 c 0,0,1
275 626 m 0,23,24
 315 626 315 626 315 660 c 2,25,-1
 315 672 l 2,26,27
 315 688 315 688 305 698 c 128,-1,28
 295 708 295 708 275 708 c 0,29,30
 235 708 235 708 235 672 c 2,31,-1
 235 662 l 2,32,33
 235 646 235 646 245 636 c 128,-1,34
 255 626 255 626 275 626 c 0,23,24
EndSplineSet
EndChar

StartChar: Ccaron
Encoding: 268 268 203
Width: 617
Flags: W
LayerCount: 2
Fore
SplineSet
335 -12 m 0,0,1
 420 -12 420 -12 480 29.5 c 128,-1,2
 540 71 540 71 571 144 c 1,3,-1
 522 173 l 1,4,5
 499 112 499 112 452 77 c 128,-1,6
 405 42 405 42 335 42 c 0,7,8
 237 42 237 42 182 110 c 128,-1,9
 127 178 127 178 127 307 c 2,10,-1
 127 386 l 2,11,12
 127 516 127 516 182 586 c 128,-1,13
 237 656 237 656 335 656 c 0,14,15
 401 656 401 656 447.5 623 c 128,-1,16
 494 590 494 590 517 532 c 1,17,-1
 566 561 l 1,18,19
 534 631 534 631 476.5 670.5 c 128,-1,20
 419 710 419 710 335 710 c 0,21,22
 205 710 205 710 134 617 c 128,-1,23
 63 524 63 524 63 347 c 0,24,25
 63 169 63 169 134 78.5 c 128,-1,26
 205 -12 205 -12 335 -12 c 0,0,1
369 774 m 1,27,-1
 487 914 l 1,28,-1
 455 937 l 1,29,-1
 334 816 l 1,30,-1
 213 937 l 1,31,-1
 181 914 l 1,32,-1
 299 774 l 1,33,-1
 369 774 l 1,27,-1
EndSplineSet
EndChar

StartChar: ccaron
Encoding: 269 269 204
Width: 497
Flags: W
LayerCount: 2
Fore
SplineSet
273 -12 m 0,0,1
 409 -12 409 -12 462 100 c 1,2,-1
 420 128 l 1,3,4
 375 39 375 39 273 39 c 0,5,6
 195 39 195 39 154 89 c 128,-1,7
 113 139 113 139 113 220 c 2,8,-1
 113 292 l 2,9,10
 113 373 113 373 154 423 c 128,-1,11
 195 473 195 473 273 473 c 0,12,13
 371 473 371 473 407 387 c 1,14,-1
 455 411 l 1,15,16
 405 524 405 524 273 524 c 0,17,18
 167 524 167 524 109.5 454 c 128,-1,19
 52 384 52 384 52 256 c 256,20,21
 52 128 52 128 109.5 58 c 128,-1,22
 167 -12 167 -12 273 -12 c 0,0,1
310 601 m 1,23,-1
 428 740 l 1,24,-1
 396 763 l 1,25,-1
 275 642 l 1,26,-1
 154 763 l 1,27,-1
 122 740 l 1,28,-1
 240 601 l 1,29,-1
 310 601 l 1,23,-1
EndSplineSet
EndChar

StartChar: Dcaron
Encoding: 270 270 205
Width: 666
Flags: W
LayerCount: 2
Fore
SplineSet
321 0 m 2,0,1
 456 0 456 0 529.5 87 c 128,-1,2
 603 174 603 174 603 349 c 256,3,4
 603 524 603 524 529.5 611 c 128,-1,5
 456 698 456 698 321 698 c 2,6,-1
 99 698 l 1,7,-1
 99 0 l 1,8,-1
 321 0 l 2,0,1
322 53 m 2,9,-1
 159 53 l 1,10,-1
 159 645 l 1,11,-1
 322 645 l 2,12,13
 425 645 425 645 482 578.5 c 128,-1,14
 539 512 539 512 539 395 c 2,15,-1
 539 303 l 2,16,17
 539 186 539 186 482 119.5 c 128,-1,18
 425 53 425 53 322 53 c 2,9,-1
339 774 m 1,19,-1
 457 914 l 1,20,-1
 425 937 l 1,21,-1
 304 816 l 1,22,-1
 183 937 l 1,23,-1
 151 914 l 1,24,-1
 269 774 l 1,25,-1
 339 774 l 1,19,-1
EndSplineSet
EndChar

StartChar: dcaron
Encoding: 271 271 206
Width: 574
Flags: W
LayerCount: 2
Fore
SplineSet
265 -12 m 0,0,1
 377 -12 377 -12 421 82 c 1,2,-1
 424 82 l 1,3,-1
 424 0 l 1,4,-1
 481 0 l 1,5,-1
 481 740 l 1,6,-1
 424 740 l 1,7,-1
 424 430 l 1,8,-1
 421 430 l 1,9,10
 402 473 402 473 363 498.5 c 128,-1,11
 324 524 324 524 265 524 c 0,12,13
 166 524 166 524 110 454 c 128,-1,14
 54 384 54 384 54 256 c 256,15,16
 54 128 54 128 110 58 c 128,-1,17
 166 -12 166 -12 265 -12 c 0,0,1
278 39 m 0,18,19
 201 39 201 39 158 88 c 128,-1,20
 115 137 115 137 115 220 c 2,21,-1
 115 292 l 2,22,23
 115 375 115 375 158 424 c 128,-1,24
 201 473 201 473 278 473 c 0,25,26
 338 473 338 473 381 441 c 128,-1,27
 424 409 424 409 424 359 c 2,28,-1
 424 156 l 2,29,30
 424 102 424 102 381 70.5 c 128,-1,31
 338 39 338 39 278 39 c 0,18,19
591 559 m 1,32,-1
 632 740 l 1,33,-1
 566 740 l 1,34,-1
 552 559 l 1,35,-1
 591 559 l 1,32,-1
EndSplineSet
EndChar

StartChar: Dcroat
Encoding: 272 272 207
Width: 669
Flags: W
LayerCount: 2
Fore
SplineSet
324 0 m 2,0,1
 459 0 459 0 532.5 87 c 128,-1,2
 606 174 606 174 606 349 c 256,3,4
 606 524 606 524 532.5 611 c 128,-1,5
 459 698 459 698 324 698 c 2,6,-1
 102 698 l 1,7,-1
 102 392 l 1,8,-1
 21 392 l 1,9,-1
 21 346 l 1,10,-1
 102 346 l 1,11,-1
 102 0 l 1,12,-1
 324 0 l 2,0,1
325 53 m 2,13,-1
 162 53 l 1,14,-1
 162 346 l 1,15,-1
 312 346 l 1,16,-1
 312 392 l 1,17,-1
 162 392 l 1,18,-1
 162 645 l 1,19,-1
 325 645 l 2,20,21
 428 645 428 645 485 578.5 c 128,-1,22
 542 512 542 512 542 395 c 2,23,-1
 542 303 l 2,24,25
 542 186 542 186 485 119.5 c 128,-1,26
 428 53 428 53 325 53 c 2,13,-1
EndSplineSet
EndChar

StartChar: dcroat
Encoding: 273 273 208
Width: 574
Flags: W
LayerCount: 2
Fore
SplineSet
265 -12 m 0,0,1
 377 -12 377 -12 421 82 c 1,2,-1
 424 82 l 1,3,-1
 424 0 l 1,4,-1
 481 0 l 1,5,-1
 481 616 l 1,6,-1
 546 616 l 1,7,-1
 546 661 l 1,8,-1
 481 661 l 1,9,-1
 481 740 l 1,10,-1
 424 740 l 1,11,-1
 424 661 l 1,12,-1
 269 661 l 1,13,-1
 269 616 l 1,14,-1
 424 616 l 1,15,-1
 424 430 l 1,16,-1
 421 430 l 1,17,18
 402 473 402 473 363 498.5 c 128,-1,19
 324 524 324 524 265 524 c 0,20,21
 166 524 166 524 110 454 c 128,-1,22
 54 384 54 384 54 256 c 256,23,24
 54 128 54 128 110 58 c 128,-1,25
 166 -12 166 -12 265 -12 c 0,0,1
278 39 m 0,26,27
 201 39 201 39 158 88 c 128,-1,28
 115 137 115 137 115 220 c 2,29,-1
 115 292 l 2,30,31
 115 375 115 375 158 424 c 128,-1,32
 201 473 201 473 278 473 c 0,33,34
 338 473 338 473 381 441 c 128,-1,35
 424 409 424 409 424 359 c 2,36,-1
 424 156 l 2,37,38
 424 102 424 102 381 70.5 c 128,-1,39
 338 39 338 39 278 39 c 0,26,27
EndSplineSet
EndChar

StartChar: Emacron
Encoding: 274 274 209
Width: 574
Flags: W
LayerCount: 2
Fore
SplineSet
507 0 m 1,0,-1
 507 53 l 1,1,-1
 159 53 l 1,2,-1
 159 328 l 1,3,-1
 490 328 l 1,4,-1
 490 381 l 1,5,-1
 159 381 l 1,6,-1
 159 645 l 1,7,-1
 507 645 l 1,8,-1
 507 698 l 1,9,-1
 99 698 l 1,10,-1
 99 0 l 1,11,-1
 507 0 l 1,0,-1
438 819 m 1,12,-1
 438 868 l 1,13,-1
 166 868 l 1,14,-1
 166 819 l 1,15,-1
 438 819 l 1,12,-1
EndSplineSet
EndChar

StartChar: emacron
Encoding: 275 275 210
Width: 543
Flags: W
LayerCount: 2
Fore
SplineSet
276 -12 m 0,0,1
 349 -12 349 -12 400.5 21.5 c 128,-1,2
 452 55 452 55 476 113 c 1,3,-1
 434 141 l 1,4,5
 392 38 392 38 279 38 c 0,6,7
 201 38 201 38 156.5 89.5 c 128,-1,8
 112 141 112 141 112 220 c 2,9,-1
 112 245 l 1,10,-1
 491 245 l 1,11,-1
 491 272 l 2,12,13
 491 385 491 385 432 454.5 c 128,-1,14
 373 524 373 524 275 524 c 0,15,16
 173 524 173 524 112.5 453 c 128,-1,17
 52 382 52 382 52 256 c 256,18,19
 52 130 52 130 113 59 c 128,-1,20
 174 -12 174 -12 276 -12 c 0,0,1
429 289 m 1,21,-1
 112 289 l 1,22,23
 112 374 112 374 157 425 c 128,-1,24
 202 476 202 476 275 476 c 0,25,26
 343 476 343 476 387 427 c 0,27,28
 429 377 429 377 429 297 c 2,29,-1
 429 289 l 1,21,-1
412 645 m 1,30,-1
 412 694 l 1,31,-1
 140 694 l 1,32,-1
 140 645 l 1,33,-1
 412 645 l 1,30,-1
EndSplineSet
EndChar

StartChar: Ebreve
Encoding: 276 276 211
Width: 574
Flags: W
LayerCount: 2
Fore
SplineSet
507 0 m 1,0,-1
 507 53 l 1,1,-1
 159 53 l 1,2,-1
 159 328 l 1,3,-1
 490 328 l 1,4,-1
 490 381 l 1,5,-1
 159 381 l 1,6,-1
 159 645 l 1,7,-1
 507 645 l 1,8,-1
 507 698 l 1,9,-1
 99 698 l 1,10,-1
 99 0 l 1,11,-1
 507 0 l 1,0,-1
302 774 m 0,12,13
 336 774 336 774 360 784 c 0,14,15
 415 808 415 808 446 896 c 1,16,-1
 413 912 l 1,17,-1
 394 881 l 2,18,19
 376 849 376 849 357 834.5 c 128,-1,20
 338 820 338 820 302 820 c 256,21,22
 266 820 266 820 247 834.5 c 128,-1,23
 228 849 228 849 210 881 c 2,24,-1
 191 912 l 1,25,-1
 158 896 l 1,26,27
 175 848 175 848 207 811 c 128,-1,28
 239 774 239 774 302 774 c 0,12,13
EndSplineSet
EndChar

StartChar: ebreve
Encoding: 277 277 212
Width: 543
Flags: W
LayerCount: 2
Fore
SplineSet
276 -12 m 0,0,1
 349 -12 349 -12 400.5 21.5 c 128,-1,2
 452 55 452 55 476 113 c 1,3,-1
 434 141 l 1,4,5
 392 38 392 38 279 38 c 0,6,7
 201 38 201 38 156.5 89.5 c 128,-1,8
 112 141 112 141 112 220 c 2,9,-1
 112 245 l 1,10,-1
 491 245 l 1,11,-1
 491 272 l 2,12,13
 491 385 491 385 432 454.5 c 128,-1,14
 373 524 373 524 275 524 c 0,15,16
 173 524 173 524 112.5 453 c 128,-1,17
 52 382 52 382 52 256 c 256,18,19
 52 130 52 130 113 59 c 128,-1,20
 174 -12 174 -12 276 -12 c 0,0,1
429 289 m 1,21,-1
 112 289 l 1,22,23
 112 374 112 374 157 425 c 128,-1,24
 202 476 202 476 275 476 c 0,25,26
 343 476 343 476 387 427 c 0,27,28
 429 377 429 377 429 297 c 2,29,-1
 429 289 l 1,21,-1
276 600 m 0,30,31
 310 600 310 600 334 610 c 0,32,33
 389 634 389 634 420 722 c 1,34,-1
 387 738 l 1,35,-1
 368 707 l 2,36,37
 350 675 350 675 331 660.5 c 128,-1,38
 312 646 312 646 276 646 c 256,39,40
 240 646 240 646 221 660.5 c 128,-1,41
 202 675 202 675 184 707 c 2,42,-1
 165 738 l 1,43,-1
 132 722 l 1,44,45
 149 674 149 674 181 637 c 128,-1,46
 213 600 213 600 276 600 c 0,30,31
EndSplineSet
EndChar

StartChar: Edot
Encoding: 278 278 213
Width: 574
Flags: W
LayerCount: 2
Fore
SplineSet
507 0 m 1,0,-1
 507 53 l 1,1,-1
 159 53 l 1,2,-1
 159 328 l 1,3,-1
 490 328 l 1,4,-1
 490 381 l 1,5,-1
 159 381 l 1,6,-1
 159 645 l 1,7,-1
 507 645 l 1,8,-1
 507 698 l 1,9,-1
 99 698 l 1,10,-1
 99 0 l 1,11,-1
 507 0 l 1,0,-1
302 796 m 256,12,13
 345 796 345 796 345 837 c 2,14,-1
 345 848 l 2,15,16
 345 889 345 889 302 889 c 256,17,18
 259 889 259 889 259 848 c 2,19,-1
 259 837 l 2,20,21
 259 796 259 796 302 796 c 256,12,13
EndSplineSet
EndChar

StartChar: edot
Encoding: 279 279 214
Width: 543
Flags: W
LayerCount: 2
Fore
SplineSet
276 -12 m 0,0,1
 349 -12 349 -12 400.5 21.5 c 128,-1,2
 452 55 452 55 476 113 c 1,3,-1
 434 141 l 1,4,5
 392 38 392 38 279 38 c 0,6,7
 201 38 201 38 156.5 89.5 c 128,-1,8
 112 141 112 141 112 220 c 2,9,-1
 112 245 l 1,10,-1
 491 245 l 1,11,-1
 491 272 l 2,12,13
 491 385 491 385 432 454.5 c 128,-1,14
 373 524 373 524 275 524 c 0,15,16
 173 524 173 524 112.5 453 c 128,-1,17
 52 382 52 382 52 256 c 256,18,19
 52 130 52 130 113 59 c 128,-1,20
 174 -12 174 -12 276 -12 c 0,0,1
429 289 m 1,21,-1
 112 289 l 1,22,23
 112 374 112 374 157 425 c 128,-1,24
 202 476 202 476 275 476 c 0,25,26
 343 476 343 476 387 427 c 0,27,28
 429 377 429 377 429 297 c 2,29,-1
 429 289 l 1,21,-1
276 626 m 0,30,31
 316 626 316 626 316 660 c 2,32,-1
 316 672 l 2,33,34
 316 688 316 688 306 698 c 128,-1,35
 296 708 296 708 276 708 c 0,36,37
 236 708 236 708 236 672 c 2,38,-1
 236 662 l 2,39,40
 236 646 236 646 246 636 c 128,-1,41
 256 626 256 626 276 626 c 0,30,31
EndSplineSet
EndChar

StartChar: Eogonek
Encoding: 280 280 215
Width: 574
Flags: W
LayerCount: 2
Fore
SplineSet
443 -205 m 0,0,1
 503 -205 503 -205 526 -169 c 1,2,-1
 496 -141 l 1,3,4
 479 -165 479 -165 443 -165 c 0,5,6
 401 -165 401 -165 401 -127 c 0,7,8
 401 -103 401 -103 423.5 -75.5 c 128,-1,9
 446 -48 446 -48 507 0 c 1,10,-1
 507 53 l 1,11,-1
 159 53 l 1,12,-1
 159 328 l 1,13,-1
 490 328 l 1,14,-1
 490 381 l 1,15,-1
 159 381 l 1,16,-1
 159 645 l 1,17,-1
 507 645 l 1,18,-1
 507 698 l 1,19,-1
 99 698 l 1,20,-1
 99 0 l 1,21,-1
 458 0 l 1,22,-1
 459 -2 l 1,23,24
 408 -34 408 -34 381 -66 c 128,-1,25
 354 -98 354 -98 354 -133 c 0,26,27
 354 -170 354 -170 379.5 -187.5 c 128,-1,28
 405 -205 405 -205 443 -205 c 0,0,1
EndSplineSet
EndChar

StartChar: eogonek
Encoding: 281 281 216
Width: 543
Flags: W
LayerCount: 2
Fore
SplineSet
339 -205 m 0,0,1
 371 -205 371 -205 392 -194.5 c 128,-1,2
 413 -184 413 -184 422 -169 c 1,3,-1
 393 -141 l 1,4,5
 376 -165 376 -165 340 -165 c 0,6,7
 298 -165 298 -165 298 -125 c 0,8,9
 298 -86 298 -86 339 -41 c 0,10,11
 365 -12 365 -12 421 38 c 0,12,13
 456 67 456 67 476 113 c 1,14,-1
 434 141 l 1,15,16
 392 38 392 38 279 38 c 0,17,18
 201 38 201 38 156.5 89.5 c 128,-1,19
 112 141 112 141 112 220 c 2,20,-1
 112 245 l 1,21,-1
 491 245 l 1,22,-1
 491 272 l 2,23,24
 491 385 491 385 432 454.5 c 128,-1,25
 373 524 373 524 275 524 c 0,26,27
 173 524 173 524 112.5 453 c 128,-1,28
 52 382 52 382 52 256 c 256,29,30
 52 130 52 130 113 59 c 128,-1,31
 174 -12 174 -12 276 -12 c 0,32,33
 323 -12 323 -12 346 1 c 1,34,-1
 349 -3 l 1,35,36
 304 -30 304 -30 277.5 -61.5 c 128,-1,37
 251 -93 251 -93 251 -131 c 256,38,39
 251 -169 251 -169 276.5 -187 c 128,-1,40
 302 -205 302 -205 339 -205 c 0,0,1
429 289 m 1,41,-1
 112 289 l 1,42,43
 112 374 112 374 157 425 c 128,-1,44
 202 476 202 476 275 476 c 0,45,46
 343 476 343 476 387 427 c 0,47,48
 429 377 429 377 429 297 c 2,49,-1
 429 289 l 1,41,-1
EndSplineSet
EndChar

StartChar: Ecaron
Encoding: 282 282 217
Width: 574
Flags: W
LayerCount: 2
Fore
SplineSet
507 0 m 1,0,-1
 507 53 l 1,1,-1
 159 53 l 1,2,-1
 159 328 l 1,3,-1
 490 328 l 1,4,-1
 490 381 l 1,5,-1
 159 381 l 1,6,-1
 159 645 l 1,7,-1
 507 645 l 1,8,-1
 507 698 l 1,9,-1
 99 698 l 1,10,-1
 99 0 l 1,11,-1
 507 0 l 1,0,-1
337 774 m 1,12,-1
 455 914 l 1,13,-1
 423 937 l 1,14,-1
 302 816 l 1,15,-1
 181 937 l 1,16,-1
 149 914 l 1,17,-1
 267 774 l 1,18,-1
 337 774 l 1,12,-1
EndSplineSet
EndChar

StartChar: ecaron
Encoding: 283 283 218
Width: 543
Flags: W
LayerCount: 2
Fore
SplineSet
276 -12 m 0,0,1
 349 -12 349 -12 400.5 21.5 c 128,-1,2
 452 55 452 55 476 113 c 1,3,-1
 434 141 l 1,4,5
 392 38 392 38 279 38 c 0,6,7
 201 38 201 38 156.5 89.5 c 128,-1,8
 112 141 112 141 112 220 c 2,9,-1
 112 245 l 1,10,-1
 491 245 l 1,11,-1
 491 272 l 2,12,13
 491 385 491 385 432 454.5 c 128,-1,14
 373 524 373 524 275 524 c 0,15,16
 173 524 173 524 112.5 453 c 128,-1,17
 52 382 52 382 52 256 c 256,18,19
 52 130 52 130 113 59 c 128,-1,20
 174 -12 174 -12 276 -12 c 0,0,1
429 289 m 1,21,-1
 112 289 l 1,22,23
 112 374 112 374 157 425 c 128,-1,24
 202 476 202 476 275 476 c 0,25,26
 343 476 343 476 387 427 c 0,27,28
 429 377 429 377 429 297 c 2,29,-1
 429 289 l 1,21,-1
311 601 m 1,30,-1
 429 740 l 1,31,-1
 397 763 l 1,32,-1
 276 642 l 1,33,-1
 155 763 l 1,34,-1
 123 740 l 1,35,-1
 241 601 l 1,36,-1
 311 601 l 1,30,-1
EndSplineSet
EndChar

StartChar: Gcircumflex
Encoding: 284 284 219
Width: 684
Flags: W
LayerCount: 2
Fore
SplineSet
345 -12 m 0,0,1
 426 -12 426 -12 478.5 20 c 128,-1,2
 531 52 531 52 550 107 c 1,3,-1
 553 107 l 1,4,-1
 553 0 l 1,5,-1
 609 0 l 1,6,-1
 609 348 l 1,7,-1
 387 348 l 1,8,-1
 387 296 l 1,9,-1
 550 296 l 1,10,-1
 550 212 l 2,11,12
 550 127 550 127 492 84.5 c 128,-1,13
 434 42 434 42 354 42 c 0,14,15
 248 42 248 42 187.5 111.5 c 128,-1,16
 127 181 127 181 127 307 c 2,17,-1
 127 392 l 2,18,19
 127 517 127 517 187 586.5 c 128,-1,20
 247 656 247 656 349 656 c 0,21,22
 418 656 418 656 467.5 623 c 128,-1,23
 517 590 517 590 544 532 c 1,24,-1
 593 561 l 1,25,26
 561 629 561 629 500 669.5 c 128,-1,27
 439 710 439 710 349 710 c 0,28,29
 217 710 217 710 140 617.5 c 128,-1,30
 63 525 63 525 63 349 c 0,31,32
 63 175 63 175 140 80 c 0,33,34
 215 -12 215 -12 345 -12 c 0,0,1
470 768 m 1,35,-1
 502 791 l 1,36,-1
 384 930 l 1,37,-1
 314 930 l 1,38,-1
 196 791 l 1,39,-1
 228 768 l 1,40,-1
 349 888 l 1,41,-1
 470 768 l 1,35,-1
EndSplineSet
EndChar

StartChar: Gbreve
Encoding: 286 286 221
Width: 684
Flags: W
LayerCount: 2
Fore
SplineSet
345 -12 m 0,0,1
 426 -12 426 -12 478.5 20 c 128,-1,2
 531 52 531 52 550 107 c 1,3,-1
 553 107 l 1,4,-1
 553 0 l 1,5,-1
 609 0 l 1,6,-1
 609 348 l 1,7,-1
 387 348 l 1,8,-1
 387 296 l 1,9,-1
 550 296 l 1,10,-1
 550 212 l 2,11,12
 550 127 550 127 492 84.5 c 128,-1,13
 434 42 434 42 354 42 c 0,14,15
 248 42 248 42 187.5 111.5 c 128,-1,16
 127 181 127 181 127 307 c 2,17,-1
 127 392 l 2,18,19
 127 517 127 517 187 586.5 c 128,-1,20
 247 656 247 656 349 656 c 0,21,22
 418 656 418 656 467.5 623 c 128,-1,23
 517 590 517 590 544 532 c 1,24,-1
 593 561 l 1,25,26
 561 629 561 629 500 669.5 c 128,-1,27
 439 710 439 710 349 710 c 0,28,29
 217 710 217 710 140 617.5 c 128,-1,30
 63 525 63 525 63 349 c 0,31,32
 63 175 63 175 140 80 c 0,33,34
 215 -12 215 -12 345 -12 c 0,0,1
349 774 m 0,35,36
 383 774 383 774 407 784 c 0,37,38
 462 808 462 808 493 896 c 1,39,-1
 460 912 l 1,40,-1
 441 881 l 2,41,42
 423 849 423 849 404 834.5 c 128,-1,43
 385 820 385 820 349 820 c 256,44,45
 313 820 313 820 294 834.5 c 128,-1,46
 275 849 275 849 257 881 c 2,47,-1
 238 912 l 1,48,-1
 205 896 l 1,49,50
 222 848 222 848 254 811 c 128,-1,51
 286 774 286 774 349 774 c 0,35,36
EndSplineSet
EndChar

StartChar: Gdot
Encoding: 288 288 223
Width: 684
Flags: W
LayerCount: 2
Fore
SplineSet
345 -12 m 0,0,1
 426 -12 426 -12 478.5 20 c 128,-1,2
 531 52 531 52 550 107 c 1,3,-1
 553 107 l 1,4,-1
 553 0 l 1,5,-1
 609 0 l 1,6,-1
 609 348 l 1,7,-1
 387 348 l 1,8,-1
 387 296 l 1,9,-1
 550 296 l 1,10,-1
 550 212 l 2,11,12
 550 127 550 127 492 84.5 c 128,-1,13
 434 42 434 42 354 42 c 0,14,15
 248 42 248 42 187.5 111.5 c 128,-1,16
 127 181 127 181 127 307 c 2,17,-1
 127 392 l 2,18,19
 127 517 127 517 187 586.5 c 128,-1,20
 247 656 247 656 349 656 c 0,21,22
 418 656 418 656 467.5 623 c 128,-1,23
 517 590 517 590 544 532 c 1,24,-1
 593 561 l 1,25,26
 561 629 561 629 500 669.5 c 128,-1,27
 439 710 439 710 349 710 c 0,28,29
 217 710 217 710 140 617.5 c 128,-1,30
 63 525 63 525 63 349 c 0,31,32
 63 175 63 175 140 80 c 0,33,34
 215 -12 215 -12 345 -12 c 0,0,1
349 796 m 256,35,36
 392 796 392 796 392 837 c 2,37,-1
 392 848 l 2,38,39
 392 889 392 889 349 889 c 256,40,41
 306 889 306 889 306 848 c 2,42,-1
 306 837 l 2,43,44
 306 796 306 796 349 796 c 256,35,36
EndSplineSet
EndChar

StartChar: Gcedilla
Encoding: 290 290 225
Width: 684
Flags: W
LayerCount: 2
Fore
SplineSet
345 -12 m 0,0,1
 426 -12 426 -12 478.5 20 c 128,-1,2
 531 52 531 52 550 107 c 1,3,-1
 553 107 l 1,4,-1
 553 0 l 1,5,-1
 609 0 l 1,6,-1
 609 348 l 1,7,-1
 387 348 l 1,8,-1
 387 296 l 1,9,-1
 550 296 l 1,10,-1
 550 212 l 2,11,12
 550 127 550 127 492 84.5 c 128,-1,13
 434 42 434 42 354 42 c 0,14,15
 248 42 248 42 187.5 111.5 c 128,-1,16
 127 181 127 181 127 307 c 2,17,-1
 127 392 l 2,18,19
 127 517 127 517 187 586.5 c 128,-1,20
 247 656 247 656 349 656 c 0,21,22
 418 656 418 656 467.5 623 c 128,-1,23
 517 590 517 590 544 532 c 1,24,-1
 593 561 l 1,25,26
 561 629 561 629 500 669.5 c 128,-1,27
 439 710 439 710 349 710 c 0,28,29
 217 710 217 710 140 617.5 c 128,-1,30
 63 525 63 525 63 349 c 0,31,32
 63 175 63 175 140 80 c 0,33,34
 215 -12 215 -12 345 -12 c 0,0,1
331 -232 m 1,35,36
 385 -178 385 -178 385 -114 c 2,37,-1
 385 -103 l 2,38,39
 385 -66 385 -66 347 -66 c 0,40,41
 305 -66 305 -66 305 -103 c 2,42,-1
 305 -112 l 2,43,44
 305 -140 305 -140 337 -147 c 1,45,46
 328 -190 328 -190 289 -232 c 1,47,-1
 331 -232 l 1,35,36
EndSplineSet
EndChar

StartChar: Hcircumflex
Encoding: 292 292 227
Width: 701
Flags: W
LayerCount: 2
Fore
SplineSet
602 0 m 1,0,-1
 602 698 l 1,1,-1
 542 698 l 1,2,-1
 542 381 l 1,3,-1
 159 381 l 1,4,-1
 159 698 l 1,5,-1
 99 698 l 1,6,-1
 99 0 l 1,7,-1
 159 0 l 1,8,-1
 159 328 l 1,9,-1
 542 328 l 1,10,-1
 542 0 l 1,11,-1
 602 0 l 1,0,-1
472 768 m 1,12,-1
 504 791 l 1,13,-1
 386 930 l 1,14,-1
 316 930 l 1,15,-1
 198 791 l 1,16,-1
 230 768 l 1,17,-1
 351 888 l 1,18,-1
 472 768 l 1,12,-1
EndSplineSet
EndChar

StartChar: hcircumflex
Encoding: 293 293 228
Width: 563
Flags: W
LayerCount: 2
Fore
SplineSet
477 0 m 1,0,-1
 477 329 l 2,1,2
 477 423 477 423 431.5 473.5 c 128,-1,3
 386 524 386 524 304 524 c 0,4,5
 191 524 191 524 153 431 c 1,6,-1
 150 431 l 1,7,-1
 150 740 l 1,8,-1
 93 740 l 1,9,-1
 93 0 l 1,10,-1
 150 0 l 1,11,-1
 150 360 l 2,12,13
 150 416 150 416 192.5 444.5 c 128,-1,14
 235 473 235 473 289 473 c 0,15,16
 420 473 420 473 420 319 c 2,17,-1
 420 0 l 1,18,-1
 477 0 l 1,0,-1
244 752 m 1,19,-1
 276 775 l 1,20,-1
 158 914 l 1,21,-1
 88 914 l 1,22,-1
 -30 775 l 1,23,-1
 2 752 l 1,24,-1
 123 873 l 1,25,-1
 244 752 l 1,19,-1
EndSplineSet
EndChar

StartChar: Hbar
Encoding: 294 294 229
Width: 707
Flags: W
LayerCount: 2
Fore
SplineSet
605 0 m 1,0,-1
 605 526 l 1,1,-1
 680 526 l 1,2,-1
 680 572 l 1,3,-1
 605 572 l 1,4,-1
 605 698 l 1,5,-1
 545 698 l 1,6,-1
 545 572 l 1,7,-1
 162 572 l 1,8,-1
 162 698 l 1,9,-1
 102 698 l 1,10,-1
 102 572 l 1,11,-1
 27 572 l 1,12,-1
 27 526 l 1,13,-1
 102 526 l 1,14,-1
 102 0 l 1,15,-1
 162 0 l 1,16,-1
 162 328 l 1,17,-1
 545 328 l 1,18,-1
 545 0 l 1,19,-1
 605 0 l 1,0,-1
545 381 m 1,20,-1
 162 381 l 1,21,-1
 162 526 l 1,22,-1
 545 526 l 1,23,-1
 545 381 l 1,20,-1
EndSplineSet
EndChar

StartChar: hbar
Encoding: 295 295 230
Width: 563
Flags: W
LayerCount: 2
Fore
SplineSet
477 0 m 1,0,-1
 477 329 l 2,1,2
 477 423 477 423 431 473.5 c 128,-1,3
 385 524 385 524 303 524 c 0,4,5
 191 524 191 524 153 431 c 1,6,-1
 150 431 l 1,7,-1
 150 616 l 1,8,-1
 305 616 l 1,9,-1
 305 661 l 1,10,-1
 150 661 l 1,11,-1
 150 740 l 1,12,-1
 93 740 l 1,13,-1
 93 661 l 1,14,-1
 28 661 l 1,15,-1
 28 616 l 1,16,-1
 93 616 l 1,17,-1
 93 0 l 1,18,-1
 150 0 l 1,19,-1
 150 360 l 2,20,21
 150 416 150 416 192 444.5 c 128,-1,22
 234 473 234 473 288 473 c 0,23,24
 352 473 352 473 386 435 c 128,-1,25
 420 397 420 397 420 319 c 2,26,-1
 420 0 l 1,27,-1
 477 0 l 1,0,-1
EndSplineSet
EndChar

StartChar: Itilde
Encoding: 296 296 231
Width: 278
Flags: W
LayerCount: 2
Fore
SplineSet
211 792 m 0,0,1
 264 792 264 792 300 840 c 1,2,-1
 275 869 l 1,3,4
 249 840 249 840 214 840 c 0,5,6
 186 840 186 840 146 864 c 0,7,8
 125 876 125 876 107 884 c 128,-1,9
 89 892 89 892 67 892 c 0,10,11
 14 892 14 892 -22 844 c 1,12,-1
 3 815 l 1,13,14
 30 844 30 844 64 844 c 0,15,16
 93 844 93 844 132 820 c 0,17,18
 153 808 153 808 171 800 c 128,-1,19
 189 792 189 792 211 792 c 0,0,1
169 0 m 1,20,-1
 169 698 l 1,21,-1
 109 698 l 1,22,-1
 109 0 l 1,23,-1
 169 0 l 1,20,-1
EndSplineSet
EndChar

StartChar: itilde
Encoding: 297 297 232
Width: 243
Flags: W
LayerCount: 2
Fore
SplineSet
150 0 m 1,0,-1
 150 512 l 1,1,-1
 93 512 l 1,2,-1
 93 0 l 1,3,-1
 150 0 l 1,0,-1
194 618 m 0,4,5
 247 618 247 618 283 666 c 1,6,-1
 258 695 l 1,7,8
 243 681 243 681 228.5 673 c 128,-1,9
 214 665 214 665 197 665 c 0,10,11
 183 665 183 665 167.5 670.5 c 128,-1,12
 152 676 152 676 130.5 689 c 128,-1,13
 109 702 109 702 91 710 c 128,-1,14
 73 718 73 718 50 718 c 0,15,16
 -3 718 -3 718 -39 670 c 1,17,-1
 -14 641 l 1,18,19
 1 655 1 655 15.5 663 c 128,-1,20
 30 671 30 671 47 671 c 0,21,22
 61 671 61 671 76.5 665.5 c 128,-1,23
 92 660 92 660 113.5 647 c 128,-1,24
 135 634 135 634 153 626 c 128,-1,25
 171 618 171 618 194 618 c 0,4,5
EndSplineSet
EndChar

StartChar: Imacron
Encoding: 298 298 233
Width: 278
Flags: W
LayerCount: 2
Fore
SplineSet
275 819 m 1,0,-1
 275 868 l 1,1,-1
 3 868 l 1,2,-1
 3 819 l 1,3,-1
 275 819 l 1,0,-1
169 0 m 1,4,-1
 169 698 l 1,5,-1
 109 698 l 1,6,-1
 109 0 l 1,7,-1
 169 0 l 1,4,-1
EndSplineSet
EndChar

StartChar: imacron
Encoding: 299 299 234
Width: 243
Flags: W
LayerCount: 2
Fore
SplineSet
150 0 m 1,0,-1
 150 512 l 1,1,-1
 93 512 l 1,2,-1
 93 0 l 1,3,-1
 150 0 l 1,0,-1
258 645 m 1,4,-1
 258 694 l 1,5,-1
 -14 694 l 1,6,-1
 -14 645 l 1,7,-1
 258 645 l 1,4,-1
EndSplineSet
EndChar

StartChar: Ibreve
Encoding: 300 300 235
Width: 278
Flags: W
LayerCount: 2
Fore
SplineSet
139 774 m 0,0,1
 173 774 173 774 197 784 c 0,2,3
 252 808 252 808 283 896 c 1,4,-1
 250 912 l 1,5,-1
 231 881 l 2,6,7
 213 849 213 849 194 834.5 c 128,-1,8
 175 820 175 820 139 820 c 256,9,10
 103 820 103 820 84 834.5 c 128,-1,11
 65 849 65 849 47 881 c 2,12,-1
 28 912 l 1,13,-1
 -5 896 l 1,14,15
 12 848 12 848 44 811 c 128,-1,16
 76 774 76 774 139 774 c 0,0,1
169 0 m 1,17,-1
 169 698 l 1,18,-1
 109 698 l 1,19,-1
 109 0 l 1,20,-1
 169 0 l 1,17,-1
EndSplineSet
EndChar

StartChar: ibreve
Encoding: 301 301 236
Width: 243
Flags: W
LayerCount: 2
Fore
SplineSet
150 0 m 1,0,-1
 150 512 l 1,1,-1
 93 512 l 1,2,-1
 93 0 l 1,3,-1
 150 0 l 1,0,-1
122 600 m 0,4,5
 156 600 156 600 180 610 c 0,6,7
 235 634 235 634 266 722 c 1,8,-1
 233 738 l 1,9,-1
 214 707 l 2,10,11
 196 675 196 675 177 660.5 c 128,-1,12
 158 646 158 646 122 646 c 256,13,14
 86 646 86 646 67 660.5 c 128,-1,15
 48 675 48 675 30 707 c 2,16,-1
 11 738 l 1,17,-1
 -22 722 l 1,18,19
 -5 674 -5 674 27 637 c 128,-1,20
 59 600 59 600 122 600 c 0,4,5
EndSplineSet
EndChar

StartChar: Iogonek
Encoding: 302 302 237
Width: 278
Flags: W
LayerCount: 2
Fore
SplineSet
103 -205 m 0,0,1
 135 -205 135 -205 156 -194.5 c 128,-1,2
 177 -184 177 -184 186 -169 c 1,3,-1
 156 -141 l 1,4,5
 140 -165 140 -165 104 -165 c 0,6,7
 62 -165 62 -165 62 -127 c 0,8,9
 62 -103 62 -103 84.5 -75.5 c 128,-1,10
 107 -48 107 -48 168 0 c 1,11,-1
 168 698 l 1,12,-1
 108 698 l 1,13,-1
 108 0 l 1,14,-1
 119 0 l 1,15,-1
 120 -2 l 1,16,17
 66 -37 66 -37 40.5 -67.5 c 128,-1,18
 15 -98 15 -98 15 -133 c 0,19,20
 15 -170 15 -170 40.5 -187.5 c 128,-1,21
 66 -205 66 -205 103 -205 c 0,0,1
EndSplineSet
EndChar

StartChar: iogonek
Encoding: 303 303 238
Width: 243
Flags: W
LayerCount: 2
Fore
SplineSet
97 -205 m 0,0,1
 157 -205 157 -205 180 -169 c 1,2,-1
 150 -141 l 1,3,4
 133 -165 133 -165 97 -165 c 0,5,6
 55 -165 55 -165 55 -126 c 0,7,8
 55 -102 55 -102 75 -76 c 128,-1,9
 95 -50 95 -50 150 0 c 1,10,-1
 150 512 l 1,11,-1
 93 512 l 1,12,-1
 93 0 l 1,13,-1
 104 0 l 1,14,-1
 105 -2 l 1,15,16
 62 -34 62 -34 35 -64.5 c 128,-1,17
 8 -95 8 -95 8 -132 c 256,18,19
 8 -169 8 -169 33.5 -187 c 128,-1,20
 59 -205 59 -205 97 -205 c 0,0,1
121 651 m 0,21,22
 160 651 160 651 160 687 c 2,23,-1
 160 697 l 2,24,25
 160 733 160 733 121 733 c 0,26,27
 83 733 83 733 83 697 c 2,28,-1
 83 687 l 2,29,30
 83 651 83 651 121 651 c 0,21,22
EndSplineSet
EndChar

StartChar: Idot
Encoding: 304 304 239
Width: 278
Flags: W
LayerCount: 2
Fore
SplineSet
139 796 m 256,0,1
 182 796 182 796 182 837 c 2,2,-1
 182 848 l 2,3,4
 182 889 182 889 139 889 c 256,5,6
 96 889 96 889 96 848 c 2,7,-1
 96 837 l 2,8,9
 96 796 96 796 139 796 c 256,0,1
169 0 m 1,10,-1
 169 698 l 1,11,-1
 109 698 l 1,12,-1
 109 0 l 1,13,-1
 169 0 l 1,10,-1
EndSplineSet
EndChar

StartChar: dotlessi
Encoding: 305 305 240
Width: 243
Flags: W
LayerCount: 2
Fore
SplineSet
150 0 m 1,0,-1
 150 512 l 1,1,-1
 93 512 l 1,2,-1
 93 0 l 1,3,-1
 150 0 l 1,0,-1
EndSplineSet
EndChar

StartChar: ij
Encoding: 307 307 242
Width: 486
Flags: W
LayerCount: 2
Fore
SplineSet
121 651 m 256,0,1
 141 651 141 651 150.5 661 c 128,-1,2
 160 671 160 671 160 687 c 2,3,-1
 160 697 l 2,4,5
 160 713 160 713 150.5 723 c 128,-1,6
 141 733 141 733 121 733 c 256,7,8
 101 733 101 733 91.5 723 c 128,-1,9
 82 713 82 713 82 697 c 2,10,-1
 82 687 l 2,11,12
 82 671 82 671 91.5 661 c 128,-1,13
 101 651 101 651 121 651 c 256,0,1
150 0 m 1,14,-1
 150 512 l 1,15,-1
 93 512 l 1,16,-1
 93 0 l 1,17,-1
 150 0 l 1,14,-1
313 -200 m 2,18,19
 393 -200 393 -200 393 -115 c 2,20,-1
 393 512 l 1,21,-1
 336 512 l 1,22,-1
 336 -150 l 1,23,-1
 251 -150 l 1,24,-1
 251 -200 l 1,25,-1
 313 -200 l 2,18,19
364 651 m 256,26,27
 384 651 384 651 393.5 661 c 128,-1,28
 403 671 403 671 403 687 c 2,29,-1
 403 697 l 2,30,31
 403 713 403 713 393.5 723 c 128,-1,32
 384 733 384 733 364 733 c 256,33,34
 344 733 344 733 334.5 723 c 128,-1,35
 325 713 325 713 325 697 c 2,36,-1
 325 687 l 2,37,38
 325 671 325 671 334.5 661 c 128,-1,39
 344 651 344 651 364 651 c 256,26,27
EndSplineSet
EndChar

StartChar: Jcircumflex
Encoding: 308 308 243
Width: 492
Flags: W
LayerCount: 2
Fore
SplineSet
373 768 m 1,0,-1
 252 888 l 1,1,-1
 131 768 l 1,2,-1
 99 791 l 1,3,-1
 217 930 l 1,4,-1
 287 930 l 1,5,-1
 405 791 l 1,6,-1
 373 768 l 1,0,-1
210 -12 m 0,7,8
 136 -12 136 -12 88.5 27.5 c 128,-1,9
 41 67 41 67 26 134 c 1,10,-1
 79 147 l 1,11,12
 91 100 91 100 123.5 70.5 c 128,-1,13
 156 41 156 41 212 41 c 0,14,15
 338 41 338 41 339 191 c 2,16,-1
 339 698 l 1,17,-1
 399 698 l 1,18,-1
 399 182 l 2,19,20
 399 89 399 89 347.5 38.5 c 128,-1,21
 296 -12 296 -12 210 -12 c 0,7,8
EndSplineSet
EndChar

StartChar: jcircumflex
Encoding: 309 309 244
Width: 243
Flags: W
LayerCount: 2
Fore
SplineSet
70 -200 m 2,0,1
 150 -200 150 -200 150 -115 c 2,2,-1
 150 512 l 1,3,-1
 93 512 l 1,4,-1
 93 -150 l 1,5,-1
 8 -150 l 1,6,-1
 8 -200 l 1,7,-1
 70 -200 l 2,0,1
243 594 m 1,8,-1
 275 617 l 1,9,-1
 157 756 l 1,10,-1
 87 756 l 1,11,-1
 -31 617 l 1,12,-1
 1 594 l 1,13,-1
 122 715 l 1,14,-1
 243 594 l 1,8,-1
EndSplineSet
EndChar

StartChar: Kcedilla
Encoding: 310 310 245
Width: 610
Flags: W
LayerCount: 2
Fore
SplineSet
589 0 m 1,0,-1
 313 401 l 1,1,-1
 576 698 l 1,2,-1
 503 698 l 1,3,-1
 161 305 l 1,4,-1
 159 305 l 1,5,-1
 159 698 l 1,6,-1
 99 698 l 1,7,-1
 99 0 l 1,8,-1
 159 0 l 1,9,-1
 159 235 l 1,10,-1
 272 360 l 1,11,-1
 515 0 l 1,12,-1
 589 0 l 1,0,-1
313 -232 m 1,13,14
 367 -178 367 -178 367 -114 c 2,15,-1
 367 -103 l 2,16,17
 367 -66 367 -66 329 -66 c 0,18,19
 287 -66 287 -66 287 -103 c 2,20,-1
 287 -112 l 2,21,22
 287 -140 287 -140 319 -147 c 1,23,24
 310 -190 310 -190 271 -232 c 1,25,-1
 313 -232 l 1,13,14
EndSplineSet
EndChar

StartChar: kcedilla
Encoding: 311 311 246
Width: 513
Flags: W
LayerCount: 2
Fore
SplineSet
495 0 m 1,0,-1
 272 304 l 1,1,-1
 473 512 l 1,2,-1
 403 512 l 1,3,4
 277 382 277 382 153 251 c 1,5,-1
 150 251 l 1,6,-1
 150 740 l 1,7,-1
 93 740 l 1,8,-1
 93 0 l 1,9,-1
 150 0 l 1,10,-1
 150 186 l 1,11,-1
 231 268 l 1,12,-1
 425 0 l 1,13,-1
 495 0 l 1,0,-1
269 -232 m 1,14,15
 323 -178 323 -178 323 -114 c 2,16,-1
 323 -103 l 2,17,18
 323 -66 323 -66 285 -66 c 0,19,20
 243 -66 243 -66 243 -103 c 2,21,-1
 243 -112 l 2,22,23
 243 -140 243 -140 275 -147 c 1,24,25
 266 -190 266 -190 227 -232 c 1,26,-1
 269 -232 l 1,14,15
EndSplineSet
EndChar

StartChar: kgreenlandic
Encoding: 312 312 247
Width: 513
Flags: W
LayerCount: 2
Fore
SplineSet
495 0 m 1,0,-1
 273 302 l 1,1,-1
 478 512 l 1,2,-1
 408 512 l 1,3,4
 280 381 280 381 153 248 c 1,5,-1
 150 248 l 1,6,-1
 150 512 l 1,7,-1
 93 512 l 1,8,-1
 93 0 l 1,9,-1
 150 0 l 1,10,-1
 150 182 l 1,11,-1
 231 265 l 1,12,-1
 425 0 l 1,13,-1
 495 0 l 1,0,-1
EndSplineSet
EndChar

StartChar: Lacute
Encoding: 313 313 248
Width: 491
Flags: W
LayerCount: 2
Fore
SplineSet
467 0 m 1,0,-1
 467 53 l 1,1,-1
 159 53 l 1,2,-1
 159 698 l 1,3,-1
 99 698 l 1,4,-1
 99 0 l 1,5,-1
 467 0 l 1,0,-1
127 760 m 1,6,-1
 237 916 l 1,7,-1
 185 942 l 1,8,-1
 90 778 l 1,9,-1
 127 760 l 1,6,-1
EndSplineSet
EndChar

StartChar: lacute
Encoding: 314 314 249
Width: 264
Flags: W
LayerCount: 2
Fore
SplineSet
119 786 m 1,0,-1
 229 942 l 1,1,-1
 177 968 l 1,2,-1
 82 804 l 1,3,-1
 119 786 l 1,0,-1
229 0 m 1,4,-1
 229 50 l 1,5,-1
 150 50 l 1,6,-1
 150 740 l 1,7,-1
 93 740 l 1,8,-1
 93 62 l 2,9,10
 93 34 93 34 109 17 c 128,-1,11
 125 0 125 0 156 0 c 2,12,-1
 229 0 l 1,4,-1
EndSplineSet
EndChar

StartChar: Lcedilla
Encoding: 315 315 250
Width: 491
Flags: W
LayerCount: 2
Fore
SplineSet
467 0 m 1,0,-1
 467 53 l 1,1,-1
 159 53 l 1,2,-1
 159 698 l 1,3,-1
 99 698 l 1,4,-1
 99 0 l 1,5,-1
 467 0 l 1,0,-1
282 -232 m 1,6,7
 336 -178 336 -178 336 -114 c 2,8,-1
 336 -103 l 2,9,10
 336 -66 336 -66 298 -66 c 0,11,12
 256 -66 256 -66 256 -103 c 2,13,-1
 256 -112 l 2,14,15
 256 -140 256 -140 288 -147 c 1,16,17
 279 -190 279 -190 240 -232 c 1,18,-1
 282 -232 l 1,6,7
EndSplineSet
EndChar

StartChar: lcedilla
Encoding: 316 316 251
Width: 264
Flags: W
LayerCount: 2
Fore
SplineSet
229 0 m 1,0,-1
 229 50 l 1,1,-1
 150 50 l 1,2,-1
 150 740 l 1,3,-1
 93 740 l 1,4,-1
 93 62 l 2,5,6
 93 34 93 34 109 17 c 128,-1,7
 125 0 125 0 156 0 c 2,8,-1
 229 0 l 1,0,-1
149 -232 m 1,9,10
 203 -178 203 -178 203 -114 c 2,11,-1
 203 -103 l 2,12,13
 203 -66 203 -66 165 -66 c 0,14,15
 123 -66 123 -66 123 -103 c 2,16,-1
 123 -112 l 2,17,18
 123 -140 123 -140 155 -147 c 1,19,20
 146 -190 146 -190 107 -232 c 1,21,-1
 149 -232 l 1,9,10
EndSplineSet
EndChar

StartChar: Lcaron
Encoding: 317 317 252
Width: 491
Flags: W
LayerCount: 2
Fore
SplineSet
467 0 m 1,0,-1
 467 53 l 1,1,-1
 159 53 l 1,2,-1
 159 698 l 1,3,-1
 99 698 l 1,4,-1
 99 0 l 1,5,-1
 467 0 l 1,0,-1
285 559 m 1,6,-1
 326 740 l 1,7,-1
 260 740 l 1,8,-1
 246 559 l 1,9,-1
 285 559 l 1,6,-1
EndSplineSet
EndChar

StartChar: lcaron
Encoding: 318 318 253
Width: 264
GlyphClass: 3
Flags: W
LayerCount: 2
Fore
SplineSet
262 559 m 1,0,-1
 303 740 l 1,1,-1
 237 740 l 1,2,-1
 223 559 l 1,3,-1
 262 559 l 1,0,-1
229 0 m 1,4,-1
 229 50 l 1,5,-1
 150 50 l 1,6,-1
 150 740 l 1,7,-1
 93 740 l 1,8,-1
 93 62 l 2,9,10
 93 34 93 34 109 17 c 128,-1,11
 125 0 125 0 156 0 c 2,12,-1
 229 0 l 1,4,-1
EndSplineSet
EndChar

StartChar: Ldot
Encoding: 319 319 254
Width: 491
Flags: W
LayerCount: 2
Fore
SplineSet
467 0 m 1,0,-1
 467 53 l 1,1,-1
 159 53 l 1,2,-1
 159 698 l 1,3,-1
 99 698 l 1,4,-1
 99 0 l 1,5,-1
 467 0 l 1,0,-1
375 284 m 0,6,7
 415 284 415 284 415 318 c 2,8,-1
 415 330 l 2,9,10
 415 346 415 346 405 356 c 128,-1,11
 395 366 395 366 375 366 c 0,12,13
 335 366 335 366 335 330 c 2,14,-1
 335 320 l 2,15,16
 335 304 335 304 345 294 c 128,-1,17
 355 284 355 284 375 284 c 0,6,7
EndSplineSet
EndChar

StartChar: ldot
Encoding: 320 320 255
Width: 326
Flags: W
LayerCount: 2
Fore
SplineSet
284 248 m 0,0,1
 324 248 324 248 324 282 c 2,2,-1
 324 294 l 2,3,4
 324 310 324 310 314 320 c 128,-1,5
 304 330 304 330 284 330 c 0,6,7
 244 330 244 330 244 294 c 2,8,-1
 244 284 l 2,9,10
 244 268 244 268 254 258 c 128,-1,11
 264 248 264 248 284 248 c 0,0,1
229 0 m 1,12,-1
 229 50 l 1,13,-1
 150 50 l 1,14,-1
 150 740 l 1,15,-1
 93 740 l 1,16,-1
 93 62 l 2,17,18
 93 34 93 34 109 17 c 128,-1,19
 125 0 125 0 156 0 c 2,20,-1
 229 0 l 1,12,-1
EndSplineSet
EndChar

StartChar: Lslash
Encoding: 321 321 256
Width: 494
GlyphClass: 3
Flags: W
LayerCount: 2
Fore
SplineSet
470 0 m 1,0,-1
 470 54 l 1,1,-1
 162 54 l 1,2,-1
 162 303 l 1,3,-1
 352 364 l 1,4,-1
 352 415 l 1,5,-1
 162 353 l 1,6,-1
 162 698 l 1,7,-1
 102 698 l 1,8,-1
 102 333 l 1,9,-1
 1 299 l 1,10,-1
 1 251 l 1,11,-1
 102 283 l 1,12,-1
 102 0 l 1,13,-1
 470 0 l 1,0,-1
EndSplineSet
EndChar

StartChar: lslash
Encoding: 322 322 257
Width: 270
GlyphClass: 3
Flags: W
LayerCount: 2
Fore
SplineSet
232 0 m 1,0,-1
 232 50 l 1,1,-1
 153 50 l 1,2,-1
 153 354 l 1,3,-1
 252 387 l 1,4,-1
 252 436 l 1,5,-1
 153 404 l 1,6,-1
 153 740 l 1,7,-1
 96 740 l 1,8,-1
 96 384 l 1,9,-1
 24 361 l 1,10,-1
 24 312 l 1,11,-1
 96 335 l 1,12,-1
 96 62 l 2,13,14
 96 34 96 34 112 17 c 128,-1,15
 128 0 128 0 159 0 c 2,16,-1
 232 0 l 1,0,-1
EndSplineSet
EndChar

StartChar: Nacute
Encoding: 323 323 258
Width: 701
Flags: W
LayerCount: 2
Fore
SplineSet
602 0 m 1,0,-1
 602 698 l 1,1,-1
 544 698 l 1,2,-1
 544 82 l 1,3,-1
 541 82 l 1,4,-1
 174 698 l 1,5,-1
 99 698 l 1,6,-1
 99 0 l 1,7,-1
 157 0 l 1,8,-1
 157 616 l 1,9,-1
 160 616 l 1,10,-1
 527 0 l 1,11,-1
 602 0 l 1,0,-1
347 760 m 1,12,-1
 457 916 l 1,13,-1
 405 942 l 1,14,-1
 310 778 l 1,15,-1
 347 760 l 1,12,-1
EndSplineSet
EndChar

StartChar: nacute
Encoding: 324 324 259
Width: 563
Flags: W
LayerCount: 2
Fore
SplineSet
477 0 m 1,0,-1
 477 329 l 2,1,2
 477 423 477 423 431.5 473.5 c 128,-1,3
 386 524 386 524 304 524 c 0,4,5
 191 524 191 524 153 431 c 1,6,-1
 150 431 l 1,7,-1
 150 512 l 1,8,-1
 93 512 l 1,9,-1
 93 0 l 1,10,-1
 150 0 l 1,11,-1
 150 360 l 2,12,13
 150 416 150 416 192.5 444.5 c 128,-1,14
 235 473 235 473 289 473 c 0,15,16
 420 473 420 473 420 319 c 2,17,-1
 420 0 l 1,18,-1
 477 0 l 1,0,-1
284 586 m 1,19,-1
 394 742 l 1,20,-1
 342 768 l 1,21,-1
 247 604 l 1,22,-1
 284 586 l 1,19,-1
EndSplineSet
EndChar

StartChar: Ncedilla
Encoding: 325 325 260
Width: 701
Flags: W
LayerCount: 2
Fore
SplineSet
602 0 m 1,0,-1
 602 698 l 1,1,-1
 544 698 l 1,2,-1
 544 82 l 1,3,-1
 541 82 l 1,4,-1
 174 698 l 1,5,-1
 99 698 l 1,6,-1
 99 0 l 1,7,-1
 157 0 l 1,8,-1
 157 616 l 1,9,-1
 160 616 l 1,10,-1
 527 0 l 1,11,-1
 602 0 l 1,0,-1
336 -232 m 1,12,13
 390 -178 390 -178 390 -114 c 2,14,-1
 390 -103 l 2,15,16
 390 -66 390 -66 352 -66 c 0,17,18
 310 -66 310 -66 310 -103 c 2,19,-1
 310 -112 l 2,20,21
 310 -140 310 -140 342 -147 c 1,22,23
 333 -190 333 -190 294 -232 c 1,24,-1
 336 -232 l 1,12,13
EndSplineSet
EndChar

StartChar: ncedilla
Encoding: 326 326 261
Width: 563
Flags: W
LayerCount: 2
Fore
SplineSet
477 0 m 1,0,-1
 477 329 l 2,1,2
 477 423 477 423 431.5 473.5 c 128,-1,3
 386 524 386 524 304 524 c 0,4,5
 191 524 191 524 153 431 c 1,6,-1
 150 431 l 1,7,-1
 150 512 l 1,8,-1
 93 512 l 1,9,-1
 93 0 l 1,10,-1
 150 0 l 1,11,-1
 150 360 l 2,12,13
 150 416 150 416 192.5 444.5 c 128,-1,14
 235 473 235 473 289 473 c 0,15,16
 420 473 420 473 420 319 c 2,17,-1
 420 0 l 1,18,-1
 477 0 l 1,0,-1
271 -232 m 1,19,20
 325 -178 325 -178 325 -114 c 2,21,-1
 325 -103 l 2,22,23
 325 -66 325 -66 287 -66 c 0,24,25
 245 -66 245 -66 245 -103 c 2,26,-1
 245 -112 l 2,27,28
 245 -140 245 -140 277 -147 c 1,29,30
 268 -190 268 -190 229 -232 c 1,31,-1
 271 -232 l 1,19,20
EndSplineSet
EndChar

StartChar: Ncaron
Encoding: 327 327 262
Width: 701
Flags: W
LayerCount: 2
Fore
SplineSet
602 0 m 1,0,-1
 602 698 l 1,1,-1
 544 698 l 1,2,-1
 544 82 l 1,3,-1
 541 82 l 1,4,-1
 174 698 l 1,5,-1
 99 698 l 1,6,-1
 99 0 l 1,7,-1
 157 0 l 1,8,-1
 157 616 l 1,9,-1
 160 616 l 1,10,-1
 527 0 l 1,11,-1
 602 0 l 1,0,-1
385 774 m 1,12,-1
 503 914 l 1,13,-1
 471 937 l 1,14,-1
 350 816 l 1,15,-1
 229 937 l 1,16,-1
 197 914 l 1,17,-1
 315 774 l 1,18,-1
 385 774 l 1,12,-1
EndSplineSet
EndChar

StartChar: ncaron
Encoding: 328 328 263
Width: 563
Flags: W
LayerCount: 2
Fore
SplineSet
477 0 m 1,0,-1
 477 329 l 2,1,2
 477 423 477 423 431.5 473.5 c 128,-1,3
 386 524 386 524 304 524 c 0,4,5
 191 524 191 524 153 431 c 1,6,-1
 150 431 l 1,7,-1
 150 512 l 1,8,-1
 93 512 l 1,9,-1
 93 0 l 1,10,-1
 150 0 l 1,11,-1
 150 360 l 2,12,13
 150 416 150 416 192.5 444.5 c 128,-1,14
 235 473 235 473 289 473 c 0,15,16
 420 473 420 473 420 319 c 2,17,-1
 420 0 l 1,18,-1
 477 0 l 1,0,-1
322 601 m 1,19,-1
 440 740 l 1,20,-1
 408 763 l 1,21,-1
 287 642 l 1,22,-1
 166 763 l 1,23,-1
 134 740 l 1,24,-1
 252 601 l 1,25,-1
 322 601 l 1,19,-1
EndSplineSet
EndChar

StartChar: napostrophe
Encoding: 329 329 264
Width: 823
Flags: W
LayerCount: 2
Fore
SplineSet
96 520 m 1,0,1
 136 555 136 555 159 602 c 128,-1,2
 182 649 182 649 182 691 c 2,3,-1
 182 704 l 2,4,5
 182 724 182 724 170.5 737 c 128,-1,6
 159 750 159 750 134 750 c 256,7,8
 109 750 109 750 97.5 737 c 128,-1,9
 86 724 86 724 86 704 c 2,10,-1
 86 692 l 2,11,12
 86 656 86 656 122 651 c 1,13,14
 112 586 112 586 48 520 c 1,15,-1
 96 520 l 1,0,1
737 0 m 1,16,-1
 737 329 l 2,17,18
 737 423 737 423 691.5 473.5 c 128,-1,19
 646 524 646 524 564 524 c 0,20,21
 451 524 451 524 413 431 c 1,22,-1
 410 431 l 1,23,-1
 410 512 l 1,24,-1
 353 512 l 1,25,-1
 353 0 l 1,26,-1
 410 0 l 1,27,-1
 410 360 l 2,28,29
 410 416 410 416 452.5 444.5 c 128,-1,30
 495 473 495 473 549 473 c 0,31,32
 680 473 680 473 680 319 c 2,33,-1
 680 0 l 1,34,-1
 737 0 l 1,16,-1
EndSplineSet
EndChar

StartChar: Eng
Encoding: 330 330 265
Width: 701
Flags: W
LayerCount: 2
Fore
SplineSet
521 -200 m 2,0,1
 563 -200 563 -200 582.5 -176 c 128,-1,2
 602 -152 602 -152 602 -112 c 2,3,-1
 602 698 l 1,4,-1
 544 698 l 1,5,-1
 544 82 l 1,6,-1
 541 82 l 1,7,-1
 174 698 l 1,8,-1
 99 698 l 1,9,-1
 99 0 l 1,10,-1
 157 0 l 1,11,-1
 157 616 l 1,12,-1
 160 616 l 1,13,-1
 527 0 l 1,14,-1
 544 0 l 1,15,-1
 544 -147 l 1,16,-1
 458 -147 l 1,17,-1
 458 -200 l 1,18,-1
 521 -200 l 2,0,1
EndSplineSet
EndChar

StartChar: eng
Encoding: 331 331 266
Width: 563
Flags: W
LayerCount: 2
Fore
SplineSet
398 -200 m 2,0,1
 477 -200 477 -200 477 -117 c 2,2,-1
 477 329 l 2,3,4
 477 423 477 423 431.5 473.5 c 128,-1,5
 386 524 386 524 304 524 c 0,6,7
 191 524 191 524 153 431 c 1,8,-1
 150 431 l 1,9,-1
 150 512 l 1,10,-1
 93 512 l 1,11,-1
 93 0 l 1,12,-1
 150 0 l 1,13,-1
 150 360 l 2,14,15
 150 416 150 416 192.5 444.5 c 128,-1,16
 235 473 235 473 289 473 c 0,17,18
 420 473 420 473 420 319 c 2,19,-1
 420 -150 l 1,20,-1
 336 -150 l 1,21,-1
 336 -200 l 1,22,-1
 398 -200 l 2,0,1
EndSplineSet
EndChar

StartChar: Omacron
Encoding: 332 332 267
Width: 697
Flags: W
LayerCount: 2
Fore
SplineSet
349 -12 m 0,0,1
 482 -12 482 -12 558 80 c 128,-1,2
 634 172 634 172 634 349 c 256,3,4
 634 526 634 526 558 618 c 128,-1,5
 482 710 482 710 349 710 c 0,6,7
 215 710 215 710 139 618.5 c 128,-1,8
 63 527 63 527 63 349 c 256,9,10
 63 171 63 171 139 79.5 c 128,-1,11
 215 -12 215 -12 349 -12 c 0,0,1
349 42 m 0,12,13
 249 42 249 42 188 111.5 c 128,-1,14
 127 181 127 181 127 305 c 2,15,-1
 127 393 l 2,16,17
 127 518 127 518 188 587 c 128,-1,18
 249 656 249 656 349 656 c 0,19,20
 450 656 450 656 510 587 c 128,-1,21
 570 518 570 518 570 393 c 2,22,-1
 570 305 l 2,23,24
 570 181 570 181 510 111.5 c 128,-1,25
 450 42 450 42 349 42 c 0,12,13
485 819 m 1,26,-1
 485 868 l 1,27,-1
 213 868 l 1,28,-1
 213 819 l 1,29,-1
 485 819 l 1,26,-1
EndSplineSet
EndChar

StartChar: omacron
Encoding: 333 333 268
Width: 550
Flags: W
LayerCount: 2
Fore
SplineSet
275 -12 m 256,0,1
 377 -12 377 -12 437.5 59 c 128,-1,2
 498 130 498 130 498 256 c 256,3,4
 498 382 498 382 437.5 453 c 128,-1,5
 377 524 377 524 275 524 c 256,6,7
 173 524 173 524 112.5 453 c 128,-1,8
 52 382 52 382 52 256 c 256,9,10
 52 130 52 130 112.5 59 c 128,-1,11
 173 -12 173 -12 275 -12 c 256,0,1
275 39 m 256,12,13
 200 39 200 39 156.5 86.5 c 128,-1,14
 113 134 113 134 113 224 c 2,15,-1
 113 288 l 2,16,17
 113 379 113 379 156.5 426 c 128,-1,18
 200 473 200 473 275 473 c 256,19,20
 350 473 350 473 393.5 425.5 c 128,-1,21
 437 378 437 378 437 288 c 2,22,-1
 437 224 l 2,23,24
 437 133 437 133 393.5 86 c 128,-1,25
 350 39 350 39 275 39 c 256,12,13
412 645 m 1,26,-1
 412 694 l 1,27,-1
 140 694 l 1,28,-1
 140 645 l 1,29,-1
 412 645 l 1,26,-1
EndSplineSet
EndChar

StartChar: Obreve
Encoding: 334 334 269
Width: 697
Flags: W
LayerCount: 2
Fore
SplineSet
349 -12 m 0,0,1
 482 -12 482 -12 558 80 c 128,-1,2
 634 172 634 172 634 349 c 256,3,4
 634 526 634 526 558 618 c 128,-1,5
 482 710 482 710 349 710 c 0,6,7
 215 710 215 710 139 618.5 c 128,-1,8
 63 527 63 527 63 349 c 256,9,10
 63 171 63 171 139 79.5 c 128,-1,11
 215 -12 215 -12 349 -12 c 0,0,1
349 42 m 0,12,13
 249 42 249 42 188 111.5 c 128,-1,14
 127 181 127 181 127 305 c 2,15,-1
 127 393 l 2,16,17
 127 518 127 518 188 587 c 128,-1,18
 249 656 249 656 349 656 c 0,19,20
 450 656 450 656 510 587 c 128,-1,21
 570 518 570 518 570 393 c 2,22,-1
 570 305 l 2,23,24
 570 181 570 181 510 111.5 c 128,-1,25
 450 42 450 42 349 42 c 0,12,13
349 774 m 0,26,27
 383 774 383 774 407 784 c 0,28,29
 462 808 462 808 493 896 c 1,30,-1
 460 912 l 1,31,-1
 441 881 l 2,32,33
 423 849 423 849 404 834.5 c 128,-1,34
 385 820 385 820 349 820 c 256,35,36
 313 820 313 820 294 834.5 c 128,-1,37
 275 849 275 849 257 881 c 2,38,-1
 238 912 l 1,39,-1
 205 896 l 1,40,41
 222 848 222 848 254 811 c 128,-1,42
 286 774 286 774 349 774 c 0,26,27
EndSplineSet
EndChar

StartChar: obreve
Encoding: 335 335 270
Width: 550
Flags: W
LayerCount: 2
Fore
SplineSet
275 -12 m 256,0,1
 377 -12 377 -12 437.5 59 c 128,-1,2
 498 130 498 130 498 256 c 256,3,4
 498 382 498 382 437.5 453 c 128,-1,5
 377 524 377 524 275 524 c 256,6,7
 173 524 173 524 112.5 453 c 128,-1,8
 52 382 52 382 52 256 c 256,9,10
 52 130 52 130 112.5 59 c 128,-1,11
 173 -12 173 -12 275 -12 c 256,0,1
275 39 m 256,12,13
 200 39 200 39 156.5 86.5 c 128,-1,14
 113 134 113 134 113 224 c 2,15,-1
 113 288 l 2,16,17
 113 379 113 379 156.5 426 c 128,-1,18
 200 473 200 473 275 473 c 256,19,20
 350 473 350 473 393.5 425.5 c 128,-1,21
 437 378 437 378 437 288 c 2,22,-1
 437 224 l 2,23,24
 437 133 437 133 393.5 86 c 128,-1,25
 350 39 350 39 275 39 c 256,12,13
276 600 m 0,26,27
 310 600 310 600 334 610 c 0,28,29
 389 634 389 634 420 722 c 1,30,-1
 387 738 l 1,31,-1
 368 707 l 2,32,33
 350 675 350 675 331 660.5 c 128,-1,34
 312 646 312 646 276 646 c 256,35,36
 240 646 240 646 221 660.5 c 128,-1,37
 202 675 202 675 184 707 c 2,38,-1
 165 738 l 1,39,-1
 132 722 l 1,40,41
 149 674 149 674 181 637 c 128,-1,42
 213 600 213 600 276 600 c 0,26,27
EndSplineSet
EndChar

StartChar: Odblacute
Encoding: 336 336 271
Width: 697
Flags: W
LayerCount: 2
Fore
SplineSet
349 -12 m 0,0,1
 482 -12 482 -12 558 80 c 128,-1,2
 634 172 634 172 634 349 c 256,3,4
 634 526 634 526 558 618 c 128,-1,5
 482 710 482 710 349 710 c 0,6,7
 215 710 215 710 139 618.5 c 128,-1,8
 63 527 63 527 63 349 c 256,9,10
 63 171 63 171 139 79.5 c 128,-1,11
 215 -12 215 -12 349 -12 c 0,0,1
349 42 m 0,12,13
 249 42 249 42 188 111.5 c 128,-1,14
 127 181 127 181 127 305 c 2,15,-1
 127 393 l 2,16,17
 127 518 127 518 188 587 c 128,-1,18
 249 656 249 656 349 656 c 0,19,20
 450 656 450 656 510 587 c 128,-1,21
 570 518 570 518 570 393 c 2,22,-1
 570 305 l 2,23,24
 570 181 570 181 510 111.5 c 128,-1,25
 450 42 450 42 349 42 c 0,12,13
273 760 m 1,26,-1
 383 917 l 1,27,-1
 333 941 l 1,28,-1
 238 778 l 1,29,-1
 273 760 l 1,26,-1
433 760 m 1,30,-1
 543 917 l 1,31,-1
 493 941 l 1,32,-1
 398 778 l 1,33,-1
 433 760 l 1,30,-1
EndSplineSet
EndChar

StartChar: odblacute
Encoding: 337 337 272
Width: 550
Flags: W
LayerCount: 2
Fore
SplineSet
275 -12 m 256,0,1
 377 -12 377 -12 437.5 59 c 128,-1,2
 498 130 498 130 498 256 c 256,3,4
 498 382 498 382 437.5 453 c 128,-1,5
 377 524 377 524 275 524 c 256,6,7
 173 524 173 524 112.5 453 c 128,-1,8
 52 382 52 382 52 256 c 256,9,10
 52 130 52 130 112.5 59 c 128,-1,11
 173 -12 173 -12 275 -12 c 256,0,1
275 39 m 256,12,13
 200 39 200 39 156.5 86.5 c 128,-1,14
 113 134 113 134 113 224 c 2,15,-1
 113 288 l 2,16,17
 113 379 113 379 156.5 426 c 128,-1,18
 200 473 200 473 275 473 c 256,19,20
 350 473 350 473 393.5 425.5 c 128,-1,21
 437 378 437 378 437 288 c 2,22,-1
 437 224 l 2,23,24
 437 133 437 133 393.5 86 c 128,-1,25
 350 39 350 39 275 39 c 256,12,13
200 586 m 1,26,-1
 310 743 l 1,27,-1
 260 767 l 1,28,-1
 165 604 l 1,29,-1
 200 586 l 1,26,-1
360 586 m 1,30,-1
 470 743 l 1,31,-1
 420 767 l 1,32,-1
 325 604 l 1,33,-1
 360 586 l 1,30,-1
EndSplineSet
EndChar

StartChar: OE
Encoding: 338 338 273
Width: 977
Flags: W
LayerCount: 2
Fore
SplineSet
368 -12 m 0,0,1
 439 -12 439 -12 502 0 c 1,2,-1
 911 0 l 1,3,-1
 911 53 l 1,4,-1
 562 53 l 1,5,-1
 562 328 l 1,6,-1
 894 328 l 1,7,-1
 894 381 l 1,8,-1
 562 381 l 1,9,-1
 562 645 l 1,10,-1
 911 645 l 1,11,-1
 911 698 l 1,12,-1
 502 698 l 1,13,14
 439 710 439 710 368 710 c 0,15,16
 222 710 222 710 142.5 619 c 128,-1,17
 63 528 63 528 63 349 c 256,18,19
 63 170 63 170 142.5 79 c 128,-1,20
 222 -12 222 -12 368 -12 c 0,0,1
374 42 m 0,21,22
 252 42 252 42 189.5 111 c 128,-1,23
 127 180 127 180 127 305 c 2,24,-1
 127 393 l 2,25,26
 127 518 127 518 189.5 587 c 128,-1,27
 252 656 252 656 374 656 c 0,28,29
 445 656 445 656 502 640 c 1,30,-1
 502 58 l 1,31,32
 445 42 445 42 374 42 c 0,21,22
EndSplineSet
EndChar

StartChar: oe
Encoding: 339 339 274
Width: 929
Flags: W
LayerCount: 2
Fore
SplineSet
276 39 m 0,0,1
 201 39 201 39 157 86.5 c 128,-1,2
 113 134 113 134 113 224 c 2,3,-1
 113 288 l 2,4,5
 113 379 113 379 157 426 c 128,-1,6
 201 473 201 473 276 473 c 0,7,8
 350 473 350 473 394 426 c 128,-1,9
 438 379 438 379 438 288 c 2,10,-1
 438 224 l 2,11,12
 438 134 438 134 394 86.5 c 128,-1,13
 350 39 350 39 276 39 c 0,0,1
815 289 m 1,14,-1
 498 289 l 1,15,16
 498 374 498 374 542 425 c 128,-1,17
 586 476 586 476 662 476 c 0,18,19
 730 476 730 476 773 427 c 0,20,21
 815 377 815 377 815 297 c 2,22,-1
 815 289 l 1,14,-1
667 -12 m 0,23,24
 739 -12 739 -12 789.5 23.5 c 128,-1,25
 840 59 840 59 862 113 c 1,26,-1
 820 141 l 1,27,28
 775 38 775 38 667 38 c 0,29,30
 586 38 586 38 542 88 c 128,-1,31
 498 138 498 138 498 220 c 2,32,-1
 498 245 l 1,33,-1
 877 245 l 1,34,-1
 877 272 l 2,35,36
 877 385 877 385 818.5 454.5 c 128,-1,37
 760 524 760 524 662 524 c 0,38,39
 520 524 520 524 472 393 c 1,40,-1
 468 393 l 1,41,42
 416 524 416 524 276 524 c 0,43,44
 174 524 174 524 113 453 c 128,-1,45
 52 382 52 382 52 256 c 256,46,47
 52 130 52 130 113 59 c 128,-1,48
 174 -12 174 -12 276 -12 c 0,49,50
 414 -12 414 -12 467 120 c 1,51,-1
 471 120 l 1,52,53
 493 57 493 57 542.5 22.5 c 128,-1,54
 592 -12 592 -12 667 -12 c 0,23,24
EndSplineSet
EndChar

StartChar: Racute
Encoding: 340 340 275
Width: 636
Flags: W
LayerCount: 2
Fore
SplineSet
578 0 m 1,0,-1
 406 313 l 1,1,2
 481 323 481 323 520.5 373 c 128,-1,3
 560 423 560 423 560 504 c 0,4,5
 560 596 560 596 511.5 647 c 128,-1,6
 463 698 463 698 373 698 c 2,7,-1
 99 698 l 1,8,-1
 99 0 l 1,9,-1
 159 0 l 1,10,-1
 159 309 l 1,11,-1
 344 309 l 1,12,-1
 511 0 l 1,13,-1
 578 0 l 1,0,-1
373 360 m 2,14,-1
 159 360 l 1,15,-1
 159 645 l 1,16,-1
 373 645 l 2,17,18
 433 645 433 645 464.5 611.5 c 128,-1,19
 496 578 496 578 496 527 c 2,20,-1
 496 479 l 2,21,22
 496 427 496 427 464.5 393.5 c 128,-1,23
 433 360 433 360 373 360 c 2,14,-1
303 760 m 1,24,-1
 413 916 l 1,25,-1
 361 942 l 1,26,-1
 266 778 l 1,27,-1
 303 760 l 1,24,-1
EndSplineSet
EndChar

StartChar: racute
Encoding: 341 341 276
Width: 357
Flags: W
LayerCount: 2
Fore
SplineSet
150 0 m 1,0,-1
 150 350 l 2,1,2
 150 400 150 400 191 428 c 128,-1,3
 232 456 232 456 296 456 c 2,4,-1
 341 456 l 1,5,-1
 341 512 l 1,6,-1
 307 512 l 2,7,8
 190 512 190 512 154 420 c 1,9,-1
 150 420 l 1,10,-1
 150 512 l 1,11,-1
 93 512 l 1,12,-1
 93 0 l 1,13,-1
 150 0 l 1,0,-1
218 586 m 1,14,-1
 328 742 l 1,15,-1
 276 768 l 1,16,-1
 181 604 l 1,17,-1
 218 586 l 1,14,-1
EndSplineSet
EndChar

StartChar: Rcedilla
Encoding: 342 342 277
Width: 636
GlyphClass: 2
Flags: W
LayerCount: 2
Fore
SplineSet
578 0 m 1,0,-1
 406 313 l 1,1,2
 481 323 481 323 520.5 373 c 128,-1,3
 560 423 560 423 560 504 c 0,4,5
 560 596 560 596 511.5 647 c 128,-1,6
 463 698 463 698 373 698 c 2,7,-1
 99 698 l 1,8,-1
 99 0 l 1,9,-1
 159 0 l 1,10,-1
 159 309 l 1,11,-1
 344 309 l 1,12,-1
 511 0 l 1,13,-1
 578 0 l 1,0,-1
373 360 m 2,14,-1
 159 360 l 1,15,-1
 159 645 l 1,16,-1
 373 645 l 2,17,18
 433 645 433 645 464.5 611.5 c 128,-1,19
 496 578 496 578 496 527 c 2,20,-1
 496 479 l 2,21,22
 496 427 496 427 464.5 393.5 c 128,-1,23
 433 360 433 360 373 360 c 2,14,-1
303 -232 m 1,24,25
 357 -178 357 -178 357 -114 c 2,26,-1
 357 -103 l 2,27,28
 357 -66 357 -66 319 -66 c 0,29,30
 277 -66 277 -66 277 -103 c 2,31,-1
 277 -112 l 2,32,33
 277 -140 277 -140 309 -147 c 1,34,35
 300 -190 300 -190 261 -232 c 1,36,-1
 303 -232 l 1,24,25
EndSplineSet
EndChar

StartChar: rcedilla
Encoding: 343 343 278
Width: 357
GlyphClass: 5
Flags: W
LayerCount: 2
Fore
SplineSet
150 0 m 1,0,-1
 150 350 l 2,1,2
 150 400 150 400 191 428 c 128,-1,3
 232 456 232 456 296 456 c 2,4,-1
 341 456 l 1,5,-1
 341 512 l 1,6,-1
 307 512 l 2,7,8
 190 512 190 512 154 420 c 1,9,-1
 150 420 l 1,10,-1
 150 512 l 1,11,-1
 93 512 l 1,12,-1
 93 0 l 1,13,-1
 150 0 l 1,0,-1
109 -232 m 1,14,15
 163 -178 163 -178 163 -114 c 2,16,-1
 163 -103 l 2,17,18
 163 -66 163 -66 125 -66 c 0,19,20
 83 -66 83 -66 83 -103 c 2,21,-1
 83 -112 l 2,22,23
 83 -140 83 -140 115 -147 c 1,24,25
 106 -190 106 -190 67 -232 c 1,26,-1
 109 -232 l 1,14,15
EndSplineSet
EndChar

StartChar: Rcaron
Encoding: 344 344 279
Width: 636
GlyphClass: 7
Flags: W
LayerCount: 2
Fore
SplineSet
578 0 m 1,0,-1
 406 313 l 1,1,2
 481 323 481 323 520.5 373 c 128,-1,3
 560 423 560 423 560 504 c 0,4,5
 560 596 560 596 511.5 647 c 128,-1,6
 463 698 463 698 373 698 c 2,7,-1
 99 698 l 1,8,-1
 99 0 l 1,9,-1
 159 0 l 1,10,-1
 159 309 l 1,11,-1
 344 309 l 1,12,-1
 511 0 l 1,13,-1
 578 0 l 1,0,-1
373 360 m 2,14,-1
 159 360 l 1,15,-1
 159 645 l 1,16,-1
 373 645 l 2,17,18
 433 645 433 645 464.5 611.5 c 128,-1,19
 496 578 496 578 496 527 c 2,20,-1
 496 479 l 2,21,22
 496 427 496 427 464.5 393.5 c 128,-1,23
 433 360 433 360 373 360 c 2,14,-1
341 774 m 1,24,-1
 459 914 l 1,25,-1
 427 937 l 1,26,-1
 306 816 l 1,27,-1
 185 937 l 1,28,-1
 153 914 l 1,29,-1
 271 774 l 1,30,-1
 341 774 l 1,24,-1
EndSplineSet
EndChar

StartChar: rcaron
Encoding: 345 345 280
Width: 357
GlyphClass: 3
Flags: W
LayerCount: 2
Fore
SplineSet
150 0 m 1,0,-1
 150 350 l 2,1,2
 150 400 150 400 191 428 c 128,-1,3
 232 456 232 456 296 456 c 2,4,-1
 341 456 l 1,5,-1
 341 512 l 1,6,-1
 307 512 l 2,7,8
 190 512 190 512 154 420 c 1,9,-1
 150 420 l 1,10,-1
 150 512 l 1,11,-1
 93 512 l 1,12,-1
 93 0 l 1,13,-1
 150 0 l 1,0,-1
256 601 m 1,14,-1
 374 740 l 1,15,-1
 342 763 l 1,16,-1
 221 642 l 1,17,-1
 100 763 l 1,18,-1
 68 740 l 1,19,-1
 186 601 l 1,20,-1
 256 601 l 1,14,-1
EndSplineSet
EndChar

StartChar: Sacute
Encoding: 346 346 281
Width: 568
Flags: W
LayerCount: 2
Fore
SplineSet
284 -12 m 0,0,1
 391 -12 391 -12 452 41 c 128,-1,2
 513 94 513 94 513 190 c 0,3,4
 513 262 513 262 470.5 310 c 128,-1,5
 428 358 428 358 325 381 c 2,6,-1
 263 394 l 2,7,8
 197 406 197 406 158.5 435.5 c 128,-1,9
 120 465 120 465 120 527 c 0,10,11
 120 592 120 592 163.5 624.5 c 128,-1,12
 207 657 207 657 282 657 c 0,13,14
 401 657 401 657 461 570 c 1,15,-1
 506 603 l 1,16,17
 433 710 433 710 285 710 c 0,18,19
 185 710 185 710 123 663.5 c 128,-1,20
 61 617 61 617 61 525 c 0,21,22
 61 452 61 452 106.5 405 c 128,-1,23
 152 358 152 358 251 338 c 2,24,-1
 313 325 l 2,25,26
 380 312 380 312 417 281.5 c 128,-1,27
 454 251 454 251 454 187 c 0,28,29
 454 118 454 118 410.5 79.5 c 128,-1,30
 367 41 367 41 286 41 c 0,31,32
 217 41 217 41 170 68 c 128,-1,33
 123 95 123 95 87 144 c 1,34,-1
 42 107 l 1,35,36
 82 52 82 52 140 20 c 128,-1,37
 198 -12 198 -12 284 -12 c 0,0,1
278 760 m 1,38,-1
 388 916 l 1,39,-1
 336 942 l 1,40,-1
 241 778 l 1,41,-1
 278 760 l 1,38,-1
EndSplineSet
EndChar

StartChar: sacute
Encoding: 347 347 282
Width: 477
Flags: W
LayerCount: 2
Fore
SplineSet
238 -12 m 0,0,1
 323 -12 323 -12 371.5 28 c 128,-1,2
 420 68 420 68 420 140 c 0,3,4
 420 202 420 202 382.5 236.5 c 128,-1,5
 345 271 345 271 267 283 c 2,6,-1
 226 289 l 2,7,8
 171 297 171 297 143.5 317.5 c 128,-1,9
 116 338 116 338 116 383 c 0,10,11
 116 472 116 472 232 475 c 0,12,13
 321 475 321 475 372 410 c 1,14,-1
 410 445 l 1,15,16
 381 481 381 481 340 502.5 c 128,-1,17
 299 524 299 524 235 524 c 0,18,19
 162 524 162 524 111.5 488 c 128,-1,20
 61 452 61 452 61 380 c 0,21,22
 61 257 61 257 218 237 c 1,23,-1
 260 230 l 1,24,25
 365 217 365 217 365 134 c 0,26,27
 365 40 365 40 242 37 c 0,28,29
 140 37 140 37 83 119 c 1,30,-1
 41 86 l 1,31,32
 76 38 76 38 123.5 13 c 128,-1,33
 171 -12 171 -12 238 -12 c 0,0,1
230 586 m 1,34,-1
 340 742 l 1,35,-1
 288 768 l 1,36,-1
 193 604 l 1,37,-1
 230 586 l 1,34,-1
EndSplineSet
EndChar

StartChar: Scircumflex
Encoding: 348 348 283
Width: 568
GlyphClass: 2
Flags: W
LayerCount: 2
Fore
SplineSet
284 -12 m 0,0,1
 391 -12 391 -12 452 41 c 128,-1,2
 513 94 513 94 513 190 c 0,3,4
 513 262 513 262 470.5 310 c 128,-1,5
 428 358 428 358 325 381 c 2,6,-1
 263 394 l 2,7,8
 197 406 197 406 158.5 435.5 c 128,-1,9
 120 465 120 465 120 527 c 0,10,11
 120 592 120 592 163.5 624.5 c 128,-1,12
 207 657 207 657 282 657 c 0,13,14
 401 657 401 657 461 570 c 1,15,-1
 506 603 l 1,16,17
 433 710 433 710 285 710 c 0,18,19
 185 710 185 710 123 663.5 c 128,-1,20
 61 617 61 617 61 525 c 0,21,22
 61 452 61 452 106.5 405 c 128,-1,23
 152 358 152 358 251 338 c 2,24,-1
 313 325 l 2,25,26
 380 312 380 312 417 281.5 c 128,-1,27
 454 251 454 251 454 187 c 0,28,29
 454 118 454 118 410.5 79.5 c 128,-1,30
 367 41 367 41 286 41 c 0,31,32
 217 41 217 41 170 68 c 128,-1,33
 123 95 123 95 87 144 c 1,34,-1
 42 107 l 1,35,36
 82 52 82 52 140 20 c 128,-1,37
 198 -12 198 -12 284 -12 c 0,0,1
402 768 m 1,38,-1
 434 791 l 1,39,-1
 316 930 l 1,40,-1
 246 930 l 1,41,-1
 128 791 l 1,42,-1
 160 768 l 1,43,-1
 281 888 l 1,44,-1
 402 768 l 1,38,-1
EndSplineSet
EndChar

StartChar: scircumflex
Encoding: 349 349 284
Width: 477
Flags: W
LayerCount: 2
Fore
SplineSet
238 -12 m 0,0,1
 323 -12 323 -12 371.5 28 c 128,-1,2
 420 68 420 68 420 140 c 0,3,4
 420 202 420 202 382.5 236.5 c 128,-1,5
 345 271 345 271 267 283 c 2,6,-1
 226 289 l 2,7,8
 171 297 171 297 143.5 317.5 c 128,-1,9
 116 338 116 338 116 383 c 0,10,11
 116 472 116 472 232 475 c 0,12,13
 321 475 321 475 372 410 c 1,14,-1
 410 445 l 1,15,16
 381 481 381 481 340 502.5 c 128,-1,17
 299 524 299 524 235 524 c 0,18,19
 162 524 162 524 111.5 488 c 128,-1,20
 61 452 61 452 61 380 c 0,21,22
 61 257 61 257 218 237 c 1,23,-1
 260 230 l 1,24,25
 365 217 365 217 365 134 c 0,26,27
 365 40 365 40 242 37 c 0,28,29
 140 37 140 37 83 119 c 1,30,-1
 41 86 l 1,31,32
 76 38 76 38 123.5 13 c 128,-1,33
 171 -12 171 -12 238 -12 c 0,0,1
354 594 m 1,34,-1
 386 617 l 1,35,-1
 268 756 l 1,36,-1
 198 756 l 1,37,-1
 80 617 l 1,38,-1
 112 594 l 1,39,-1
 233 715 l 1,40,-1
 354 594 l 1,34,-1
EndSplineSet
EndChar

StartChar: Scedilla
Encoding: 350 350 285
Width: 568
Flags: W
LayerCount: 2
Fore
SplineSet
293 -205 m 0,0,1
 335 -205 335 -205 363.5 -184.5 c 128,-1,2
 392 -164 392 -164 392 -127 c 0,3,4
 392 -96 392 -96 373 -79.5 c 128,-1,5
 354 -63 354 -63 325 -63 c 0,6,7
 309 -63 309 -63 289 -68 c 1,8,-1
 287 -66 l 1,9,-1
 299 -11 l 1,10,11
 400 -7 400 -7 456.5 45 c 128,-1,12
 513 97 513 97 513 190 c 0,13,14
 513 262 513 262 470.5 310 c 128,-1,15
 428 358 428 358 325 381 c 2,16,-1
 263 394 l 2,17,18
 197 406 197 406 158.5 435.5 c 128,-1,19
 120 465 120 465 120 527 c 0,20,21
 120 592 120 592 163.5 624.5 c 128,-1,22
 207 657 207 657 282 657 c 0,23,24
 401 657 401 657 461 570 c 1,25,-1
 506 603 l 1,26,27
 433 710 433 710 285 710 c 0,28,29
 185 710 185 710 123 663.5 c 128,-1,30
 61 617 61 617 61 525 c 0,31,32
 61 452 61 452 106.5 405 c 128,-1,33
 152 358 152 358 251 338 c 2,34,-1
 313 325 l 2,35,36
 380 311 380 311 417 281.5 c 128,-1,37
 454 252 454 252 454 187 c 0,38,39
 454 118 454 118 410.5 79.5 c 128,-1,40
 367 41 367 41 286 41 c 0,41,42
 217 41 217 41 170 68 c 128,-1,43
 123 95 123 95 87 144 c 1,44,-1
 42 107 l 1,45,46
 123 -3 123 -3 261 -11 c 1,47,-1
 247 -80 l 1,48,-1
 278 -83 l 2,49,50
 317 -88 317 -88 330 -98.5 c 128,-1,51
 343 -109 343 -109 343 -126 c 0,52,53
 343 -146 343 -146 329 -155.5 c 128,-1,54
 315 -165 315 -165 293 -165 c 0,55,56
 251 -165 251 -165 229 -137 c 1,57,-1
 201 -168 l 1,58,59
 211 -183 211 -183 234 -194 c 128,-1,60
 257 -205 257 -205 293 -205 c 0,0,1
EndSplineSet
EndChar

StartChar: scedilla
Encoding: 351 351 286
Width: 477
Flags: W
LayerCount: 2
Fore
SplineSet
250 -205 m 0,0,1
 292 -205 292 -205 320.5 -184.5 c 128,-1,2
 349 -164 349 -164 349 -127 c 0,3,4
 349 -96 349 -96 330 -79.5 c 128,-1,5
 311 -63 311 -63 282 -63 c 0,6,7
 266 -63 266 -63 246 -68 c 1,8,-1
 244 -66 l 1,9,-1
 256 -11 l 1,10,11
 333 -7 333 -7 376.5 32.5 c 128,-1,12
 420 72 420 72 420 140 c 0,13,14
 420 202 420 202 382.5 236.5 c 128,-1,15
 345 271 345 271 267 283 c 2,16,-1
 226 289 l 2,17,18
 171 296 171 296 143.5 317 c 128,-1,19
 116 338 116 338 116 383 c 0,20,21
 116 472 116 472 232 475 c 0,22,23
 321 475 321 475 372 410 c 1,24,-1
 410 445 l 1,25,26
 381 481 381 481 340 502.5 c 128,-1,27
 299 524 299 524 235 524 c 0,28,29
 162 524 162 524 111.5 488 c 128,-1,30
 61 452 61 452 61 380 c 0,31,32
 61 257 61 257 218 237 c 1,33,-1
 260 230 l 1,34,35
 365 217 365 217 365 134 c 0,36,37
 365 40 365 40 242 37 c 0,38,39
 140 37 140 37 83 119 c 1,40,-1
 41 86 l 1,41,42
 103 -3 103 -3 218 -11 c 1,43,-1
 204 -80 l 1,44,-1
 235 -83 l 2,45,46
 274 -88 274 -88 287 -98.5 c 128,-1,47
 300 -109 300 -109 300 -126 c 0,48,49
 300 -146 300 -146 286 -155.5 c 128,-1,50
 272 -165 272 -165 250 -165 c 0,51,52
 208 -165 208 -165 186 -137 c 1,53,-1
 158 -168 l 1,54,55
 168 -183 168 -183 191 -194 c 128,-1,56
 214 -205 214 -205 250 -205 c 0,0,1
EndSplineSet
EndChar

StartChar: Scaron
Encoding: 352 352 287
Width: 568
GlyphClass: 2
Flags: W
LayerCount: 2
Fore
SplineSet
284 -12 m 0,0,1
 391 -12 391 -12 452 41 c 128,-1,2
 513 94 513 94 513 190 c 0,3,4
 513 262 513 262 470.5 310 c 128,-1,5
 428 358 428 358 325 381 c 2,6,-1
 263 394 l 2,7,8
 197 406 197 406 158.5 435.5 c 128,-1,9
 120 465 120 465 120 527 c 0,10,11
 120 592 120 592 163.5 624.5 c 128,-1,12
 207 657 207 657 282 657 c 0,13,14
 401 657 401 657 461 570 c 1,15,-1
 506 603 l 1,16,17
 433 710 433 710 285 710 c 0,18,19
 185 710 185 710 123 663.5 c 128,-1,20
 61 617 61 617 61 525 c 0,21,22
 61 452 61 452 106.5 405 c 128,-1,23
 152 358 152 358 251 338 c 2,24,-1
 313 325 l 2,25,26
 380 312 380 312 417 281.5 c 128,-1,27
 454 251 454 251 454 187 c 0,28,29
 454 118 454 118 410.5 79.5 c 128,-1,30
 367 41 367 41 286 41 c 0,31,32
 217 41 217 41 170 68 c 128,-1,33
 123 95 123 95 87 144 c 1,34,-1
 42 107 l 1,35,36
 82 52 82 52 140 20 c 128,-1,37
 198 -12 198 -12 284 -12 c 0,0,1
316 774 m 1,38,-1
 434 914 l 1,39,-1
 402 937 l 1,40,-1
 281 816 l 1,41,-1
 160 937 l 1,42,-1
 128 914 l 1,43,-1
 246 774 l 1,44,-1
 316 774 l 1,38,-1
EndSplineSet
EndChar

StartChar: scaron
Encoding: 353 353 288
Width: 477
GlyphClass: 2
Flags: W
LayerCount: 2
Fore
SplineSet
238 -12 m 0,0,1
 323 -12 323 -12 371.5 28 c 128,-1,2
 420 68 420 68 420 140 c 0,3,4
 420 202 420 202 382.5 236.5 c 128,-1,5
 345 271 345 271 267 283 c 2,6,-1
 226 289 l 2,7,8
 171 297 171 297 143.5 317.5 c 128,-1,9
 116 338 116 338 116 383 c 0,10,11
 116 472 116 472 232 475 c 0,12,13
 321 475 321 475 372 410 c 1,14,-1
 410 445 l 1,15,16
 381 481 381 481 340 502.5 c 128,-1,17
 299 524 299 524 235 524 c 0,18,19
 162 524 162 524 111.5 488 c 128,-1,20
 61 452 61 452 61 380 c 0,21,22
 61 257 61 257 218 237 c 1,23,-1
 260 230 l 1,24,25
 365 217 365 217 365 134 c 0,26,27
 365 40 365 40 242 37 c 0,28,29
 140 37 140 37 83 119 c 1,30,-1
 41 86 l 1,31,32
 76 38 76 38 123.5 13 c 128,-1,33
 171 -12 171 -12 238 -12 c 0,0,1
268 601 m 1,34,-1
 386 740 l 1,35,-1
 354 763 l 1,36,-1
 233 642 l 1,37,-1
 112 763 l 1,38,-1
 80 740 l 1,39,-1
 198 601 l 1,40,-1
 268 601 l 1,34,-1
EndSplineSet
EndChar

StartChar: Tcedilla
Encoding: 354 354 289
Width: 568
GlyphClass: 2
Flags: W
LayerCount: 2
Fore
SplineSet
314 0 m 1,0,-1
 314 645 l 1,1,-1
 548 645 l 1,2,-1
 548 698 l 1,3,-1
 20 698 l 1,4,-1
 20 645 l 1,5,-1
 254 645 l 1,6,-1
 254 0 l 1,7,-1
 314 0 l 1,0,-1
270 -232 m 1,8,9
 324 -178 324 -178 324 -114 c 2,10,-1
 324 -103 l 2,11,12
 324 -66 324 -66 286 -66 c 0,13,14
 244 -66 244 -66 244 -103 c 2,15,-1
 244 -112 l 2,16,17
 244 -140 244 -140 276 -147 c 1,18,19
 267 -190 267 -190 228 -232 c 1,20,-1
 270 -232 l 1,8,9
EndSplineSet
EndChar

StartChar: tcedilla
Encoding: 355 355 290
Width: 335
GlyphClass: 3
Flags: W
LayerCount: 2
Fore
SplineSet
283 0 m 1,0,-1
 283 50 l 1,1,-1
 175 50 l 1,2,-1
 175 462 l 1,3,-1
 291 462 l 1,4,-1
 291 512 l 1,5,-1
 175 512 l 1,6,-1
 175 655 l 1,7,-1
 123 655 l 1,8,-1
 123 551 l 2,9,10
 123 529 123 529 115.5 520.5 c 128,-1,11
 108 512 108 512 87 512 c 2,12,-1
 29 512 l 1,13,-1
 29 462 l 1,14,-1
 118 462 l 1,15,-1
 118 63 l 2,16,17
 118 34 118 34 134 17 c 128,-1,18
 150 0 150 0 181 0 c 2,19,-1
 283 0 l 1,0,-1
190 -232 m 1,20,21
 244 -178 244 -178 244 -114 c 2,22,-1
 244 -103 l 2,23,24
 244 -66 244 -66 206 -66 c 0,25,26
 164 -66 164 -66 164 -103 c 2,27,-1
 164 -112 l 2,28,29
 164 -140 164 -140 196 -147 c 1,30,31
 187 -190 187 -190 148 -232 c 1,32,-1
 190 -232 l 1,20,21
EndSplineSet
EndChar

StartChar: Tcaron
Encoding: 356 356 291
Width: 568
GlyphClass: 3
Flags: W
LayerCount: 2
Fore
SplineSet
314 0 m 1,0,-1
 314 645 l 1,1,-1
 548 645 l 1,2,-1
 548 698 l 1,3,-1
 20 698 l 1,4,-1
 20 645 l 1,5,-1
 254 645 l 1,6,-1
 254 0 l 1,7,-1
 314 0 l 1,0,-1
320 774 m 1,8,-1
 438 914 l 1,9,-1
 406 937 l 1,10,-1
 285 816 l 1,11,-1
 164 937 l 1,12,-1
 132 914 l 1,13,-1
 250 774 l 1,14,-1
 320 774 l 1,8,-1
EndSplineSet
EndChar

StartChar: tcaron
Encoding: 357 357 292
Width: 335
Flags: W
LayerCount: 2
Fore
SplineSet
283 0 m 1,0,-1
 283 50 l 1,1,-1
 175 50 l 1,2,-1
 175 462 l 1,3,-1
 291 462 l 1,4,-1
 291 512 l 1,5,-1
 175 512 l 1,6,-1
 175 655 l 1,7,-1
 123 655 l 1,8,-1
 123 551 l 2,9,10
 123 529 123 529 115.5 520.5 c 128,-1,11
 108 512 108 512 87 512 c 2,12,-1
 29 512 l 1,13,-1
 29 462 l 1,14,-1
 118 462 l 1,15,-1
 118 63 l 2,16,17
 118 34 118 34 134 17 c 128,-1,18
 150 0 150 0 181 0 c 2,19,-1
 283 0 l 1,0,-1
296 566 m 1,20,-1
 337 747 l 1,21,-1
 271 747 l 1,22,-1
 257 566 l 1,23,-1
 296 566 l 1,20,-1
EndSplineSet
EndChar

